<svg xmlns="http://www.w3.org/2000/svg" xmlns:xlink="http://www.w3.org/1999/xlink" xmlns:lucid="lucid" width="2108" height="1044.08"><g transform="translate(-40 -180)" lucid:page-tab-id="0_0"><path d="M0 0h2162.96v1898.14H0z" fill="#fff"/><path d="M1079.44 200c24.5 0 44.38 19.87 44.38 44.38v915.32c0 24.5-19.87 44.38-44.38 44.38H724.38c-24.5 0-44.38-19.87-44.38-44.38V244.38c0-24.5 19.87-44.38 44.38-44.38z" stroke="#282c33" stroke-width="2" fill="#58d6d7"/><path d="M680 255h443.82" stroke="#282c33" stroke-width="2" fill="none"/><use xlink:href="#a" transform="matrix(1,0,0,1,724.3823481889112,200) translate(0 32.56666666666666)"/><g transform="matrix(1,0,0,1,724.3823481889112,200)"><a xlink:href="https://github.com/hender14/LoginAPI/blob/main/app/controller/forgotController.go" target="_blank"><path class="lucid-link lucid-hotspot lucid-overlay-hotspot" fill-opacity="0" d="M0 12.3h12.67v30.4H0z"/></a><a xlink:href="https://github.com/hender14/LoginAPI/blob/main/app/controller/forgotController.go" target="_blank"><path class="lucid-link lucid-hotspot lucid-overlay-hotspot" fill-opacity="0" d="M12.67 12.3h91.2v30.4h-91.2z"/></a></g><path d="M1079.96 301.9c8.96 0 16.22 7.26 16.22 16.22v129.74c0 8.96-7.26 16.22-16.22 16.22H736.22c-8.96 0-16.22-7.26-16.22-16.22V318.12c0-8.96 7.26-16.22 16.22-16.22z" stroke="#282c33" stroke-width="2" fill="#58d6d7"/><path d="M720 356.9h376.18" stroke="#282c33" stroke-width="2" fill="none"/><use xlink:href="#b" transform="matrix(1,0,0,1,757.6176518110891,301.9009249112351) translate(0 32.56666666666666)"/><use xlink:href="#c" transform="matrix(1,0,0,1,757.6176518110891,366.9009249112351) translate(0 33.511111111111106)"/><use xlink:href="#d" transform="matrix(1,0,0,1,757.6176518110891,366.9009249112351) translate(28.888888888888886 33.511111111111106)"/><use xlink:href="#e" transform="matrix(1,0,0,1,757.6176518110891,366.9009249112351) translate(82.56444444444443 33.511111111111106)"/><use xlink:href="#f" transform="matrix(1,0,0,1,757.6176518110891,366.9009249112351) translate(111.45333333333332 33.511111111111106)"/><use xlink:href="#g" transform="matrix(1,0,0,1,757.6176518110891,366.9009249112351) translate(169.2311111111111 33.511111111111106)"/><use xlink:href="#h" transform="matrix(1,0,0,1,757.6176518110891,366.9009249112351) translate(198.11999999999998 33.511111111111106)"/><use xlink:href="#i" transform="matrix(1,0,0,1,757.6176518110891,366.9009249112351) translate(227.00888888888886 33.511111111111106)"/><use xlink:href="#j" transform="matrix(1,0,0,1,757.6176518110891,366.9009249112351) translate(255.89777777777775 33.511111111111106)"/><use xlink:href="#k" transform="matrix(1,0,0,1,757.6176518110891,366.9009249112351) translate(0 76.26666666666665)"/><use xlink:href="#l" transform="matrix(1,0,0,1,757.6176518110891,366.9009249112351) translate(28.888888888888886 76.26666666666665)"/><a xlink:href="http://translate.py" target="_blank" transform="matrix(1,0,0,1,757.6176518110891,301.9009249112351)"><path class="lucid-link lucid-hotspot lucid-overlay-hotspot" fill-opacity="0" d="M0 12.3h130.75v30.4H0z"/></a><path d="M1058.56 727.1c20.77 0 37.62 16.84 37.62 37.6v361.76c0 20.78-16.85 37.62-37.62 37.62H757.62c-20.78 0-37.62-16.84-37.62-37.62V764.7c0-20.76 16.84-37.6 37.62-37.6z" stroke="#282c33" stroke-width="2" fill="#58d6d7"/><path d="M720 782.1h376.18" stroke="#282c33" stroke-width="2" fill="none"/><use xlink:href="#m" transform="matrix(1,0,0,1,757.6176518110888,727.0958409282218) translate(0 32.56666666666666)"/><use xlink:href="#c" transform="matrix(1,0,0,1,757.6176518110888,792.0958409282218) translate(0 33.511111111111106)"/><use xlink:href="#n" transform="matrix(1,0,0,1,757.6176518110888,792.0958409282218) translate(28.888888888888886 33.511111111111106)"/><use xlink:href="#o" transform="matrix(1,0,0,1,757.6176518110888,792.0958409282218) translate(74.18666666666665 33.511111111111106)"/><use xlink:href="#p" transform="matrix(1,0,0,1,757.6176518110888,792.0958409282218) translate(0 76.26666666666665)"/><use xlink:href="#q" transform="matrix(1,0,0,1,757.6176518110888,792.0958409282218) translate(141.26666666666665 76.26666666666665)"/><use xlink:href="#r" transform="matrix(1,0,0,1,757.6176518110888,792.0958409282218) translate(170.15555555555554 76.26666666666665)"/><use xlink:href="#s" transform="matrix(1,0,0,1,757.6176518110888,792.0958409282218) translate(199.04444444444442 76.26666666666665)"/><use xlink:href="#t" transform="matrix(1,0,0,1,757.6176518110888,792.0958409282218) translate(227.9333333333333 76.26666666666665)"/><use xlink:href="#u" transform="matrix(1,0,0,1,757.6176518110888,792.0958409282218) translate(256.8222222222222 76.26666666666665)"/><path d="M1011.62 895.54c2.5 0 4.56 2.04 4.56 4.56v36.5c0 2.5-2.05 4.55-4.56 4.55H815c-2.52 0-4.56-2.04-4.56-4.56v-36.5c0-2.52 2.04-4.56 4.56-4.56z" stroke="#282c33" stroke-width="2" fill="#58d6d7"/><use xlink:href="#v" transform="matrix(1,0,0,1,830.4412952772198,895.5398040792224) translate(0 35.13333333333333)"/><path d="M1011.18 987.6c2.76 0 5 2.25 5 5v40c0 2.77-2.24 5-5 5H815.44c-2.76 0-5-2.23-5-5v-40c0-2.75 2.24-5 5-5z" stroke="#282c33" stroke-width="2" fill="#58d6d7"/><use xlink:href="#w" transform="matrix(1,0,0,1,830.4412952772198,987.613298772959) translate(0 37.13333333333333)"/><path d="M1006.25 1084.08c2.3 0 4.2 1.88 4.2 4.2v33.54c0 2.32-1.9 4.2-4.2 4.2h-191.6c-2.33 0-4.2-1.88-4.2-4.2v-33.55c0-2.3 1.87-4.2 4.2-4.2z" stroke="#282c33" stroke-width="2" fill="#58d6d7"/><use xlink:href="#x" transform="matrix(1,0,0,1,830.4412952772198,1084.0784897462493) translate(0 33.511111111111106)"/><path d="M1079.96 517.32c8.96 0 16.22 7.26 16.22 16.22v129.74c0 8.96-7.26 16.22-16.22 16.22H736.22c-8.96 0-16.22-7.26-16.22-16.22V533.54c0-8.96 7.26-16.22 16.22-16.22z" stroke="#282c33" stroke-width="2" fill="#58d6d7"/><path d="M720 572.32h376.18" stroke="#282c33" stroke-width="2" fill="none"/><use xlink:href="#y" transform="matrix(1,0,0,1,757.6176518110892,517.3220782261342) translate(0 32.56666666666666)"/><use xlink:href="#c" transform="matrix(1,0,0,1,757.6176518110892,582.3220782261342) translate(0 33.511111111111106)"/><use xlink:href="#d" transform="matrix(1,0,0,1,757.6176518110892,582.3220782261342) translate(28.888888888888886 33.511111111111106)"/><use xlink:href="#z" transform="matrix(1,0,0,1,757.6176518110892,582.3220782261342) translate(82.56444444444443 33.511111111111106)"/><use xlink:href="#A" transform="matrix(1,0,0,1,757.6176518110892,582.3220782261342) translate(169.2311111111111 33.511111111111106)"/><use xlink:href="#B" transform="matrix(1,0,0,1,757.6176518110892,582.3220782261342) translate(198.11999999999998 33.511111111111106)"/><path d="M908.1 465.58v34.36" stroke="#666" fill="none"/><path d="M908.6 465.6h-1v-.52h1z" stroke="#666" stroke-width=".05" fill="#666"/><path d="M908.1 514.7l-4.65-14.26h9.27z" stroke="#666" fill="#666"/><path d="M908.1 681V709.7" stroke="#666" fill="none"/><path d="M908.6 681h-1v-.5h1z" stroke="#666" stroke-width=".05" fill="#666"/><path d="M908.1 724.48l-4.65-14.27h9.27z" stroke="#666" fill="#666"/><path d="M913.3 942.65v27.58" stroke="#666" fill="none"/><path d="M913.8 942.66h-1v-.5h1z" stroke="#666" stroke-width=".05" fill="#666"/><path d="M913.3 985l-4.63-14.27h9.27z" stroke="#666" fill="#666"/><path d="M913.3 1039.1v27.6" stroke="#666" fill="none"/><path d="M913.8 1039.13h-1v-.52h1z" stroke="#666" stroke-width=".05" fill="#666"/><path d="M913.3 1081.46l-4.63-14.27h9.27z" stroke="#666" fill="#666"/><path d="M1910.15 324.08c30.82 0 55.8 24.98 55.8 55.8v570.96c0 30.82-24.98 55.8-55.8 55.8h-446.47c-30.83 0-55.8-24.98-55.8-55.8V379.9c0-30.84 24.97-55.82 55.8-55.82z" stroke="#282c33" stroke-width="2" fill="#afebeb"/><path d="M1407.87 377.08h558.1" stroke="#282c33" stroke-width="2" fill="none"/><use xlink:href="#C" transform="matrix(1,0,0,1,1463.6764373223782,324.0784897462494) translate(0 31.566666666666666)"/><path d="M1879.34 404.08c25.74 0 46.62 20.87 46.62 46.62v466.76c0 25.75-20.88 46.62-46.62 46.62H1506.4c-25.75 0-46.62-20.87-46.62-46.62V450.7c0-25.75 20.87-46.62 46.62-46.62z" stroke="#282c33" stroke-width="2" fill="#afebeb"/><path d="M1459.78 457.08h466.18" stroke="#282c33" stroke-width="2" fill="none"/><use xlink:href="#D" transform="matrix(1,0,0,1,1506.397004172479,404.07848974624943) translate(0 31.566666666666666)"/><use xlink:href="#E" transform="matrix(1,0,0,1,1506.397004172479,467.07848974624943) translate(0 33.511111111111106)"/><use xlink:href="#F" transform="matrix(1,0,0,1,1506.397004172479,467.07848974624943) translate(28.888888888888886 33.511111111111106)"/><use xlink:href="#G" transform="matrix(1,0,0,1,1506.397004172479,467.07848974624943) translate(74.18666666666665 33.511111111111106)"/><use xlink:href="#H" transform="matrix(1,0,0,1,1506.397004172479,467.07848974624943) translate(177.98444444444442 33.511111111111106)"/><use xlink:href="#I" transform="matrix(1,0,0,1,1506.397004172479,467.07848974624943) translate(265.97999999999996 33.511111111111106)"/><use xlink:href="#J" transform="matrix(1,0,0,1,1506.397004172479,467.07848974624943) translate(0 76.26666666666665)"/><use xlink:href="#K" transform="matrix(1,0,0,1,1506.397004172479,467.07848974624943) translate(44.257777777777775 76.26666666666665)"/><use xlink:href="#L" transform="matrix(1,0,0,1,1506.397004172479,467.07848974624943) translate(73.14666666666666 76.26666666666665)"/><use xlink:href="#M" transform="matrix(1,0,0,1,1506.397004172479,467.07848974624943) translate(102.03555555555555 76.26666666666665)"/><path d="M1734.68 571.37c2.94 0 5.32 2.4 5.32 5.32v42.53c0 2.94-2.38 5.32-5.32 5.32h-243.4c-2.94 0-5.32-2.38-5.32-5.32V576.7c0-2.94 2.38-5.33 5.3-5.33z" stroke="#282c33" stroke-width="2" fill="#afebeb"/><use xlink:href="#N" transform="matrix(1,0,0,1,1505.955870472278,571.3747569741582) translate(0 39.13333333333333)"/><path d="M1794.9 645.4c2.94 0 5.32 2.4 5.32 5.32v42.55c0 2.93-2.38 5.3-5.32 5.3h-303.63c-2.93 0-5.3-2.37-5.3-5.3v-42.55c0-2.93 2.37-5.3 5.3-5.3z" stroke="#282c33" stroke-width="2" fill="#afebeb"/><use xlink:href="#O" transform="matrix(1,0,0,1,1505.955870472278,645.4068842477656) translate(0 39.13333333333333)"/><path d="M1774.68 722.48c2.94 0 5.32 2.38 5.32 5.3v42.55c0 2.94-2.38 5.32-5.32 5.32h-283.4c-2.94 0-5.32-2.38-5.32-5.32V727.8c0-2.94 2.38-5.32 5.3-5.32z" stroke="#282c33" stroke-width="2" fill="#afebeb"/><use xlink:href="#P" transform="matrix(1,0,0,1,1505.955870472278,722.4765023011847) translate(0 39.13333333333333)"/><path d="M1894.68 799.55c2.94 0 5.32 2.38 5.32 5.3v42.55c0 2.94-2.38 5.32-5.32 5.32h-403.4c-2.94 0-5.32-2.38-5.32-5.32v-42.54c0-2.93 2.38-5.3 5.3-5.3z" stroke="#282c33" stroke-width="2" fill="#afebeb"/><use xlink:href="#Q" transform="matrix(1,0,0,1,1505.955870472278,799.5461203546038) translate(0 39.13333333333333)"/><path d="M1836.6 871c2.94 0 5.3 2.4 5.3 5.32v42.45c0 2.93-2.36 5.3-5.3 5.3h-345.34c-2.93 0-5.3-2.37-5.3-5.3v-42.45c0-2.93 2.37-5.3 5.3-5.3z" stroke="#282c33" stroke-width="2" fill="#afebeb"/><use xlink:href="#R" transform="matrix(1,0,0,1,1505.955870472278,871.0113113278946) translate(0 39.13333333333333)"/><path d="M438 504.08c23.2 0 42 18.8 42 42v356c0 23.2-18.8 42-42 42H102c-23.2 0-42-18.8-42-42v-356c0-23.2 18.8-42 42-42z" stroke="#282c33" stroke-width="2" fill="#259b9c"/><path d="M60 559.08h420" stroke="#282c33" stroke-width="2" fill="none"/><use xlink:href="#S" transform="matrix(1,0,0,1,102,504.07848974624926) translate(0 32.56666666666666)"/><use xlink:href="#T" transform="matrix(1,0,0,1,102,569.0784897462493) translate(0 33.511111111111106)"/><use xlink:href="#U" transform="matrix(1,0,0,1,102,569.0784897462493) translate(28.888888888888886 33.511111111111106)"/><use xlink:href="#V" transform="matrix(1,0,0,1,102,569.0784897462493) translate(74.18666666666665 33.511111111111106)"/><use xlink:href="#W" transform="matrix(1,0,0,1,102,569.0784897462493) translate(142.82666666666665 33.511111111111106)"/><use xlink:href="#X" transform="matrix(1,0,0,1,102,569.0784897462493) translate(171.71555555555554 33.511111111111106)"/><path d="M333.77 634.7c3.44 0 6.23 2.8 6.23 6.24v49.83c0 3.44-2.8 6.23-6.23 6.23H146.23c-3.44 0-6.23-2.8-6.23-6.23v-49.83c0-3.44 2.8-6.23 6.23-6.23z" stroke="#282c33" stroke-width="2" fill="#259b9c"/><g><use xlink:href="#Y" transform="matrix(1,0,0,1,160,634.7081504144257) translate(0 43.63333333333333)"/></g><path d="M333.77 711.57c3.44 0 6.23 2.78 6.23 6.22v49.83c0 3.44-2.8 6.23-6.23 6.23H146.23c-3.44 0-6.23-2.8-6.23-6.23V717.8c0-3.45 2.8-6.23 6.23-6.23z" stroke="#282c33" stroke-width="2" fill="#259b9c"/><g><use xlink:href="#Z" transform="matrix(1,0,0,1,160,711.5654780145362) translate(0 43.63333333333333)"/></g><path d="M333.77 800.2c3.44 0 6.23 2.78 6.23 6.22v49.83c0 3.44-2.8 6.23-6.23 6.23H146.23c-3.44 0-6.23-2.8-6.23-6.23v-49.83c0-3.44 2.8-6.23 6.23-6.23z" stroke="#282c33" stroke-width="2" fill="#259b9c"/><g><use xlink:href="#aa" transform="matrix(1,0,0,1,160,800.1898518692539) translate(0 43.63333333333333)"/></g><path d="M335 885.54c2.76 0 5 2.24 5 5v40c0 2.76-2.24 5-5 5H145c-2.76 0-5-2.24-5-5v-40c0-2.76 2.24-5 5-5z" stroke="#282c33" stroke-width="2" fill="#259b9c"/><g><use xlink:href="#ab" transform="matrix(1,0,0,1,160,885.5398040792226) translate(0 37.13333333333333)"/></g><path d="M342 665.85h223a5 5 0 0 1 5 5v26.2a5 5 0 0 0 5 5h85.5" stroke="#282c33" stroke-width="2" fill="none"/><path d="M342.03 666.85H341v-2h1.03z" stroke="#282c33" stroke-width=".05" fill="#282c33"/><path d="M675.76 702.04l-14.26 4.63v-9.27z" stroke="#282c33" stroke-width="2" fill="#282c33"/><path d="M342 742.7h1.95m7.82 0h3.9m7.82 0h3.9m7.8 0h3.92m7.82 0h3.9m7.82 0h3.9m7.82 0h3.9m7.82 0h3.9m7.82 0h3.9m7.83 0h3.9m7.82 0h3.9m7.82 0h3.9m7.8 0h3.92m7.82 0h3.9m7.82 0h3.9m7.82 0h3.9m7.82 0h3.9m7.82 0h3.9m7.83 0H553l.78.07.77.2.72.3.67.4.6.5.5.6.42.67.3.73.18.76v2.02m0 8.1v4.04m0 8.08v4.04m0 8.1v4.03m.02 8.1v4.04m0 8.08v4.04m0 8.1v4.04m0 8.1l.02 4.03m0 8.08v4.05m0 8.1v4.03m0 8.1v4.04m0 8.1l.02 4.03m0 8.1v2l.06.8.18.76.3.7.4.68.52.6.6.5.67.42.72.3.77.18h2m8.04 0h4.02m8.04 0h4.02m8.04 0h4.02m8.03 0h4.02m8.04 0h4m8.05 0h4.02m8.03 0h4.02m8.04 0h4.02m8.04 0h4.02m8.03 0h4.02m8.03 0h4.02m8.04 0h4m8.04 0h4.02m8.04 0h4.02m8.04.02h4m8.05 0h4.03m8.04 0h4.02m8.03 0h4m8.05 0h4.02m8.04 0h4.02m8.03 0h4m8.05 0h4.02m8.04 0h4.03m8.03 0h4.02m8.04 0h4.02m8.04 0h4.02m8.03 0h4.02m8.04 0h4m8.05 0h4.02m8.03 0h4.02m8.04 0h4.02m8.04 0h4m8.05 0h4.02m8.03 0h4.02m8.04 0h4m8.04 0h4.02m8.04 0h4.02m8.03 0h4.02m8.04.02h4.03m8.04 0h4.02m8.02 0h4.02m8.04 0h4.02m8.04 0h4.02m8.03 0h4m8.05 0h4.02m8.04 0h4.03m8.03 0h4.02m8.04 0h4.02m8.04 0h4m8.05 0h4.02m8.04 0h4m8.05 0h4m8.05 0h4.02m8.04 0h4.02m8.03 0h4.03m8.04 0h4.02m8.03 0h4.02m8.03 0h4.02m8.04 0h4.02m8.04 0h4.02m8.03 0h4.02m8.04 0h4.03m8.04 0l4.02.02m8.02 0h4.02m8.04 0h4.02m8.04 0h4.02m8.03 0h4m8.05 0h4.02m8.04 0h4.02m8.04 0h4.02m8.04 0h4.02m8.04 0h4m8.05 0h4.02m8.04 0h4m8.04 0h2" stroke="#282c33" stroke-width="2" fill="none"/><path d="M342.03 743.7H341v-2h1.03z" stroke="#282c33" stroke-width=".05" fill="#282c33"/><path d="M1481.72 897.54l-14.27 4.64v-9.27z" stroke="#282c33" stroke-width="2" fill="#282c33"/><path d="M342 831.33h1.98m7.93 0h3.98m7.93 0h3.97m7.93 0h3.97m7.93 0h3.96m7.93 0h3.96m7.93 0h3.95m7.94 0h3.95m7.93 0h3.97m7.93 0h3.96m7.93 0h3.97m7.93 0h3.96m7.93 0h3.97m7.93 0h3.96m7.93 0h3.97m7.93 0h3.96m7.94 0h3.97m7.94 0h3.96m7.93 0h3.97m7.93 0H570m7.92 0h3.97m7.92 0h3.97m7.92 0h3.96m7.93 0h3.98m7.93 0h3.97m7.93 0h3.97m7.93 0h3.96m7.93 0h3.96m7.93 0h3.95m7.93 0h3.97m7.93 0h3.96m7.93 0h3.97m7.93 0h3.96m7.93 0h3.97m7.93 0h3.97m7.93 0h3.96m7.93 0h3.97m7.93 0h3.96m7.94 0H796m7.94 0h3.96m7.93 0h3.97m7.93 0h3.96m7.92 0h3.97m7.92 0h3.96m7.93 0h3.98m7.93 0h3.97m7.93 0h3.97m7.93 0h3.97m7.93 0h3.98m8.02 0h4.02m8.02 0h4m8.03 0h4m8.03 0h4m8.03 0h4m8.03 0h4.02m8.02 0h4m8.03 0h4m8.03 0h4m8.03 0h4m8.03 0h4m8.03 0h4m8.03 0h4m8.02 0h4m8.03 0h4m8.04 0h4m8.02 0h4m8.03 0h4m8.03 0h4m8.03 0h4.02m8.03 0h4m8.03 0h4m8.03 0h4.02m8.02 0h4m8.03 0h4m8.04 0h4.02m8.02 0h4m8.03 0h4m8.03 0h4m8.03 0h4.02m8.02 0h4m8.03 0h4m8.03 0h4m8.03 0h4m8.03 0h4m8.03 0h4m8.03 0h4m8.03 0h4m8.02 0h4m8.04 0h4m8.03 0h4m8.02 0h4m8.03 0h4m8.03 0h4m8.04 0h4m8.03 0h2" stroke="#282c33" stroke-width="2" fill="none"/><path d="M342.03 832.33H341v-2h1.03z" stroke="#282c33" stroke-width=".05" fill="#282c33"/><path d="M1481.72 831.33l-14.27 4.64v-9.27z" stroke="#282c33" stroke-width="2" fill="#282c33"/><path d="M1098.18 383H1295a5 5 0 0 1 5 5v279a5 5 0 0 0 5 5h161.45" stroke="#282c33" stroke-width="2" fill="none"/><path d="M1098.2 384h-1.02v-2h1.02z" stroke="#282c33" stroke-width=".05" fill="#282c33"/><path d="M1481.72 672l-14.27 4.63v-9.27z" stroke="#282c33" stroke-width="2" fill="#282c33"/><path d="M1098.18 598.4H1215a5 5 0 0 1 5 5v140.66a5 5 0 0 0 5 5h241.45" stroke="#282c33" stroke-width="2" fill="none"/><path d="M1098.2 599.4h-1.02v-2h1.02z" stroke="#282c33" stroke-width=".05" fill="#282c33"/><path d="M1481.72 749.06l-14.27 4.64v-9.27z" stroke="#282c33" stroke-width="2" fill="#282c33"/><path d="M1098.18 945.6H1215a5 5 0 0 0 5-5V754.05a5 5 0 0 1 5-5h241.45" stroke="#282c33" stroke-width="2" fill="none"/><path d="M1098.2 946.6h-1.02v-2h1.02z" stroke="#282c33" stroke-width=".05" fill="#282c33"/><path d="M1481.72 749.06l-14.27 4.64v-9.27z" stroke="#282c33" stroke-width="2" fill="#282c33"/><path d="M2126.46 922.1l-26.36-45.3c-2.05-3.63-5.64-5.67-9.86-5.8h-52.48c-4.22.13-7.8 2.17-9.86 5.8l-26.36 45.2c-2.05 3.52-2.05 7.6 0 11.25l26.36 45.52c2.05 3.76 5.5 5.92 9.86 6.03h52.48c4.22-.1 7.8-2.27 9.86-6.03l26.36-45.17c2.05-3.76 2.05-7.86 0-11.5z" stroke="#000" stroke-opacity="0" fill="#4285f4"/><path d="M2085.5 914.6l-36.17 3.3-7 6.93 6 5.9-5.93 10.32 44.15 43.72h3.73c4.27-.14 7.77-2.3 9.82-5.96l18.35-31.58z" stroke="#000" stroke-opacity="0" fill-opacity=".07"/><path d="M2084.66 914.3h-41.42c-.66 0-1.23.54-1.23 1.2v8.5c0 .65.54 1.18 1.24 1.18h41.42c.7 0 1.23-.53 1.23-1.2v-8.48c0-.66-.54-1.18-1.24-1.2m-6.4 7.92c-1.37 0-2.46-1.1-2.46-2.45s1.1-2.45 2.45-2.45c1.4 0 2.5 1.1 2.5 2.45 0 1.36-1.1 2.45-2.5 2.45M2084.66 930.6h-41.46c-.66.02-1.2.58-1.2 1.25v8.47c0 .67.54 1.2 1.24 1.2h41.42c.7 0 1.23-.53 1.23-1.2v-8.52c0-.66-.54-1.2-1.24-1.2m-6.4 7.92c-1.37 0-2.46-1.1-2.46-2.46 0-1.35 1.1-2.46 2.45-2.46 1.4 0 2.5 1.1 2.5 2.46 0 1.36-1.1 2.46-2.5 2.46" stroke="#000" stroke-opacity="0" fill="#fff"/><g><use xlink:href="#ac" transform="matrix(1,0,0,1,2000,989.8013113278946) translate(11.927777777777777 18.044444444444444)"/><use xlink:href="#ad" transform="matrix(1,0,0,1,2000,989.8013113278946) translate(59.31000000000001 18.044444444444444)"/></g><defs><path fill="#fff" d="M96-169c-40 0-48 33-48 73s9 75 48 75c24 0 41-14 43-38l32 2c-6 37-31 61-74 61-59 0-76-41-82-99-10-93 101-131 147-64 4 7 5 14 7 22l-32 3c-4-21-16-35-41-35" id="ae"/><path fill="#fff" d="M100-194c62-1 85 37 85 99 1 63-27 99-86 99S16-35 15-95c0-66 28-99 85-99zM99-20c44 1 53-31 53-75 0-43-8-75-51-75s-53 32-53 75 10 74 51 75" id="af"/><path fill="#fff" d="M117-194c89-4 53 116 60 194h-32v-121c0-31-8-49-39-48C34-167 62-67 57 0H25l-1-190h30c1 10-1 24 2 32 11-22 29-35 61-36" id="ag"/><path fill="#fff" d="M59-47c-2 24 18 29 38 22v24C64 9 27 4 27-40v-127H5v-23h24l9-43h21v43h35v23H59v120" id="ah"/><path fill="#fff" d="M114-163C36-179 61-72 57 0H25l-1-190h30c1 12-1 29 2 39 6-27 23-49 58-41v29" id="ai"/><path fill="#fff" d="M24 0v-261h32V0H24" id="aj"/><path fill="#fff" d="M100-194c63 0 86 42 84 106H49c0 40 14 67 53 68 26 1 43-12 49-29l28 8c-11 28-37 45-77 45C44 4 14-33 15-96c1-61 26-98 85-98zm52 81c6-60-76-77-97-28-3 7-6 17-6 28h103" id="ak"/><g id="a"><use transform="matrix(0.07037037037037036,0,0,0.07037037037037036,0,0)" xlink:href="#ae"/><path fill="#8080ff" d="M-1.27 1.76h15.2v1.86h-15.2z"/><use transform="matrix(0.07037037037037036,0,0,0.07037037037037036,12.666666666666664,0)" xlink:href="#af"/><use transform="matrix(0.07037037037037036,0,0,0.07037037037037036,26.740740740740737,0)" xlink:href="#ag"/><use transform="matrix(0.07037037037037036,0,0,0.07037037037037036,40.81481481481481,0)" xlink:href="#ah"/><use transform="matrix(0.07037037037037036,0,0,0.07037037037037036,47.85185185185185,0)" xlink:href="#ai"/><use transform="matrix(0.07037037037037036,0,0,0.07037037037037036,56.22592592592592,0)" xlink:href="#af"/><use transform="matrix(0.07037037037037036,0,0,0.07037037037037036,70.3,0)" xlink:href="#aj"/><use transform="matrix(0.07037037037037036,0,0,0.07037037037037036,75.85925925925926,0)" xlink:href="#aj"/><use transform="matrix(0.07037037037037036,0,0,0.07037037037037036,81.41851851851852,0)" xlink:href="#ak"/><use transform="matrix(0.07037037037037036,0,0,0.07037037037037036,95.4925925925926,0)" xlink:href="#ai"/><path fill="#8080ff" d="M11.4 1.76h93.73v1.86H11.4z"/></g><path fill="#fff" d="M141-36C126-15 110 5 73 4 37 3 15-17 15-53c-1-64 63-63 125-63 3-35-9-54-41-54-24 1-41 7-42 31l-33-3c5-37 33-52 76-52 45 0 72 20 72 64v82c-1 20 7 32 28 27v20c-31 9-61-2-59-35zM48-53c0 20 12 33 32 33 41-3 63-29 60-74-43 2-92-5-92 41" id="al"/><path fill="#fff" d="M135-143c-3-34-86-38-87 0 15 53 115 12 119 90S17 21 10-45l28-5c4 36 97 45 98 0-10-56-113-15-118-90-4-57 82-63 122-42 12 7 21 19 24 35" id="am"/><path fill="#fff" d="M33 0v-38h34V0H33" id="an"/><path fill="#fff" d="M115-194c55 1 70 41 70 98S169 2 115 4C84 4 66-9 55-30l1 105H24l-1-265h31l2 30c10-21 28-34 59-34zm-8 174c40 0 45-34 45-75s-6-73-45-74c-42 0-51 32-51 76 0 43 10 73 51 73" id="ao"/><path fill="#fff" d="M179-190L93 31C79 59 56 82 12 73V49c39 6 53-20 64-50L1-190h34L92-34l54-156h33" id="ap"/><g id="b"><use transform="matrix(0.07037037037037036,0,0,0.07037037037037036,0,0)" xlink:href="#ah"/><use transform="matrix(0.07037037037037036,0,0,0.07037037037037036,7.037037037037036,0)" xlink:href="#ai"/><use transform="matrix(0.07037037037037036,0,0,0.07037037037037036,15.41111111111111,0)" xlink:href="#al"/><use transform="matrix(0.07037037037037036,0,0,0.07037037037037036,29.48518518518518,0)" xlink:href="#ag"/><use transform="matrix(0.07037037037037036,0,0,0.07037037037037036,43.55925925925926,0)" xlink:href="#am"/><use transform="matrix(0.07037037037037036,0,0,0.07037037037037036,56.225925925925914,0)" xlink:href="#aj"/><use transform="matrix(0.07037037037037036,0,0,0.07037037037037036,61.78518518518517,0)" xlink:href="#al"/><use transform="matrix(0.07037037037037036,0,0,0.07037037037037036,75.85925925925925,0)" xlink:href="#ah"/><use transform="matrix(0.07037037037037036,0,0,0.07037037037037036,82.89629629629628,0)" xlink:href="#ak"/><use transform="matrix(0.07037037037037036,0,0,0.07037037037037036,96.97037037037036,0)" xlink:href="#an"/><use transform="matrix(0.07037037037037036,0,0,0.07037037037037036,104.0074074074074,0)" xlink:href="#ao"/><use transform="matrix(0.07037037037037036,0,0,0.07037037037037036,118.08148148148148,0)" xlink:href="#ap"/><path fill="#8080ff" d="M-1.27 1.76H132v1.86H-1.26z"/></g><path fill="#fff" d="M599-701c2 226 5 409-110 597-13-13-43-34-60-40 124-196 98-373 101-622h271v563c-7 50 25 33 57 33 14 0 17-17 19-90 14 11 38 19 56 24-7 123-31 118-127 118-59 0-72-20-72-87v-496H599zm-228 99H225c-8 29-15 58-23 86 21 102 51 184 85 250 40-93 69-206 84-336zm-38 408C490 4 677-14 963-15c-11 17-24 51-28 72-286 4-478 8-637-186C244-39 175 28 96 79 85 61 65 34 50 20c81-47 149-118 203-215-35-59-64-131-88-218-21 56-48 106-77 149-11-14-40-42-57-54 88-120 136-313 162-518l73 10c-7 54-16 108-27 159 54-1 113 2 164-2l44 9c-18 194-56 347-114 466" id="aq"/><use transform="matrix(0.028888888888888884,0,0,0.028888888888888884,0,0)" xlink:href="#aq" id="c"/><path fill="#fff" d="M423-588h172v-132H423v132zm249 258v120h265v62H672v136h281v65H287v-65h308v-136H345v-62h250v-120H348v-453h572v453H672zm-77-62v-138H423v138h172zm77 0h173v-138H672v138zm0-196h173v-132H672v132zM315-173l10 66C234-68 140-33 44-4L34-71c48-15 84-26 109-35v-279H48v-68h95v-229H38v-70h273v70h-91v229h86v68h-86v251c34-13 66-26 95-39" id="ar"/><path fill="#fff" d="M139-390c-36 0-66-29-66-69 0-42 30-71 66-71s66 29 66 71c0 40-30 69-66 69zm0 403c-36 0-66-28-66-69s30-71 66-71 66 30 66 71-30 69-66 69" id="as"/><g id="d"><use transform="matrix(0.028888888888888884,0,0,0.028888888888888884,0,0)" xlink:href="#ar"/><use transform="matrix(0.028888888888888884,0,0,0.028888888888888884,28.888888888888886,0)" xlink:href="#as"/></g><path fill="#fff" d="M732-296H278v105h454v-105zM278-24h454v-108H278v108zM204 77v-437h606V74h-78V40H278v37h-74zm482-591h257v68H58v-68h253c-8-43-33-104-59-149l71-15c30 46 55 109 64 151l-51 13h323l-45-12c23-42 53-107 68-153H115v-67h345v-91h76v91h358v67H696l68 16c-26 52-53 109-78 149" id="at"/><use transform="matrix(0.028888888888888884,0,0,0.028888888888888884,0,0)" xlink:href="#at" id="e"/><path fill="#fff" d="M463-386H229c0 54 2 101-4 153h238v-153zm326 153v-153H535v153h254zm74-216v331h-74v-50H216C198-80 163 11 89 82 79 67 49 41 33 31 140-72 156-213 156-317v-132h707zm63-240H536v98h347v64H133v-64h328v-98H74v-65h387v-85h75v85h390v65" id="au"/><path fill="#fff" d="M40-346v-68h771c-51-39-117-102-162-164l60-35c67 88 167 176 256 233-89 57-189 145-256 233l-60-35c45-62 111-125 162-164H40" id="av"/><g id="f"><use transform="matrix(0.028888888888888884,0,0,0.028888888888888884,0,0)" xlink:href="#au"/><use transform="matrix(0.028888888888888884,0,0,0.028888888888888884,28.888888888888886,0)" xlink:href="#av"/></g><path fill="#fff" d="M803-657c-190-5-397-4-588 0v-83c154 13 331 3 495 6 28 0 64-2 93-6v83zM96-489c238 11 495 2 741 5 21 0 54-1 78-5v83c-113-4-234-1-350-2-3 240-88 365-256 455L235-7c154-62 251-193 247-401-128 1-262-2-386 2v-83" id="aw"/><use transform="matrix(0.028888888888888884,0,0,0.028888888888888884,0,0)" xlink:href="#aw" id="g"/><path fill="#fff" d="M547-338c151-26 231-35 334-62l17 84c-110 14-192 31-336 52 35 166 34 184 65 292l-91 17c-17-119-23-127-54-296-167 29-246 39-357 64l-18-87c125-10 190-26 361-51l-40-201c-147 24-203 30-301 53l-17-90c108-6 158-17 303-39-20-96-18-108-40-173l90-16c9 75 10 78 30 177 143-25 211-31 302-56l17 84c-99 13-166 26-305 47" id="ax"/><use transform="matrix(0.028888888888888884,0,0,0.028888888888888884,0,0)" xlink:href="#ax" id="h"/><path fill="#fff" d="M749-708l51 39c-6 8-19 30-25 44-34 86-97 203-168 293 105 90 227 220 292 298l-70 61c-67-88-173-206-275-297C447-155 312-45 164 22l-64-67c262-111 480-315 578-575-161 2-340-5-491 5v-91c148 14 328 4 487 7 33 0 59-4 75-9" id="ay"/><use transform="matrix(0.028888888888888884,0,0,0.028888888888888884,0,0)" xlink:href="#ay" id="i"/><path fill="#fff" d="M847-342l-34 85c-109-59-282-126-393-161 3 151-4 305 7 448h-96c13-222 2-468 6-700 0-28-2-73-8-104h98c-11 84-6 175-7 267 132 40 321 112 427 165" id="az"/><use transform="matrix(0.028888888888888884,0,0,0.028888888888888884,0,0)" xlink:href="#az" id="j"/><path fill="#fff" d="M230-383c147-87 157-197 157-286H67v-68h395v-99h75v99h400v68H667v220c0 92-67 74-173 78-3-19-12-46-21-65 50 1 93 1 106 1 13-1 16-4 16-15v-219H457c0 108-14 238-173 336-11-16-37-39-54-50zm489-204l57-34c65 57 142 138 178 193l-62 39c-33-55-109-139-173-198zm-502-30l70 20c-42 75-114 152-187 199-13-13-36-33-51-44 69-41 137-112 168-175zm137 366l-6 6c39 52 92 97 158 134 71-38 132-84 176-140H354zm390-65l49 33c-50 87-124 155-213 208C686-31 814-2 958 10c-16 16-35 48-43 68C755 61 616 24 503-35 379 23 234 58 86 79c-5-18-22-51-36-65C187-3 320-31 432-77c-53-37-99-80-136-129-51 35-108 68-174 96-10-18-32-42-47-54 153-59 261-146 317-224l80 14c-16 21-33 41-52 61h310" id="aA"/><use transform="matrix(0.028888888888888884,0,0,0.028888888888888884,0,0)" xlink:href="#aA" id="k"/><path fill="#fff" d="M690-700H522c-21 34-47 67-76 98h191c18-28 38-65 53-98zm154 264v-105H735v94c0 16 2 18 23 18h66c14 0 18-1 20-7zM455-541v150c69-29 91-74 98-150h-98zM348-347l-109 36v301c-3 93-54 83-158 86-3-17-12-48-22-68 43 1 82 1 94 0 12 0 17-3 17-18v-279L51-250l-19-72c38-10 86-25 138-41v-205H45v-68h125v-200h69v200h107v38c87-71 143-163 171-239l70 11c-9 22-19 44-30 66h167l11-4 47 31c-18 43-46 91-72 131h199v325h-65v-101h-93c-59 0-73-13-73-69v-94h-69c-8 95-36 155-121 192-6-13-21-32-33-41v115h-63v-276c-6 6-13 11-19 16-8-11-21-23-33-33H239v184c33-10 66-21 99-32zm599 172H696C743-77 830-13 962 12c-17 14-35 43-45 61C782 40 693-29 641-139 600-33 516 37 338 78c-6-16-23-43-37-57 172-35 247-97 281-196H336v-63h263c5-27 8-57 11-89h68c-3 32-6 61-11 89h280v63" id="aB"/><use transform="matrix(0.028888888888888884,0,0,0.028888888888888884,0,0)" xlink:href="#aB" id="l"/><path fill="#fff" d="M85-194c31 0 48 13 60 33l-1-100h32l1 261h-30c-2-10 0-23-3-31C134-8 116 4 85 4 32 4 16-35 15-94c0-66 23-100 70-100zm9 24c-40 0-46 34-46 75 0 40 6 74 45 74 42 0 51-32 51-76 0-42-9-74-50-73" id="aC"/><path fill="#fff" d="M-5 72V49h209v23H-5" id="aD"/><path fill="#fff" d="M24-231v-30h32v30H24zM24 0v-190h32V0H24" id="aE"/><g id="m"><use transform="matrix(0.07037037037037036,0,0,0.07037037037037036,0,0)" xlink:href="#aC"/><use transform="matrix(0.07037037037037036,0,0,0.07037037037037036,14.074074074074073,0)" xlink:href="#al"/><use transform="matrix(0.07037037037037036,0,0,0.07037037037037036,28.148148148148145,0)" xlink:href="#ah"/><use transform="matrix(0.07037037037037036,0,0,0.07037037037037036,35.18518518518518,0)" xlink:href="#al"/><use transform="matrix(0.07037037037037036,0,0,0.07037037037037036,49.25925925925925,0)" xlink:href="#aD"/><use transform="matrix(0.07037037037037036,0,0,0.07037037037037036,63.33333333333332,0)" xlink:href="#al"/><use transform="matrix(0.07037037037037036,0,0,0.07037037037037036,77.40740740740739,0)" xlink:href="#ag"/><use transform="matrix(0.07037037037037036,0,0,0.07037037037037036,91.48148148148148,0)" xlink:href="#al"/><use transform="matrix(0.07037037037037036,0,0,0.07037037037037036,105.55555555555556,0)" xlink:href="#aj"/><use transform="matrix(0.07037037037037036,0,0,0.07037037037037036,111.11481481481482,0)" xlink:href="#ap"/><use transform="matrix(0.07037037037037036,0,0,0.07037037037037036,123.78148148148148,0)" xlink:href="#am"/><use transform="matrix(0.07037037037037036,0,0,0.07037037037037036,136.44814814814814,0)" xlink:href="#aE"/><use transform="matrix(0.07037037037037036,0,0,0.07037037037037036,142.00740740740738,0)" xlink:href="#am"/><use transform="matrix(0.07037037037037036,0,0,0.07037037037037036,154.67407407407404,0)" xlink:href="#an"/><use transform="matrix(0.07037037037037036,0,0,0.07037037037037036,161.71111111111108,0)" xlink:href="#ao"/><use transform="matrix(0.07037037037037036,0,0,0.07037037037037036,175.78518518518516,0)" xlink:href="#ap"/></g><g id="n"><use transform="matrix(0.028888888888888884,0,0,0.028888888888888884,0,0)" xlink:href="#ar"/><use transform="matrix(0.028888888888888884,0,0,0.028888888888888884,28.888888888888886,0)" xlink:href="#as"/></g><path fill="#fff" d="M403-571c-47 10-74 23-135 40l16 186c68-24 111-33 157-58l9 86c-56 11-93 27-160 48 15 162 15 180 29 290l-69 18c-4-98-15-192-22-288-75 25-115 36-164 58l-9-87c61-11 89-23 167-47l-16-186c-68 23-96 27-140 49l-8-90c52-7 74-16 141-35-5-53-8-115-16-164l67-17c3 67 4 74 11 162 64-22 92-28 134-49" id="aF"/><path fill="#fff" d="M56-316v-98c103 10 231 3 343 5 25 0 43-3 54-5v98c-120-8-275-8-397 0" id="aG"/><path fill="#fff" d="M410-693l37 39c-18 133-18 278-60 406C346-120 273-17 192 35l-46-69c73-41 143-126 183-254 28-89 41-204 43-322H137c1 86-2 166 2 251H69c5-107 5-223 0-331 96 4 204 1 304 2 10 0 28-1 37-5" id="aH"/><path fill="#fff" d="M222-757c-8 87-4 178-5 270 67 40 157 109 207 159l-25 87c-50-52-128-115-182-150 2 142-2 284 5 421h-79c9-220 2-457 4-683 0-29-2-73-5-104h80" id="aI"/><path fill="#fff" d="M70-804c21 36 64 122 83 161l-53 27c-19-43-58-127-81-164zm109-49c22 36 64 120 84 160l-52 26c-20-43-59-125-83-161" id="aJ"/><g id="o"><use transform="matrix(0.028888888888888884,0,0,0.028888888888888884,0,0)" xlink:href="#aF"/><use transform="matrix(0.028888888888888884,0,0,0.028888888888888884,14.444444444444443,0)" xlink:href="#aG"/><use transform="matrix(0.028888888888888884,0,0,0.028888888888888884,28.888888888888886,0)" xlink:href="#aH"/><use transform="matrix(0.028888888888888884,0,0,0.028888888888888884,43.33333333333333,0)" xlink:href="#aG"/><use transform="matrix(0.028888888888888884,0,0,0.028888888888888884,57.77777777777777,0)" xlink:href="#aI"/><use transform="matrix(0.028888888888888884,0,0,0.028888888888888884,72.22222222222221,0)" xlink:href="#aJ"/></g><path fill="#fff" d="M271-140c44 0 99-66 150-233 25-82 44-176 55-267-190 24-306 187-306 320 0 125 58 180 101 180zm215 91c184-13 336-101 336-305 0-150-95-273-263-287-13 92-32 192-59 285C439-153 360-48 268-48 180-48 91-150 91-313c0-215 192-403 434-403 232 0 380 164 380 364C905-144 768-5 532 26" id="aK"/><path fill="#fff" d="M303 45C261 172 181 266 37 223l18-73C155 188 210 96 231 1L13-543h95c55 152 111 298 163 454h5c45-155 95-303 143-454h89" id="aL"/><path fill="#fff" d="M303 13C170 13 51-91 51-271c0-181 119-286 252-286s252 105 252 286C555-91 436 13 303 13zm0-76c94 0 158-83 158-208s-64-210-158-210-157 85-157 210S209-63 303-63" id="aM"/><path fill="#fff" d="M250 13C136 13 85-61 85-199v-344h91v333c0 101 30 144 102 144 56 0 95-27 147-92v-385h91V0h-76l-7-85h-3c-51 59-105 98-180 98" id="aN"/><path fill="#fff" d="M263 13c-116 0-155-72-155-181v-301H27v-69l85-5 11-152h76v152h147v74H199v303c0 67 21 105 84 105 19 0 44-7 62-14l18 68c-31 10-67 20-100 20" id="aO"/><path fill="#fff" d="M567-281C567-18 341 97 176-56h-3l-8 56H92v-796h91c0 106 2 214-3 316 49-43 110-77 170-77 141 0 217 110 217 276zM183-120C317-1 471-73 472-279c0-120-40-201-143-201-46 0-94 26-146 75v285" id="aP"/><path fill="#fff" d="M311 13C167 13 51-92 51-271c0-176 119-286 245-286 154-3 234 132 212 307H142c6 116 77 190 180 190 53 0 96-16 136-43l33 60c-48 31-106 56-180 56zM141-315h291c0-110-50-169-135-169-77 0-145 62-156 169" id="aQ"/><g id="p"><use transform="matrix(0.028888888888888884,0,0,0.028888888888888884,0,0)" xlink:href="#aK"/><use transform="matrix(0.028888888888888884,0,0,0.028888888888888884,28.888888888888886,0)" xlink:href="#aL"/><use transform="matrix(0.028888888888888884,0,0,0.028888888888888884,43.94,0)" xlink:href="#aM"/><use transform="matrix(0.028888888888888884,0,0,0.028888888888888884,61.44666666666666,0)" xlink:href="#aN"/><use transform="matrix(0.028888888888888884,0,0,0.028888888888888884,78.98222222222222,0)" xlink:href="#aO"/><use transform="matrix(0.028888888888888884,0,0,0.028888888888888884,89.87333333333333,0)" xlink:href="#aN"/><use transform="matrix(0.028888888888888884,0,0,0.028888888888888884,107.4088888888889,0)" xlink:href="#aP"/><use transform="matrix(0.028888888888888884,0,0,0.028888888888888884,125.26222222222223,0)" xlink:href="#aQ"/></g><path fill="#fff" d="M867-675l-54 24c-20-41-54-101-81-138l53-23c25 36 61 96 82 137zm-134 27c-171-5-358-5-530 0v-83c136 12 292 3 437 6 28 0 64-2 93-6v83zM85-479c239 9 495 2 741 4 21 0 54-1 78-4v82c-113-4-234-1-350-2-3 241-88 364-256 456L224 2c154-62 251-193 247-401-128 1-262-2-386 2v-82zm757-351l53-22c26 36 65 99 84 136l-54 24c-22-44-54-100-83-138" id="aR"/><use transform="matrix(0.028888888888888884,0,0,0.028888888888888884,0,0)" xlink:href="#aR" id="q"/><path fill="#fff" d="M102-335v-98c214 10 463 3 687 5 50 0 86-3 108-5v98c-206-10-441-3-656-5-55 0-108 2-139 5" id="aS"/><use transform="matrix(0.028888888888888884,0,0,0.028888888888888884,0,0)" xlink:href="#aS" id="r"/><path fill="#fff" d="M807-681l65 40c-8 14-17 38-23 54-25 88-76 199-146 297 38 24 72 47 97 65l-55 72c-24-19-57-43-95-69C560-119 434-21 258 44l-72-62c174-53 304-149 395-249-79-51-163-101-219-132l51-59c58 30 142 78 220 125 61-85 110-188 129-267H422c-64 89-153 187-265 263l-67-52c172-106 276-256 321-347 10-18 25-54 32-80l90 29c-27 44-41 77-65 116h273c27 0 49-3 66-10" id="aT"/><use transform="matrix(0.028888888888888884,0,0,0.028888888888888884,0,0)" xlink:href="#aT" id="s"/><path fill="#fff" d="M318-243h90v-117h-90v117zM174-360c0 41 1 76-2 117h92v-117h-90zm150-329H215c-15 37-32 72-50 104h115c15-30 32-69 44-104zm-6 163v110h90v-110h-90zm-144 0v110h90v-110h-90zm689-197H703c-21 118-69 214-192 270-8-16-26-38-40-50V-5c-5 90-58 77-168 80-3-17-14-46-24-63 52 2 97 2 110 1 14-1 19-5 19-18v-180H168C159-92 138 6 91 78 81 67 53 51 38 44c94-166 70-333 74-546-7 9-14 18-21 26-11-12-40-35-56-45 71-76 126-194 156-316l69 15c-7 25-15 50-23 74 42-2 91 4 128-3l44 28c-17 44-40 95-63 138h125v81c105-46 145-125 164-219H500v-63h432c-6 148-16 270-39 281-32 37-82 24-157 24-2-19-8-45-17-62 39 4 76 4 90 4 13 1 21 0 28-9 11-13 20-59 26-175zm96 543v64H769V71h-71v-187H488v-64h210v-123H587c-15 37-33 71-52 98-12-9-41-23-58-31 44-57 74-139 92-224l63 13c-6 27-13 54-21 80h87v-102h71v102h173v64H769v123h190" id="aU"/><use transform="matrix(0.028888888888888884,0,0,0.028888888888888884,0,0)" xlink:href="#aU" id="t"/><path fill="#fff" d="M420-294l-46 60c-18-33-59-94-94-143V75h-70v-477c-38 114-88 225-139 292-8-20-27-49-39-67 67-83 135-239 168-376H55v-70h155v-214h70v214h137v70H280v88c31 35 119 144 140 171zm539-203v71H811V76h-74v-502H556c-3 153-28 352-138 498-10-15-39-39-56-49 112-148 123-349 123-498v-281l63 19c113-23 231-56 303-88l63 57c-96 40-232 72-357 94v177h402" id="aV"/><use transform="matrix(0.028888888888888884,0,0,0.028888888888888884,0,0)" xlink:href="#aV" id="u"/><path fill="#fff" d="M15 0l179-283L29-543h98c43 70 84 140 127 210h4c39-71 77-140 116-210h95L304-274 483 0H383c-48-73-92-149-138-224h-5C197-151 154-74 111 0H15" id="aW"/><path fill="#fff" d="M92 0v-543h75l8 99h3c50-86 117-137 212-101l-17 80c-18-7-31-9-53-9-45 0-101 32-137 125V0H92" id="aX"/><path fill="#fff" d="M217 13C126 13 58-43 58-141c0-118 103-177 334-203 0-70-23-137-112-137-63 0-120 29-163 58l-36-63c50-32 127-71 214-71 132 0 188 89 188 223V0h-75l-8-65h-3c-52 43-113 78-180 78zm26-73c53 0 96-25 149-72v-152c-183 22-245 67-245 137 0 62 42 87 96 87" id="aY"/><path fill="#fff" d="M306 13C162 13 51-91 51-271c0-181 123-286 262-286 71 0 120 30 159 64l-47 61c-32-29-65-49-109-49-98 0-170 85-170 210S214-63 314-63c50 0 94-23 128-54l39 61c-48 44-110 69-175 69" id="aZ"/><path fill="#fff" d="M13 140V79h532v61H13" id="ba"/><path fill="#fff" d="M178 0L27-543h93c39 154 83 304 113 466h5c36-159 81-311 121-466h89c41 154 85 308 123 466h4c34-159 75-312 114-466h86L629 0H519c-39-150-82-293-116-449h-5C365-294 323-150 285 0H178" id="bb"/><path fill="#fff" d="M277 13C141 13 53-90 53-271c-5-249 231-368 388-222-8-95-4-201-5-303h91V0h-74c-4-21-4-46-11-64-43 42-100 77-165 77zm20-76c50 0 94-25 139-75v-285c-123-120-291-42-289 151 0 131 54 209 150 209" id="bc"/><g id="v"><use transform="matrix(0.028888888888888884,0,0,0.028888888888888884,0,0)" xlink:href="#aQ"/><use transform="matrix(0.028888888888888884,0,0,0.028888888888888884,16.00444444444444,0)" xlink:href="#aW"/><use transform="matrix(0.028888888888888884,0,0,0.028888888888888884,30.391111111111105,0)" xlink:href="#aO"/><use transform="matrix(0.028888888888888884,0,0,0.028888888888888884,41.28222222222222,0)" xlink:href="#aX"/><use transform="matrix(0.028888888888888884,0,0,0.028888888888888884,52.4911111111111,0)" xlink:href="#aY"/><use transform="matrix(0.028888888888888884,0,0,0.028888888888888884,68.78444444444443,0)" xlink:href="#aZ"/><use transform="matrix(0.028888888888888884,0,0,0.028888888888888884,83.48888888888888,0)" xlink:href="#aO"/><use transform="matrix(0.028888888888888884,0,0,0.028888888888888884,94.38,0)" xlink:href="#ba"/><use transform="matrix(0.028888888888888884,0,0,0.028888888888888884,110.52888888888889,0)" xlink:href="#bb"/><use transform="matrix(0.028888888888888884,0,0,0.028888888888888884,133.69777777777776,0)" xlink:href="#aM"/><use transform="matrix(0.028888888888888884,0,0,0.028888888888888884,151.20444444444442,0)" xlink:href="#aX"/><use transform="matrix(0.028888888888888884,0,0,0.028888888888888884,162.4133333333333,0)" xlink:href="#bc"/></g><path fill="#fff" d="M209 0L13-543h95c51 155 104 312 153 469h4c48-158 101-314 153-469h90L315 0H209" id="bd"/><path fill="#fff" d="M92 0v-543h91V0H92zm46-655c-36 0-63-25-63-59 0-37 27-59 63-59s63 22 63 59c0 34-27 59-63 59" id="be"/><path fill="#fff" d="M234 13C157 13 83-19 31-62l45-60c47 38 96 64 161 64 72 0 107-38 107-85 0-55-64-80-124-103-76-28-162-65-162-157 0-86 69-154 187-154 67 0 126 28 169 61l-44 59c-38-28-76-48-125-48-68 0-99 36-99 78 0 52 59 71 120 94 79 30 166 62 166 165 0 88-70 161-198 161" id="bf"/><g id="w"><use transform="matrix(0.028888888888888884,0,0,0.028888888888888884,0,0)" xlink:href="#bd"/><use transform="matrix(0.028888888888888884,0,0,0.028888888888888884,15.051111111111108,0)" xlink:href="#be"/><use transform="matrix(0.028888888888888884,0,0,0.028888888888888884,22.99555555555555,0)" xlink:href="#bc"/><use transform="matrix(0.028888888888888884,0,0,0.028888888888888884,40.90666666666666,0)" xlink:href="#aQ"/><use transform="matrix(0.028888888888888884,0,0,0.028888888888888884,56.9111111111111,0)" xlink:href="#aM"/><use transform="matrix(0.028888888888888884,0,0,0.028888888888888884,74.41777777777776,0)" xlink:href="#ba"/><use transform="matrix(0.028888888888888884,0,0,0.028888888888888884,90.56666666666665,0)" xlink:href="#bd"/><use transform="matrix(0.028888888888888884,0,0,0.028888888888888884,105.61777777777776,0)" xlink:href="#be"/><use transform="matrix(0.028888888888888884,0,0,0.028888888888888884,113.5622222222222,0)" xlink:href="#aQ"/><use transform="matrix(0.028888888888888884,0,0,0.028888888888888884,129.56666666666663,0)" xlink:href="#bb"/><use transform="matrix(0.028888888888888884,0,0,0.028888888888888884,152.73555555555552,0)" xlink:href="#bf"/></g><path fill="#fff" d="M356-791l-20 69c-75-34-144-8-138 93v86h115v74H198V0h-91v-469H33v-69l74-5v-87c0-110 50-179 158-179 33 0 65 7 91 18" id="bg"/><path fill="#fff" d="M92 0v-543h75l8 79h3c47-52 104-93 169-93 83 0 128 40 150 104 56-61 113-104 179-104 112 0 165 74 165 213V0h-91v-332c0-102-32-145-101-145-42 0-86 27-137 83V0h-91v-332c0-102-32-145-101-145-41 0-87 27-137 83V0H92" id="bh"/><g id="x"><use transform="matrix(0.028888888888888884,0,0,0.028888888888888884,0,0)" xlink:href="#bg"/><use transform="matrix(0.028888888888888884,0,0,0.028888888888888884,9.388888888888888,0)" xlink:href="#aM"/><use transform="matrix(0.028888888888888884,0,0,0.028888888888888884,26.895555555555553,0)" xlink:href="#aX"/><use transform="matrix(0.028888888888888884,0,0,0.028888888888888884,38.10444444444444,0)" xlink:href="#bh"/><use transform="matrix(0.028888888888888884,0,0,0.028888888888888884,64.85555555555555,0)" xlink:href="#aY"/><use transform="matrix(0.028888888888888884,0,0,0.028888888888888884,81.14888888888888,0)" xlink:href="#aO"/></g><path fill="#fff" d="M210-169c-67 3-38 105-44 169h-31v-121c0-29-5-50-35-48C34-165 62-65 56 0H25l-1-190h30c1 10-1 24 2 32 10-44 99-50 107 0 11-21 27-35 58-36 85-2 47 119 55 194h-31v-121c0-29-5-49-35-48" id="bi"/><path fill="#fff" d="M106-169C34-169 62-67 57 0H25v-261h32l-1 103c12-21 28-36 61-36 89 0 53 116 60 194h-32v-121c2-32-8-49-39-48" id="bj"/><g id="y"><use transform="matrix(0.07037037037037036,0,0,0.07037037037037036,0,0)" xlink:href="#ae"/><use transform="matrix(0.07037037037037036,0,0,0.07037037037037036,12.666666666666664,0)" xlink:href="#af"/><use transform="matrix(0.07037037037037036,0,0,0.07037037037037036,26.740740740740737,0)" xlink:href="#bi"/><use transform="matrix(0.07037037037037036,0,0,0.07037037037037036,47.78148148148148,0)" xlink:href="#ao"/><use transform="matrix(0.07037037037037036,0,0,0.07037037037037036,61.855555555555554,0)" xlink:href="#ai"/><use transform="matrix(0.07037037037037036,0,0,0.07037037037037036,70.22962962962963,0)" xlink:href="#ak"/><use transform="matrix(0.07037037037037036,0,0,0.07037037037037036,84.3037037037037,0)" xlink:href="#bj"/><use transform="matrix(0.07037037037037036,0,0,0.07037037037037036,98.37777777777778,0)" xlink:href="#ak"/><use transform="matrix(0.07037037037037036,0,0,0.07037037037037036,112.45185185185186,0)" xlink:href="#ag"/><use transform="matrix(0.07037037037037036,0,0,0.07037037037037036,126.52592592592592,0)" xlink:href="#aC"/><use transform="matrix(0.07037037037037036,0,0,0.07037037037037036,140.6,0)" xlink:href="#an"/><use transform="matrix(0.07037037037037036,0,0,0.07037037037037036,147.637037037037,0)" xlink:href="#ao"/><use transform="matrix(0.07037037037037036,0,0,0.07037037037037036,161.7111111111111,0)" xlink:href="#ap"/></g><g id="z"><use transform="matrix(0.028888888888888884,0,0,0.028888888888888884,0,0)" xlink:href="#aF"/><use transform="matrix(0.028888888888888884,0,0,0.028888888888888884,14.444444444444443,0)" xlink:href="#aG"/><use transform="matrix(0.028888888888888884,0,0,0.028888888888888884,28.888888888888886,0)" xlink:href="#aH"/><use transform="matrix(0.028888888888888884,0,0,0.028888888888888884,43.33333333333333,0)" xlink:href="#aG"/><use transform="matrix(0.028888888888888884,0,0,0.028888888888888884,57.77777777777777,0)" xlink:href="#aI"/><use transform="matrix(0.028888888888888884,0,0,0.028888888888888884,72.22222222222221,0)" xlink:href="#aJ"/></g><path fill="#fff" d="M472-251h148c3-44 2-90 2-136H472v136zm373-136H689c0 46 1 93-2 136h158v-136zM493-602h337c-67-49-131-110-172-167-38 56-97 116-165 167zm420 412H716C773-70 853-21 968 18c-17 16-35 42-43 63C806 35 723-23 664-148 628-58 549 24 378 81c-6-16-27-44-40-56 174-56 243-132 269-215H406v-257h216v-92H470v-47c-27 19-55 37-84 52-3-8-8-17-13-26v6H265v75c28 36 104 145 120 171l-41 59c-14-32-49-95-79-144V75h-70v-462c-33 108-77 211-122 275-9-19-27-48-39-65 62-84 125-241 155-377H55v-69h140v-214h70v214h108v17c103-55 199-144 248-229h67c71 99 182 188 287 234-14 18-30 44-40 65-28-15-57-33-86-53v50H689v92h224v257" id="bk"/><use transform="matrix(0.028888888888888884,0,0,0.028888888888888884,0,0)" xlink:href="#bk" id="A"/><path fill="#fff" d="M814-336h76V74h-76V14H190v62h-74v-412h74v277h267v-341H154v-342h74v270h229v-359h76v359h240v-270h77v342H533v341h281v-277" id="bl"/><use transform="matrix(0.028888888888888884,0,0,0.028888888888888884,0,0)" xlink:href="#bl" id="B"/><path d="M135-143c-3-34-86-38-87 0 15 53 115 12 119 90S17 21 10-45l28-5c4 36 97 45 98 0-10-56-113-15-118-90-4-57 82-63 122-42 12 7 21 19 24 35" id="bm"/><path d="M100-194c63 0 86 42 84 106H49c0 40 14 67 53 68 26 1 43-12 49-29l28 8c-11 28-37 45-77 45C44 4 14-33 15-96c1-61 26-98 85-98zm52 81c6-60-76-77-97-28-3 7-6 17-6 28h103" id="bn"/><path d="M114-163C36-179 61-72 57 0H25l-1-190h30c1 12-1 29 2 39 6-27 23-49 58-41v29" id="bo"/><path d="M108 0H70L1-190h34L89-25l56-165h34" id="bp"/><path d="M24-231v-30h32v30H24zM24 0v-190h32V0H24" id="bq"/><path d="M96-169c-40 0-48 33-48 73s9 75 48 75c24 0 41-14 43-38l32 2c-6 37-31 61-74 61-59 0-76-41-82-99-10-93 101-131 147-64 4 7 5 14 7 22l-32 3c-4-21-16-35-41-35" id="br"/><g id="C"><use transform="matrix(0.07037037037037036,0,0,0.07037037037037036,0,0)" xlink:href="#bm"/><use transform="matrix(0.07037037037037036,0,0,0.07037037037037036,12.666666666666664,0)" xlink:href="#bn"/><use transform="matrix(0.07037037037037036,0,0,0.07037037037037036,26.740740740740737,0)" xlink:href="#bo"/><use transform="matrix(0.07037037037037036,0,0,0.07037037037037036,35.11481481481481,0)" xlink:href="#bp"/><use transform="matrix(0.07037037037037036,0,0,0.07037037037037036,47.781481481481464,0)" xlink:href="#bq"/><use transform="matrix(0.07037037037037036,0,0,0.07037037037037036,53.34074074074073,0)" xlink:href="#br"/><use transform="matrix(0.07037037037037036,0,0,0.07037037037037036,66.00740740740738,0)" xlink:href="#bn"/></g><path d="M177-190C167-65 218 103 67 71c-23-6-38-20-44-43l32-5c15 47 100 32 89-28v-30C133-14 115 1 83 1 29 1 15-40 15-95c0-56 16-97 71-98 29-1 48 16 59 35 1-10 0-23 2-32h30zM94-22c36 0 50-32 50-73 0-42-14-75-50-75-39 0-46 34-46 75s6 73 46 73" id="bs"/><path d="M59-47c-2 24 18 29 38 22v24C64 9 27 4 27-40v-127H5v-23h24l9-43h21v43h35v23H59v120" id="bt"/><path d="M100-194c62-1 85 37 85 99 1 63-27 99-86 99S16-35 15-95c0-66 28-99 85-99zM99-20c44 1 53-31 53-75 0-43-8-75-51-75s-53 32-53 75 10 74 51 75" id="bu"/><path d="M141-36C126-15 110 5 73 4 37 3 15-17 15-53c-1-64 63-63 125-63 3-35-9-54-41-54-24 1-41 7-42 31l-33-3c5-37 33-52 76-52 45 0 72 20 72 64v82c-1 20 7 32 28 27v20c-31 9-61-2-59-35zM48-53c0 20 12 33 32 33 41-3 63-29 60-74-43 2-92-5-92 41" id="bv"/><path d="M33 0v-38h34V0H33" id="bw"/><path d="M115-194c55 1 70 41 70 98S169 2 115 4C84 4 66-9 55-30l1 105H24l-1-265h31l2 30c10-21 28-34 59-34zm-8 174c40 0 45-34 45-75s-6-73-45-74c-42 0-51 32-51 76 0 43 10 73 51 73" id="bx"/><path d="M179-190L93 31C79 59 56 82 12 73V49c39 6 53-20 64-50L1-190h34L92-34l54-156h33" id="by"/><g id="D"><use transform="matrix(0.07037037037037036,0,0,0.07037037037037036,0,0)" xlink:href="#bs"/><use transform="matrix(0.07037037037037036,0,0,0.07037037037037036,14.074074074074073,0)" xlink:href="#br"/><use transform="matrix(0.07037037037037036,0,0,0.07037037037037036,26.740740740740737,0)" xlink:href="#bm"/><use transform="matrix(0.07037037037037036,0,0,0.07037037037037036,39.407407407407405,0)" xlink:href="#bt"/><use transform="matrix(0.07037037037037036,0,0,0.07037037037037036,46.44444444444444,0)" xlink:href="#bu"/><use transform="matrix(0.07037037037037036,0,0,0.07037037037037036,60.51851851851852,0)" xlink:href="#bo"/><use transform="matrix(0.07037037037037036,0,0,0.07037037037037036,68.89259259259259,0)" xlink:href="#bv"/><use transform="matrix(0.07037037037037036,0,0,0.07037037037037036,82.96666666666667,0)" xlink:href="#bs"/><use transform="matrix(0.07037037037037036,0,0,0.07037037037037036,97.04074074074074,0)" xlink:href="#bn"/><use transform="matrix(0.07037037037037036,0,0,0.07037037037037036,111.11481481481482,0)" xlink:href="#bw"/><use transform="matrix(0.07037037037037036,0,0,0.07037037037037036,118.15185185185186,0)" xlink:href="#bx"/><use transform="matrix(0.07037037037037036,0,0,0.07037037037037036,132.22592592592594,0)" xlink:href="#by"/></g><path fill="#666" d="M599-701c2 226 5 409-110 597-13-13-43-34-60-40 124-196 98-373 101-622h271v563c-7 50 25 33 57 33 14 0 17-17 19-90 14 11 38 19 56 24-7 123-31 118-127 118-59 0-72-20-72-87v-496H599zm-228 99H225c-8 29-15 58-23 86 21 102 51 184 85 250 40-93 69-206 84-336zm-38 408C490 4 677-14 963-15c-11 17-24 51-28 72-286 4-478 8-637-186C244-39 175 28 96 79 85 61 65 34 50 20c81-47 149-118 203-215-35-59-64-131-88-218-21 56-48 106-77 149-11-14-40-42-57-54 88-120 136-313 162-518l73 10c-7 54-16 108-27 159 54-1 113 2 164-2l44 9c-18 194-56 347-114 466" id="bz"/><use transform="matrix(0.028888888888888884,0,0,0.028888888888888884,0,0)" xlink:href="#bz" id="E"/><path fill="#666" d="M423-588h172v-132H423v132zm249 258v120h265v62H672v136h281v65H287v-65h308v-136H345v-62h250v-120H348v-453h572v453H672zm-77-62v-138H423v138h172zm77 0h173v-138H672v138zm0-196h173v-132H672v132zM315-173l10 66C234-68 140-33 44-4L34-71c48-15 84-26 109-35v-279H48v-68h95v-229H38v-70h273v70h-91v229h86v68h-86v251c34-13 66-26 95-39" id="bA"/><path fill="#666" d="M139-390c-36 0-66-29-66-69 0-42 30-71 66-71s66 29 66 71c0 40-30 69-66 69zm0 403c-36 0-66-28-66-69s30-71 66-71 66 30 66 71-30 69-66 69" id="bB"/><g id="F"><use transform="matrix(0.028888888888888884,0,0,0.028888888888888884,0,0)" xlink:href="#bA"/><use transform="matrix(0.028888888888888884,0,0,0.028888888888888884,28.888888888888886,0)" xlink:href="#bB"/></g><path fill="#666" d="M388 13C195 13 58-128 58-366c0-237 142-381 336-381 102 0 169 46 211 91l-50 60c-37-39-84-70-159-70-147 0-243 114-243 297 0 185 87 301 244 301 53 0 104-16 133-43v-192H375v-77h240v308c-47 49-128 85-227 85" id="bC"/><path fill="#666" d="M303 13C170 13 51-91 51-271c0-181 119-286 252-286s252 105 252 286C555-91 436 13 303 13zm0-76c94 0 158-83 158-208s-64-210-158-210-157 85-157 210S209-63 303-63" id="bD"/><path fill="#666" d="M275 250c-133 0-225-52-225-146 0-46 30-90 81-123v-4c-29-17-50-46-50-89 0-45 33-81 61-101v-4c-36-29-71-81-71-146-2-145 144-228 280-180h189v70H429c26 25 44 65 44 112 4 144-147 228-279 170-52 42-57 131 60 124h106c126 0 189 40 189 129 0 101-106 188-274 188zm0-484c62 0 115-50 115-129s-51-127-115-127-116 47-116 127c0 79 53 129 116 129zm13 422c104 0 173-55 173-112 0-103-183-49-275-76-106 75-57 194 102 188" id="bE"/><path fill="#666" d="M241 5C155 32 92-8 92-108v-688h91v694c3 37 15 43 45 37" id="bF"/><path fill="#666" d="M311 13C167 13 51-92 51-271c0-176 119-286 245-286 154-3 234 132 212 307H142c6 116 77 190 180 190 53 0 96-16 136-43l33 60c-48 31-106 56-180 56zM141-315h291c0-110-50-169-135-169-77 0-145 62-156 169" id="bG"/><g id="G"><use transform="matrix(0.028888888888888884,0,0,0.028888888888888884,0,0)" xlink:href="#bC"/><use transform="matrix(0.028888888888888884,0,0,0.028888888888888884,19.90444444444444,0)" xlink:href="#bD"/><use transform="matrix(0.028888888888888884,0,0,0.028888888888888884,37.411111111111104,0)" xlink:href="#bD"/><use transform="matrix(0.028888888888888884,0,0,0.028888888888888884,54.91777777777777,0)" xlink:href="#bE"/><use transform="matrix(0.028888888888888884,0,0,0.028888888888888884,71.18222222222221,0)" xlink:href="#bF"/><use transform="matrix(0.028888888888888884,0,0,0.028888888888888884,79.41555555555554,0)" xlink:href="#bG"/></g><path fill="#666" d="M377 13C195 13 58-128 58-366c0-237 139-381 325-381 89 0 159 44 201 91l-50 60c-38-41-87-70-150-70-139 0-231 114-231 297 0 185 88 301 228 301 70 0 123-31 170-82l51 58C544-25 472 13 377 13" id="bH"/><path fill="#666" d="M250 13C136 13 85-61 85-199v-344h91v333c0 101 30 144 102 144 56 0 95-27 147-92v-385h91V0h-76l-7-85h-3c-51 59-105 98-180 98" id="bI"/><path fill="#666" d="M277 13C141 13 53-90 53-271c-5-249 231-368 388-222-8-95-4-201-5-303h91V0h-74c-4-21-4-46-11-64-43 42-100 77-165 77zm20-76c50 0 94-25 139-75v-285c-123-120-291-42-289 151 0 131 54 209 150 209" id="bJ"/><g id="H"><use transform="matrix(0.028888888888888884,0,0,0.028888888888888884,0,0)" xlink:href="#bH"/><use transform="matrix(0.028888888888888884,0,0,0.028888888888888884,18.431111111111107,0)" xlink:href="#bF"/><use transform="matrix(0.028888888888888884,0,0,0.028888888888888884,26.66444444444444,0)" xlink:href="#bD"/><use transform="matrix(0.028888888888888884,0,0,0.028888888888888884,44.1711111111111,0)" xlink:href="#bI"/><use transform="matrix(0.028888888888888884,0,0,0.028888888888888884,61.706666666666656,0)" xlink:href="#bJ"/></g><path fill="#666" d="M304 13C200 13 111-29 47-96l55-63c53 55 127 91 203 91 96 0 154-48 154-120 1-113-145-134-228-176-66-33-149-81-149-188 0-113 98-195 231-195 87 0 164 37 216 91l-49 59c-45-42-99-69-167-69-83 0-137 42-137 108 0 112 144 126 226 167 83 42 151 87 151 196 0 116-96 208-249 208" id="bK"/><path fill="#666" d="M263 13c-116 0-155-72-155-181v-301H27v-69l85-5 11-152h76v152h147v74H199v303c0 67 21 105 84 105 19 0 44-7 62-14l18 68c-31 10-67 20-100 20" id="bL"/><path fill="#666" d="M92 0v-543h75l8 99h3c50-86 117-137 212-101l-17 80c-18-7-31-9-53-9-45 0-101 32-137 125V0H92" id="bM"/><path fill="#666" d="M217 13C126 13 58-43 58-141c0-118 103-177 334-203 0-70-23-137-112-137-63 0-120 29-163 58l-36-63c50-32 127-71 214-71 132 0 188 89 188 223V0h-75l-8-65h-3c-52 43-113 78-180 78zm26-73c53 0 96-25 149-72v-152c-183 22-245 67-245 137 0 62 42 87 96 87" id="bN"/><g id="I"><use transform="matrix(0.028888888888888884,0,0,0.028888888888888884,0,0)" xlink:href="#bK"/><use transform="matrix(0.028888888888888884,0,0,0.028888888888888884,17.246666666666663,0)" xlink:href="#bL"/><use transform="matrix(0.028888888888888884,0,0,0.028888888888888884,28.13777777777777,0)" xlink:href="#bD"/><use transform="matrix(0.028888888888888884,0,0,0.028888888888888884,45.64444444444443,0)" xlink:href="#bM"/><use transform="matrix(0.028888888888888884,0,0,0.028888888888888884,56.85333333333332,0)" xlink:href="#bN"/><use transform="matrix(0.028888888888888884,0,0,0.028888888888888884,73.14666666666665,0)" xlink:href="#bE"/><use transform="matrix(0.028888888888888884,0,0,0.028888888888888884,89.4111111111111,0)" xlink:href="#bG"/></g><path fill="#666" d="M191-298h222c-37-120-75-237-109-360h-4c-33 124-71 241-109 360zM506 0l-70-224H168L97 0H3l249-733h103L604 0h-98" id="bO"/><path fill="#666" d="M100 0v-733h209c165 0 275 55 275 215 0 155-110 227-270 227H193V0h-93zm93-366h109c129 0 190-47 190-152 0-106-65-140-194-140H193v292" id="bP"/><path fill="#666" d="M100 0v-733h93V0h-93" id="bQ"/><g id="J"><use transform="matrix(0.028888888888888884,0,0,0.028888888888888884,0,0)" xlink:href="#bO"/><use transform="matrix(0.028888888888888884,0,0,0.028888888888888884,17.535555555555554,0)" xlink:href="#bP"/><use transform="matrix(0.028888888888888884,0,0,0.028888888888888884,35.79333333333333,0)" xlink:href="#bQ"/></g><path fill="#666" d="M271-140c44 0 99-66 150-233 25-82 44-176 55-267-190 24-306 187-306 320 0 125 58 180 101 180zm215 91c184-13 336-101 336-305 0-150-95-273-263-287-13 92-32 192-59 285C439-153 360-48 268-48 180-48 91-150 91-313c0-215 192-403 434-403 232 0 380 164 380 364C905-144 768-5 532 26" id="bR"/><use transform="matrix(0.028888888888888884,0,0,0.028888888888888884,0,0)" xlink:href="#bR" id="K"/><use transform="matrix(0.028888888888888884,0,0,0.028888888888888884,0,0)" xlink:href="#bz" id="L"/><use transform="matrix(0.028888888888888884,0,0,0.028888888888888884,0,0)" xlink:href="#bA" id="M"/><path fill="#666" d="M92 0v-543h75l8 79h3c47-52 104-93 169-93 83 0 128 40 150 104 56-61 113-104 179-104 112 0 165 74 165 213V0h-91v-332c0-102-32-145-101-145-42 0-86 27-137 83V0h-91v-332c0-102-32-145-101-145-41 0-87 27-137 83V0H92" id="bS"/><path fill="#666" d="M92 0v-796h90c1 179-3 364 2 540l233-287h101L336-325 542 0h-99L284-262 182-143V0H92" id="bT"/><path fill="#666" d="M13 140V79h532v61H13" id="bU"/><path fill="#666" d="M303 45C261 172 181 266 37 223l18-73C155 188 210 96 231 1L13-543h95c55 152 111 298 163 454h5c45-155 95-303 143-454h89" id="bV"/><path fill="#666" d="M356-791l-20 69c-75-34-144-8-138 93v86h115v74H198V0h-91v-469H33v-69l74-5v-87c0-110 50-179 158-179 33 0 65 7 91 18" id="bW"/><path fill="#666" d="M92 0v-543h91V0H92zm46-655c-36 0-63-25-63-59 0-37 27-59 63-59s63 22 63 59c0 34-27 59-63 59" id="bX"/><g id="N"><use transform="matrix(0.028888888888888884,0,0,0.028888888888888884,0,0)" xlink:href="#bS"/><use transform="matrix(0.028888888888888884,0,0,0.028888888888888884,26.751111111111108,0)" xlink:href="#bN"/><use transform="matrix(0.028888888888888884,0,0,0.028888888888888884,43.04444444444444,0)" xlink:href="#bT"/><use transform="matrix(0.028888888888888884,0,0,0.028888888888888884,58.9911111111111,0)" xlink:href="#bG"/><use transform="matrix(0.028888888888888884,0,0,0.028888888888888884,74.99555555555554,0)" xlink:href="#bU"/><use transform="matrix(0.028888888888888884,0,0,0.028888888888888884,91.14444444444443,0)" xlink:href="#bT"/><use transform="matrix(0.028888888888888884,0,0,0.028888888888888884,107.09111111111109,0)" xlink:href="#bG"/><use transform="matrix(0.028888888888888884,0,0,0.028888888888888884,123.09555555555553,0)" xlink:href="#bV"/><use transform="matrix(0.028888888888888884,0,0,0.028888888888888884,138.14666666666665,0)" xlink:href="#bW"/><use transform="matrix(0.028888888888888884,0,0,0.028888888888888884,147.53555555555553,0)" xlink:href="#bX"/><use transform="matrix(0.028888888888888884,0,0,0.028888888888888884,155.47999999999996,0)" xlink:href="#bF"/><use transform="matrix(0.028888888888888884,0,0,0.028888888888888884,163.71333333333328,0)" xlink:href="#bG"/></g><path fill="#666" d="M92 229v-772h75l8 62h3c49-40 110-76 173-76 140 0 216 110 216 277C567-22 349 94 181-50c3 91 2 185 2 279H92zm91-349C317-1 471-73 472-279c0-120-40-201-143-201-46 0-93 26-146 75v285" id="bY"/><path fill="#666" d="M567-281C567-18 341 97 176-56h-3l-8 56H92v-796h91c0 106 2 214-3 316 49-43 110-77 170-77 141 0 217 110 217 276zM183-120C317-1 471-73 472-279c0-120-40-201-143-201-46 0-94 26-146 75v285" id="bZ"/><path fill="#666" d="M92 0v-543h75l8 78h3c52-51 108-92 182-92 114 0 166 74 166 213V0h-91v-332c0-102-31-145-103-145-56 0-94 28-149 83V0H92" id="ca"/><g id="O"><use transform="matrix(0.028888888888888884,0,0,0.028888888888888884,0,0)" xlink:href="#bI"/><use transform="matrix(0.028888888888888884,0,0,0.028888888888888884,17.535555555555554,0)" xlink:href="#bY"/><use transform="matrix(0.028888888888888884,0,0,0.028888888888888884,35.44666666666666,0)" xlink:href="#bF"/><use transform="matrix(0.028888888888888884,0,0,0.028888888888888884,43.67999999999999,0)" xlink:href="#bD"/><use transform="matrix(0.028888888888888884,0,0,0.028888888888888884,61.18666666666665,0)" xlink:href="#bN"/><use transform="matrix(0.028888888888888884,0,0,0.028888888888888884,77.47999999999999,0)" xlink:href="#bJ"/><use transform="matrix(0.028888888888888884,0,0,0.028888888888888884,95.3911111111111,0)" xlink:href="#bU"/><use transform="matrix(0.028888888888888884,0,0,0.028888888888888884,111.53999999999999,0)" xlink:href="#bZ"/><use transform="matrix(0.028888888888888884,0,0,0.028888888888888884,129.39333333333332,0)" xlink:href="#bF"/><use transform="matrix(0.028888888888888884,0,0,0.028888888888888884,137.62666666666664,0)" xlink:href="#bD"/><use transform="matrix(0.028888888888888884,0,0,0.028888888888888884,155.1333333333333,0)" xlink:href="#bZ"/><use transform="matrix(0.028888888888888884,0,0,0.028888888888888884,172.98666666666662,0)" xlink:href="#bU"/><use transform="matrix(0.028888888888888884,0,0,0.028888888888888884,189.1355555555555,0)" xlink:href="#ca"/><use transform="matrix(0.028888888888888884,0,0,0.028888888888888884,206.7866666666666,0)" xlink:href="#bD"/><use transform="matrix(0.028888888888888884,0,0,0.028888888888888884,224.29333333333327,0)" xlink:href="#bM"/><use transform="matrix(0.028888888888888884,0,0,0.028888888888888884,235.50222222222214,0)" xlink:href="#bS"/><use transform="matrix(0.028888888888888884,0,0,0.028888888888888884,262.2533333333333,0)" xlink:href="#bN"/><use transform="matrix(0.028888888888888884,0,0,0.028888888888888884,278.5466666666666,0)" xlink:href="#bF"/></g><path fill="#666" d="M36 243c-33 0-61-7-80-14l18-70c14 5 32 10 51 10 55 0 68-41 68-107v-605h91V62c0 111-41 181-148 181zm103-898c-36 0-63-25-63-59 0-37 27-59 63-59 35 0 63 22 63 59 0 34-28 59-63 59" id="cb"/><path fill="#666" d="M234 13C157 13 83-19 31-62l45-60c47 38 96 64 161 64 72 0 107-38 107-85 0-55-64-80-124-103-76-28-162-65-162-157 0-86 69-154 187-154 67 0 126 28 169 61l-44 59c-38-28-76-48-125-48-68 0-99 36-99 78 0 52 59 71 120 94 79 30 166 62 166 165 0 88-70 161-198 161" id="cc"/><g id="P"><use transform="matrix(0.028888888888888884,0,0,0.028888888888888884,0,0)" xlink:href="#bI"/><use transform="matrix(0.028888888888888884,0,0,0.028888888888888884,17.535555555555554,0)" xlink:href="#bY"/><use transform="matrix(0.028888888888888884,0,0,0.028888888888888884,35.44666666666666,0)" xlink:href="#bF"/><use transform="matrix(0.028888888888888884,0,0,0.028888888888888884,43.67999999999999,0)" xlink:href="#bD"/><use transform="matrix(0.028888888888888884,0,0,0.028888888888888884,61.18666666666665,0)" xlink:href="#bN"/><use transform="matrix(0.028888888888888884,0,0,0.028888888888888884,77.47999999999999,0)" xlink:href="#bJ"/><use transform="matrix(0.028888888888888884,0,0,0.028888888888888884,95.3911111111111,0)" xlink:href="#bU"/><use transform="matrix(0.028888888888888884,0,0,0.028888888888888884,111.53999999999999,0)" xlink:href="#bZ"/><use transform="matrix(0.028888888888888884,0,0,0.028888888888888884,129.39333333333332,0)" xlink:href="#bF"/><use transform="matrix(0.028888888888888884,0,0,0.028888888888888884,137.62666666666664,0)" xlink:href="#bD"/><use transform="matrix(0.028888888888888884,0,0,0.028888888888888884,155.1333333333333,0)" xlink:href="#bZ"/><use transform="matrix(0.028888888888888884,0,0,0.028888888888888884,172.98666666666662,0)" xlink:href="#bU"/><use transform="matrix(0.028888888888888884,0,0,0.028888888888888884,189.1355555555555,0)" xlink:href="#cb"/><use transform="matrix(0.028888888888888884,0,0,0.028888888888888884,197.07999999999993,0)" xlink:href="#cc"/><use transform="matrix(0.028888888888888884,0,0,0.028888888888888884,210.59999999999994,0)" xlink:href="#bD"/><use transform="matrix(0.028888888888888884,0,0,0.028888888888888884,228.1066666666666,0)" xlink:href="#ca"/></g><g id="Q"><use transform="matrix(0.028888888888888884,0,0,0.028888888888888884,0,0)" xlink:href="#bI"/><use transform="matrix(0.028888888888888884,0,0,0.028888888888888884,17.535555555555554,0)" xlink:href="#bY"/><use transform="matrix(0.028888888888888884,0,0,0.028888888888888884,35.44666666666666,0)" xlink:href="#bF"/><use transform="matrix(0.028888888888888884,0,0,0.028888888888888884,43.67999999999999,0)" xlink:href="#bD"/><use transform="matrix(0.028888888888888884,0,0,0.028888888888888884,61.18666666666665,0)" xlink:href="#bN"/><use transform="matrix(0.028888888888888884,0,0,0.028888888888888884,77.47999999999999,0)" xlink:href="#bJ"/><use transform="matrix(0.028888888888888884,0,0,0.028888888888888884,95.3911111111111,0)" xlink:href="#bU"/><use transform="matrix(0.028888888888888884,0,0,0.028888888888888884,111.53999999999999,0)" xlink:href="#bZ"/><use transform="matrix(0.028888888888888884,0,0,0.028888888888888884,129.39333333333332,0)" xlink:href="#bF"/><use transform="matrix(0.028888888888888884,0,0,0.028888888888888884,137.62666666666664,0)" xlink:href="#bD"/><use transform="matrix(0.028888888888888884,0,0,0.028888888888888884,155.1333333333333,0)" xlink:href="#bZ"/><use transform="matrix(0.028888888888888884,0,0,0.028888888888888884,172.98666666666662,0)" xlink:href="#bU"/><use transform="matrix(0.028888888888888884,0,0,0.028888888888888884,189.1355555555555,0)" xlink:href="#bX"/><use transform="matrix(0.028888888888888884,0,0,0.028888888888888884,197.07999999999993,0)" xlink:href="#ca"/><use transform="matrix(0.028888888888888884,0,0,0.028888888888888884,214.73111111111103,0)" xlink:href="#bL"/><use transform="matrix(0.028888888888888884,0,0,0.028888888888888884,225.62222222222215,0)" xlink:href="#bD"/><use transform="matrix(0.028888888888888884,0,0,0.028888888888888884,243.1288888888888,0)" xlink:href="#bU"/><use transform="matrix(0.028888888888888884,0,0,0.028888888888888884,259.2777777777777,0)" xlink:href="#bS"/><use transform="matrix(0.028888888888888884,0,0,0.028888888888888884,286.02888888888884,0)" xlink:href="#bG"/><use transform="matrix(0.028888888888888884,0,0,0.028888888888888884,302.0333333333333,0)" xlink:href="#bS"/><use transform="matrix(0.028888888888888884,0,0,0.028888888888888884,328.78444444444443,0)" xlink:href="#bD"/><use transform="matrix(0.028888888888888884,0,0,0.028888888888888884,346.2911111111111,0)" xlink:href="#bM"/><use transform="matrix(0.028888888888888884,0,0,0.028888888888888884,357.5,0)" xlink:href="#bV"/></g><path fill="#666" d="M178 0L27-543h93c39 154 83 304 113 466h5c36-159 81-311 121-466h89c41 154 85 308 123 466h4c34-159 75-312 114-466h86L629 0H519c-39-150-82-293-116-449h-5C365-294 323-150 285 0H178" id="cd"/><path fill="#666" d="M92 0v-796h91c0 111 1 223-3 330 50-50 106-91 180-91 114 0 166 74 166 213V0h-91v-332c0-102-31-145-103-145-56 0-94 28-149 83V0H92" id="ce"/><path fill="#666" d="M15 0l179-283L29-543h98c43 70 84 140 127 210h4c39-71 77-140 116-210h95L304-274 483 0H383c-48-73-92-149-138-224h-5C197-151 154-74 111 0H15" id="cf"/><g id="R"><use transform="matrix(0.028888888888888884,0,0,0.028888888888888884,0,0)" xlink:href="#bF"/><use transform="matrix(0.028888888888888884,0,0,0.028888888888888884,8.233333333333333,0)" xlink:href="#bX"/><use transform="matrix(0.028888888888888884,0,0,0.028888888888888884,16.177777777777777,0)" xlink:href="#cc"/><use transform="matrix(0.028888888888888884,0,0,0.028888888888888884,29.697777777777773,0)" xlink:href="#bL"/><use transform="matrix(0.028888888888888884,0,0,0.028888888888888884,40.58888888888888,0)" xlink:href="#bU"/><use transform="matrix(0.028888888888888884,0,0,0.028888888888888884,56.737777777777765,0)" xlink:href="#bZ"/><use transform="matrix(0.028888888888888884,0,0,0.028888888888888884,74.5911111111111,0)" xlink:href="#bF"/><use transform="matrix(0.028888888888888884,0,0,0.028888888888888884,82.82444444444444,0)" xlink:href="#bD"/><use transform="matrix(0.028888888888888884,0,0,0.028888888888888884,100.3311111111111,0)" xlink:href="#bZ"/><use transform="matrix(0.028888888888888884,0,0,0.028888888888888884,118.18444444444444,0)" xlink:href="#cc"/><use transform="matrix(0.028888888888888884,0,0,0.028888888888888884,131.70444444444445,0)" xlink:href="#bU"/><use transform="matrix(0.028888888888888884,0,0,0.028888888888888884,147.85333333333332,0)" xlink:href="#cd"/><use transform="matrix(0.028888888888888884,0,0,0.028888888888888884,171.0222222222222,0)" xlink:href="#bX"/><use transform="matrix(0.028888888888888884,0,0,0.028888888888888884,178.96666666666664,0)" xlink:href="#bL"/><use transform="matrix(0.028888888888888884,0,0,0.028888888888888884,189.85777777777776,0)" xlink:href="#ce"/><use transform="matrix(0.028888888888888884,0,0,0.028888888888888884,207.39333333333332,0)" xlink:href="#bU"/><use transform="matrix(0.028888888888888884,0,0,0.028888888888888884,223.5422222222222,0)" xlink:href="#bY"/><use transform="matrix(0.028888888888888884,0,0,0.028888888888888884,241.4533333333333,0)" xlink:href="#bM"/><use transform="matrix(0.028888888888888884,0,0,0.028888888888888884,252.66222222222217,0)" xlink:href="#bG"/><use transform="matrix(0.028888888888888884,0,0,0.028888888888888884,268.66666666666663,0)" xlink:href="#bW"/><use transform="matrix(0.028888888888888884,0,0,0.028888888888888884,278.05555555555554,0)" xlink:href="#bX"/><use transform="matrix(0.028888888888888884,0,0,0.028888888888888884,286,0)" xlink:href="#cf"/></g><g id="S"><use transform="matrix(0.07037037037037036,0,0,0.07037037037037036,0,0)" xlink:href="#al"/><use transform="matrix(0.07037037037037036,0,0,0.07037037037037036,14.074074074074073,0)" xlink:href="#ao"/><use transform="matrix(0.07037037037037036,0,0,0.07037037037037036,28.148148148148145,0)" xlink:href="#ao"/><use transform="matrix(0.07037037037037036,0,0,0.07037037037037036,42.222222222222214,0)" xlink:href="#an"/><use transform="matrix(0.07037037037037036,0,0,0.07037037037037036,49.25925925925925,0)" xlink:href="#ao"/><use transform="matrix(0.07037037037037036,0,0,0.07037037037037036,63.33333333333332,0)" xlink:href="#ap"/></g><use transform="matrix(0.028888888888888884,0,0,0.028888888888888884,0,0)" xlink:href="#aq" id="T"/><g id="U"><use transform="matrix(0.028888888888888884,0,0,0.028888888888888884,0,0)" xlink:href="#ar"/><use transform="matrix(0.028888888888888884,0,0,0.028888888888888884,28.888888888888886,0)" xlink:href="#as"/></g><path fill="#fff" d="M92 0v-543h75l8 78h3c52-51 108-92 182-92 114 0 166 74 166 213V0h-91v-332c0-102-31-145-103-145-56 0-94 28-149 83V0H92" id="cg"/><g id="V"><use transform="matrix(0.028888888888888884,0,0,0.028888888888888884,0,0)" xlink:href="#bh"/><use transform="matrix(0.028888888888888884,0,0,0.028888888888888884,26.751111111111108,0)" xlink:href="#aY"/><use transform="matrix(0.028888888888888884,0,0,0.028888888888888884,43.04444444444444,0)" xlink:href="#be"/><use transform="matrix(0.028888888888888884,0,0,0.028888888888888884,50.98888888888888,0)" xlink:href="#cg"/></g><use transform="matrix(0.028888888888888884,0,0,0.028888888888888884,0,0)" xlink:href="#aq" id="W"/><use transform="matrix(0.028888888888888884,0,0,0.028888888888888884,0,0)" xlink:href="#ar" id="X"/><path fill="#fff" d="M241 5C155 32 92-8 92-108v-688h91v694c3 37 15 43 45 37" id="ch"/><g id="Y"><use transform="matrix(0.028888888888888884,0,0,0.028888888888888884,0,0)" xlink:href="#aY"/><use transform="matrix(0.028888888888888884,0,0,0.028888888888888884,16.29333333333333,0)" xlink:href="#cg"/><use transform="matrix(0.028888888888888884,0,0,0.028888888888888884,33.94444444444444,0)" xlink:href="#aY"/><use transform="matrix(0.028888888888888884,0,0,0.028888888888888884,50.23777777777777,0)" xlink:href="#ch"/><use transform="matrix(0.028888888888888884,0,0,0.028888888888888884,58.47111111111111,0)" xlink:href="#aL"/><use transform="matrix(0.028888888888888884,0,0,0.028888888888888884,73.52222222222221,0)" xlink:href="#bf"/><use transform="matrix(0.028888888888888884,0,0,0.028888888888888884,87.04222222222221,0)" xlink:href="#be"/><use transform="matrix(0.028888888888888884,0,0,0.028888888888888884,94.98666666666665,0)" xlink:href="#bf"/></g><g id="Z"><use transform="matrix(0.028888888888888884,0,0,0.028888888888888884,0,0)" xlink:href="#ch"/><use transform="matrix(0.028888888888888884,0,0,0.028888888888888884,8.233333333333333,0)" xlink:href="#be"/><use transform="matrix(0.028888888888888884,0,0,0.028888888888888884,16.177777777777777,0)" xlink:href="#bf"/><use transform="matrix(0.028888888888888884,0,0,0.028888888888888884,29.697777777777773,0)" xlink:href="#aO"/></g><g id="aa"><use transform="matrix(0.028888888888888884,0,0,0.028888888888888884,0,0)" xlink:href="#bc"/><use transform="matrix(0.028888888888888884,0,0,0.028888888888888884,17.911111111111108,0)" xlink:href="#aQ"/><use transform="matrix(0.028888888888888884,0,0,0.028888888888888884,33.91555555555555,0)" xlink:href="#aO"/><use transform="matrix(0.028888888888888884,0,0,0.028888888888888884,44.80666666666666,0)" xlink:href="#aY"/><use transform="matrix(0.028888888888888884,0,0,0.028888888888888884,61.09999999999999,0)" xlink:href="#be"/><use transform="matrix(0.028888888888888884,0,0,0.028888888888888884,69.04444444444442,0)" xlink:href="#ch"/></g><path fill="#fff" d="M377 13C195 13 58-128 58-366c0-237 139-381 325-381 89 0 159 44 201 91l-50 60c-38-41-87-70-150-70-139 0-231 114-231 297 0 185 88 301 228 301 70 0 123-31 170-82l51 58C544-25 472 13 377 13" id="ci"/><path fill="#fff" d="M371 13C187 13 58-134 58-369s129-378 313-378 313 143 313 378S555 13 371 13zm0-81c131 0 218-118 218-301 0-184-87-297-218-297-132 0-218 113-218 297 0 183 86 301 218 301" id="cj"/><path fill="#fff" d="M193-658v272h123c115 0 178-46 178-141 0-97-63-131-178-131H193zM608 0H503L325-311H193V0h-93v-733h230c149 0 256 53 256 206 0 114-66 182-166 206" id="ck"/><path fill="#fff" d="M304 13C200 13 111-29 47-96l55-63c53 55 127 91 203 91 96 0 154-48 154-120 1-113-145-134-228-176-66-33-149-81-149-188 0-113 98-195 231-195 87 0 164 37 216 91l-49 59c-45-42-99-69-167-69-83 0-137 42-137 108 0 112 144 126 226 167 83 42 151 87 151 196 0 116-96 208-249 208" id="cl"/><g id="ab"><use transform="matrix(0.028888888888888884,0,0,0.028888888888888884,0,0)" xlink:href="#ci"/><use transform="matrix(0.028888888888888884,0,0,0.028888888888888884,18.431111111111107,0)" xlink:href="#cj"/><use transform="matrix(0.028888888888888884,0,0,0.028888888888888884,39.86666666666666,0)" xlink:href="#ck"/><use transform="matrix(0.028888888888888884,0,0,0.028888888888888884,58.2111111111111,0)" xlink:href="#cl"/></g><g id="ac"><use transform="matrix(0.015555555555555557,0,0,0.015555555555555557,0,0)" xlink:href="#bH"/><use transform="matrix(0.015555555555555557,0,0,0.015555555555555557,9.924444444444445,0)" xlink:href="#bF"/><use transform="matrix(0.015555555555555557,0,0,0.015555555555555557,14.357777777777779,0)" xlink:href="#bD"/><use transform="matrix(0.015555555555555557,0,0,0.015555555555555557,23.784444444444446,0)" xlink:href="#bI"/><use transform="matrix(0.015555555555555557,0,0,0.015555555555555557,33.226666666666674,0)" xlink:href="#bJ"/></g><g id="ad"><use transform="matrix(0.015555555555555557,0,0,0.015555555555555557,0,0)" xlink:href="#bK"/><use transform="matrix(0.015555555555555557,0,0,0.015555555555555557,9.286666666666667,0)" xlink:href="#bL"/><use transform="matrix(0.015555555555555557,0,0,0.015555555555555557,15.151111111111112,0)" xlink:href="#bD"/><use transform="matrix(0.015555555555555557,0,0,0.015555555555555557,24.57777777777778,0)" xlink:href="#bM"/><use transform="matrix(0.015555555555555557,0,0,0.015555555555555557,30.613333333333337,0)" xlink:href="#bN"/><use transform="matrix(0.015555555555555557,0,0,0.015555555555555557,39.38666666666667,0)" xlink:href="#bE"/><use transform="matrix(0.015555555555555557,0,0,0.015555555555555557,48.144444444444446,0)" xlink:href="#bG"/></g></defs></g></svg>