<svg xmlns="http://www.w3.org/2000/svg" xmlns:xlink="http://www.w3.org/1999/xlink" xmlns:lucid="lucid" width="1274.65" height="1666.6"><g transform="translate(-105.98425196850393 20)" lucid:page-tab-id="0_0"><path d="M0 0h1870.87v2581.67H0z" fill="#fff"/><path d="M377.95 75.6h126v39.2h-126z" fill="none"/><use xlink:href="#a" transform="matrix(1,0,0,1,377.9527559055119,75.59055118110236) translate(4.48888888888888 29.333333333333332)"/><use xlink:href="#b" transform="matrix(1,0,0,1,377.9527559055119,75.59055118110236) translate(77.06666666666666 29.333333333333332)"/><use xlink:href="#c" transform="matrix(1,0,0,1,377.9527559055119,75.59055118110236) translate(99.28888888888889 29.333333333333332)"/><path d="M125.98 6a6 6 0 0 1 6-6h148a6 6 0 0 1 6 6v68a6 6 0 0 1-6 6h-148a6 6 0 0 1-6-6z" stroke="#5e5e5e" stroke-width="3" fill="#fff"/><use xlink:href="#d" transform="matrix(1,0,0,1,125.98425196850393,8.526512829121202e-14) translate(37.70499999999999 48.27777777777777)"/><path d="M377.95 6a6 6 0 0 1 6-6h148a6 6 0 0 1 6 6v68a6 6 0 0 1-6 6h-148a6 6 0 0 1-6-6z" stroke="#5e5e5e" stroke-width="3" fill="#fff"/><use xlink:href="#e" transform="matrix(1,0,0,1,377.95275590551176,0) translate(38.14944444444444 48.27777777777777)"/><path d="M377.95 126.4a6 6 0 0 1 6-6h148a6 6 0 0 1 6 6v68a6 6 0 0 1-6 6h-148a6 6 0 0 1-6-6z" stroke="#5e5e5e" stroke-width="3" fill="#fff"/><use xlink:href="#f" transform="matrix(1,0,0,1,377.9527559055118,120.38582677165358) translate(19.12722222222221 48.27777777777777)"/><path d="M881.9 383.95a6 6 0 0 1 6-6h148a6 6 0 0 1 6 6v68a6 6 0 0 1-6 6h-148a6 6 0 0 1-6-6z" stroke="#5e5e5e" stroke-width="3" fill="#fff"/><use xlink:href="#g" transform="matrix(1,0,0,1,881.8897637795276,377.95275590551176) translate(26.960555555555537 48.27777777777777)"/><path d="M881.9 1139.86a6 6 0 0 1 6-6h148a6 6 0 0 1 6 6v68a6 6 0 0 1-6 6h-148a6 6 0 0 1-6-6z" stroke="#5e5e5e" stroke-width="3" fill="#fff"/><use xlink:href="#h" transform="matrix(1,0,0,1,881.8897637795276,1133.8582677165355) translate(34.54944444444443 48.27777777777777)"/><path d="M288.45 40H358" stroke="#5e5e5e" stroke-width="2" fill="none"/><path d="M288.47 41h-1.02v-2h1.02z" stroke="#5e5e5e" stroke-width=".05" fill="#5e5e5e"/><path d="M373.25 40L359 44.64v-9.28z" stroke="#5e5e5e" stroke-width="2" fill="#5e5e5e"/><path d="M540.42 291.97h69.54" stroke="#5e5e5e" stroke-width="2" fill="none"/><path d="M540.44 292.97h-1.02v-2h1.02z" stroke="#5e5e5e" stroke-width=".05" fill="#5e5e5e"/><path d="M625.22 291.97l-14.26 4.63v-9.27z" stroke="#5e5e5e" stroke-width="2" fill="#5e5e5e"/><path d="M629.92 257.97a6 6 0 0 1 6-6h148a6 6 0 0 1 6 6v68a6 6 0 0 1-6 6h-148a6 6 0 0 1-6-6z" stroke="#5e5e5e" stroke-width="3" fill="#fff"/><path d="M779.92 261.97h-15v20h15z" stroke="#5e5e5e" fill="#fff"/><path d="M769.92 265.3h-10v3.34h10zm0 10h-10v3.34h10z" stroke="#5e5e5e" fill="#fff"/><use xlink:href="#i" transform="matrix(1,0,0,1,629.9212598425196,251.96850393700788) translate(39.305 48.27777777777777)"/><path d="M629.92 1139.86a6 6 0 0 1 6-6h148a6 6 0 0 1 6 6v68a6 6 0 0 1-6 6h-148a6 6 0 0 1-6-6z" stroke="#5e5e5e" stroke-width="3" fill="#fff"/><path d="M779.92 1143.86h-15v20h15z" stroke="#5e5e5e" fill="#fff"/><path d="M769.92 1147.2h-10v3.32h10zm0 10h-10v3.32h10z" stroke="#5e5e5e" fill="#fff"/><use xlink:href="#j" transform="matrix(1,0,0,1,629.9212598425196,1133.8582677165355) translate(22.79388888888888 48.27777777777777)"/><path d="M881.9 257.97a6 6 0 0 1 6-6h148a6 6 0 0 1 6 6v68a6 6 0 0 1-6 6h-148a6 6 0 0 1-6-6z" stroke="#5e5e5e" stroke-width="3" fill="#fff"/><path d="M1031.9 261.97h-15v20h15z" stroke="#5e5e5e" fill="#fff"/><path d="M1021.9 265.3h-10v3.34h10zm0 10h-10v3.34h10z" stroke="#5e5e5e" fill="#fff"/><use xlink:href="#k" transform="matrix(1,0,0,1,881.8897637795276,251.96850393700788) translate(44.62722222222222 48.27777777777777)"/><path d="M792.38 291.97h69.54" stroke="#5e5e5e" stroke-width="2" fill="none"/><path d="M792.4 292.97h-1l-.02-2h1.03z" stroke="#5e5e5e" stroke-width=".05" fill="#5e5e5e"/><path d="M877.2 291.97l-14.28 4.63v-9.27z" stroke="#5e5e5e" stroke-width="2" fill="#5e5e5e"/><path d="M881.9 509.94a6 6 0 0 1 6-6h148a6 6 0 0 1 6 6v68a6 6 0 0 1-6 6h-148a6 6 0 0 1-6-6z" stroke="#5e5e5e" stroke-width="3" fill="#fff"/><use xlink:href="#l" transform="matrix(1,0,0,1,881.8897637795276,503.93700787401565) translate(29.371666666666655 48.27777777777777)"/><path d="M881.9 887.9a6 6 0 0 1 6-6h148a6 6 0 0 1 6 6v68a6 6 0 0 1-6 6h-148a6 6 0 0 1-6-6z" stroke="#5e5e5e" stroke-width="3" fill="#fff"/><use xlink:href="#m" transform="matrix(1,0,0,1,881.8897637795275,881.8897637795275) translate(23.871666666666655 48.27777777777777)"/><path d="M881.9 761.9a6 6 0 0 1 6-6h148a6 6 0 0 1 6 6v68a6 6 0 0 1-6 6h-148a6 6 0 0 1-6-6z" stroke="#5e5e5e" stroke-width="3" fill="#fff"/><use xlink:href="#n" transform="matrix(1,0,0,1,881.8897637795276,755.9055118110235) translate(15.849444444444439 48.27777777777777)"/><path d="M881.9 635.92a6 6 0 0 1 6-6h148a6 6 0 0 1 6 6v68a6 6 0 0 1-6 6h-148a6 6 0 0 1-6-6z" stroke="#5e5e5e" stroke-width="3" fill="#fff"/><use xlink:href="#o" transform="matrix(1,0,0,1,881.8897637795275,629.9212598425195) translate(21.549444444444426 48.27777777777777)"/><path d="M881.9 1013.87a6 6 0 0 1 6-6h148a6 6 0 0 1 6 6v68a6 6 0 0 1-6 6h-148a6 6 0 0 1-6-6z" stroke="#5e5e5e" stroke-width="3" fill="#fff"/><use xlink:href="#p" transform="matrix(1,0,0,1,881.8897637795276,1007.8740157480314) translate(29.471666666666657 48.27777777777777)"/><path d="M861.92 543.94h-20a6 6 0 0 1-6-6V297.97a6 6 0 0 0-6-6h-37.54" stroke="#5e5e5e" stroke-width="2" fill="none"/><path d="M877.2 543.94l-14.28 4.63v-9.27z" stroke="#5e5e5e" stroke-width="2" fill="#5e5e5e"/><path d="M792.4 292.97h-1l-.02-2h1.03z" stroke="#5e5e5e" stroke-width=".05" fill="#5e5e5e"/><path d="M861.92 417.95h-20a6 6 0 0 1-6-6V297.97a6 6 0 0 0-6-6h-37.54" stroke="#5e5e5e" stroke-width="2" fill="none"/><path d="M877.2 417.95l-14.28 4.64v-9.28z" stroke="#5e5e5e" stroke-width="2" fill="#5e5e5e"/><path d="M792.4 292.97h-1l-.02-2h1.03z" stroke="#5e5e5e" stroke-width=".05" fill="#5e5e5e"/><path d="M861.92 669.92h-20a6 6 0 0 1-6-6V297.97a6 6 0 0 0-6-6h-37.54" stroke="#5e5e5e" stroke-width="2" fill="none"/><path d="M877.2 669.92l-14.28 4.64v-9.27z" stroke="#5e5e5e" stroke-width="2" fill="#5e5e5e"/><path d="M792.4 292.97h-1l-.02-2h1.03z" stroke="#5e5e5e" stroke-width=".05" fill="#5e5e5e"/><path d="M861.92 795.9h-20a6 6 0 0 1-6-6V297.98a6 6 0 0 0-6-6h-37.54" stroke="#5e5e5e" stroke-width="2" fill="none"/><path d="M877.2 795.9l-14.28 4.64v-9.27z" stroke="#5e5e5e" stroke-width="2" fill="#5e5e5e"/><path d="M792.4 292.97h-1l-.02-2h1.03z" stroke="#5e5e5e" stroke-width=".05" fill="#5e5e5e"/><path d="M861.92 921.9h-20a6 6 0 0 1-6-6V297.96a6 6 0 0 0-6-6h-37.54" stroke="#5e5e5e" stroke-width="2" fill="none"/><path d="M877.2 921.9l-14.28 4.63v-9.28z" stroke="#5e5e5e" stroke-width="2" fill="#5e5e5e"/><path d="M792.4 292.97h-1l-.02-2h1.03z" stroke="#5e5e5e" stroke-width=".05" fill="#5e5e5e"/><path d="M861.92 1047.87h-20a6 6 0 0 1-6-6v-743.9a6 6 0 0 0-6-6h-37.54" stroke="#5e5e5e" stroke-width="2" fill="none"/><path d="M877.2 1047.87l-14.28 4.64v-9.26z" stroke="#5e5e5e" stroke-width="2" fill="#5e5e5e"/><path d="M792.4 292.97h-1l-.02-2h1.03z" stroke="#5e5e5e" stroke-width=".05" fill="#5e5e5e"/><path d="M377.95 257.97a6 6 0 0 1 6-6h148a6 6 0 0 1 6 6v68a6 6 0 0 1-6 6h-148a6 6 0 0 1-6-6z" stroke="#5e5e5e" stroke-width="3" fill="#fff"/><path d="M527.95 261.97h-15v20h15z" stroke="#5e5e5e" fill="#fff"/><path d="M517.95 265.3h-10v3.34h10zm0 10h-10v3.34h10z" stroke="#5e5e5e" fill="#fff"/><use xlink:href="#q" transform="matrix(1,0,0,1,377.95275590551176,251.96850393700788) translate(8.560555555555554 48.27777777777777)"/><path d="M609.96 1173.86h-20.02a6 6 0 0 1-6-6v-869.9a6 6 0 0 0-6-6h-37.52" stroke="#5e5e5e" stroke-width="2" fill="none"/><path d="M625.22 1173.86l-14.26 4.63v-9.28z" stroke="#5e5e5e" stroke-width="2" fill="#5e5e5e"/><path d="M540.44 292.97h-1.02v-2h1.02z" stroke="#5e5e5e" stroke-width=".05" fill="#5e5e5e"/><path d="M358 291.97h-20.03a6 6 0 0 1-6-6V46a6 6 0 0 0-6-6h-37.52" stroke="#5e5e5e" stroke-width="2" fill="none"/><path d="M373.25 291.97L359 296.6v-9.27z" stroke="#5e5e5e" stroke-width="2" fill="#5e5e5e"/><path d="M288.47 41h-1.02v-2h1.02z" stroke="#5e5e5e" stroke-width=".05" fill="#5e5e5e"/><path d="M881.9 1265.84a6 6 0 0 1 6-6h148a6 6 0 0 1 6 6v68a6 6 0 0 1-6 6h-148a6 6 0 0 1-6-6z" stroke="#5e5e5e" stroke-width="3" fill="#fff"/><use xlink:href="#r" transform="matrix(1,0,0,1,881.8897637795275,1259.8425196850392) translate(30.360555555555543 48.27777777777777)"/><path d="M881.9 1391.83a6 6 0 0 1 6-6h148a6 6 0 0 1 6 6v68a6 6 0 0 1-6 6h-148a6 6 0 0 1-6-6z" stroke="#5e5e5e" stroke-width="3" fill="#fff"/><use xlink:href="#s" transform="matrix(1,0,0,1,881.8897637795276,1385.826771653543) translate(25.716111111111097 48.27777777777777)"/><path d="M881.9 1517.8a6 6 0 0 1 6-6h148a6 6 0 0 1 6 6v68a6 6 0 0 1-6 6h-148a6 6 0 0 1-6-6z" stroke="#5e5e5e" stroke-width="3" fill="#fff"/><use xlink:href="#t" transform="matrix(1,0,0,1,881.8897637795276,1511.8110236220466) translate(27.76055555555554 48.27777777777777)"/><path d="M792.38 1173.86h69.54" stroke="#5e5e5e" stroke-width="2" fill="none"/><path d="M792.4 1174.86h-1l-.02-2h1.03z" stroke="#5e5e5e" stroke-width=".05" fill="#5e5e5e"/><path d="M877.2 1173.86l-14.28 4.63v-9.28z" stroke="#5e5e5e" stroke-width="2" fill="#5e5e5e"/><path d="M861.92 1299.84h-20a6 6 0 0 1-6-6v-113.98a6 6 0 0 0-6-6h-37.54" stroke="#5e5e5e" stroke-width="2" fill="none"/><path d="M877.2 1299.84l-14.28 4.64v-9.27z" stroke="#5e5e5e" stroke-width="2" fill="#5e5e5e"/><path d="M792.4 1174.86h-1l-.02-2h1.03z" stroke="#5e5e5e" stroke-width=".05" fill="#5e5e5e"/><path d="M861.92 1425.83h-20a6 6 0 0 1-6-6v-239.97a6 6 0 0 0-6-6h-37.54" stroke="#5e5e5e" stroke-width="2" fill="none"/><path d="M877.2 1425.83l-14.28 4.63v-9.27z" stroke="#5e5e5e" stroke-width="2" fill="#5e5e5e"/><path d="M792.4 1174.86h-1l-.02-2h1.03z" stroke="#5e5e5e" stroke-width=".05" fill="#5e5e5e"/><path d="M861.92 1551.8h-20a6 6 0 0 1-6-6v-365.94a6 6 0 0 0-6-6h-37.54" stroke="#5e5e5e" stroke-width="2" fill="none"/><path d="M877.2 1551.8l-14.28 4.65v-9.27z" stroke="#5e5e5e" stroke-width="2" fill="#5e5e5e"/><path d="M792.4 1174.86h-1l-.02-2h1.03z" stroke="#5e5e5e" stroke-width=".05" fill="#5e5e5e"/><path d="M1133.86 257.97a6 6 0 0 1 6-6h148a6 6 0 0 1 6 6v68a6 6 0 0 1-6 6h-148a6 6 0 0 1-6-6z" stroke="#5e5e5e" stroke-width="3" fill="#fff"/><use xlink:href="#u" transform="matrix(1,0,0,1,1133.8582677165355,251.96850393700788) translate(26.12722222222221 48.27777777777777)"/><path d="M1133.86 383.95a6 6 0 0 1 6-6h148a6 6 0 0 1 6 6v68a6 6 0 0 1-6 6h-148a6 6 0 0 1-6-6z" stroke="#5e5e5e" stroke-width="3" fill="#fff"/><use xlink:href="#v" transform="matrix(1,0,0,1,1133.8582677165355,377.95275590551176) translate(20.471666666666657 48.27777777777777)"/><path d="M1113.9 291.97h-69.55" stroke="#5e5e5e" stroke-width="2" fill="none"/><path d="M1129.16 291.97l-14.27 4.63v-9.27z" stroke="#5e5e5e" stroke-width="2" fill="#5e5e5e"/><path d="M1044.38 292.97h-1.03v-2h1.03z" stroke="#5e5e5e" stroke-width=".05" fill="#5e5e5e"/><path d="M1113.9 417.95h-20.03a6 6 0 0 1-6-6V297.97a6 6 0 0 0-6-6h-37.52" stroke="#5e5e5e" stroke-width="2" fill="none"/><path d="M1129.16 417.95l-14.27 4.64v-9.28z" stroke="#5e5e5e" stroke-width="2" fill="#5e5e5e"/><path d="M1044.38 292.97h-1.03v-2h1.03z" stroke="#5e5e5e" stroke-width=".05" fill="#5e5e5e"/><path d="M377.95 383.95a6 6 0 0 1 6-6h148a6 6 0 0 1 6 6v68a6 6 0 0 1-6 6h-148a6 6 0 0 1-6-6z" stroke="#5e5e5e" stroke-width="3" fill="#fff"/><use xlink:href="#w" transform="matrix(1,0,0,1,377.9527559055118,377.95275590551176) translate(48.27166666666666 48.27777777777777)"/><path d="M358 417.95h-20.03a6 6 0 0 1-6-6V46a6 6 0 0 0-6-6h-37.52" stroke="#5e5e5e" stroke-width="2" fill="none"/><path d="M373.25 417.95L359 422.6v-9.28z" stroke="#5e5e5e" stroke-width="2" fill="#5e5e5e"/><path d="M288.47 41h-1.02v-2h1.02z" stroke="#5e5e5e" stroke-width=".05" fill="#5e5e5e"/><path d="M377.95 205.98h151.18v20.8H377.95z" fill="none"/><use xlink:href="#x" transform="matrix(1,0,0,1,377.9527559055118,205.984251968504) translate(15.033333333333331 25.777777777777775)"/><use xlink:href="#b" transform="matrix(1,0,0,1,377.9527559055118,205.984251968504) translate(92.52222222222223 25.777777777777775)"/><use xlink:href="#c" transform="matrix(1,0,0,1,377.9527559055118,205.984251968504) translate(114.74444444444444 25.777777777777775)"/><path d="M377.95 331.97h185.2v34.8h-185.2z" fill="none"/><use xlink:href="#y" transform="matrix(1,0,0,1,377.95275590551176,331.9685039370079) translate(4.1111111111111 26.833333333333332)"/><use xlink:href="#z" transform="matrix(1,0,0,1,377.95275590551176,331.9685039370079) translate(26.33333333333332 26.833333333333332)"/><use xlink:href="#A" transform="matrix(1,0,0,1,377.95275590551176,331.9685039370079) translate(48.55555555555554 26.833333333333332)"/><use xlink:href="#B" transform="matrix(1,0,0,1,377.95275590551176,331.9685039370079) translate(70.77777777777776 26.833333333333332)"/><use xlink:href="#A" transform="matrix(1,0,0,1,377.95275590551176,331.9685039370079) translate(92.99999999999999 26.833333333333332)"/><use xlink:href="#C" transform="matrix(1,0,0,1,377.95275590551176,331.9685039370079) translate(115.22222222222221 26.833333333333332)"/><use xlink:href="#D" transform="matrix(1,0,0,1,377.95275590551176,331.9685039370079) translate(137.44444444444446 26.833333333333332)"/><use xlink:href="#E" transform="matrix(1,0,0,1,377.95275590551176,331.9685039370079) translate(159.66666666666669 26.833333333333332)"/><path d="M377.95 457.95h126v34.8h-126z" fill="none"/><use xlink:href="#F" transform="matrix(1,0,0,1,377.95275590551176,457.95275590551176) translate(9.044444444444437 26.833333333333332)"/><use xlink:href="#b" transform="matrix(1,0,0,1,377.95275590551176,457.95275590551176) translate(72.5111111111111 26.833333333333332)"/><use xlink:href="#c" transform="matrix(1,0,0,1,377.95275590551176,457.95275590551176) translate(94.73333333333333 26.833333333333332)"/><path d="M358 160.4h-20.03a6 6 0 0 1-6-6V46a6 6 0 0 0-6-6h-37.52" stroke="#5e5e5e" stroke-width="2" fill="none"/><path d="M373.25 160.4L359 165v-9.27z" stroke="#5e5e5e" stroke-width="2" fill="#5e5e5e"/><path d="M288.47 41h-1.02v-2h1.02z" stroke="#5e5e5e" stroke-width=".05" fill="#5e5e5e"/><path d="M632.13 331.97H781.1v34.8H632.13z" fill="none"/><use xlink:href="#G" transform="matrix(1,0,0,1,632.1259842519685,331.9685039370079) translate(7.833333333333329 26.833333333333332)"/><use xlink:href="#H" transform="matrix(1,0,0,1,632.1259842519685,331.9685039370079) translate(30.05555555555555 26.833333333333332)"/><use xlink:href="#I" transform="matrix(1,0,0,1,632.1259842519685,331.9685039370079) translate(52.27777777777777 26.833333333333332)"/><use xlink:href="#A" transform="matrix(1,0,0,1,632.1259842519685,331.9685039370079) translate(74.49999999999999 26.833333333333332)"/><use xlink:href="#J" transform="matrix(1,0,0,1,632.1259842519685,331.9685039370079) translate(96.72222222222221 26.833333333333332)"/><use xlink:href="#K" transform="matrix(1,0,0,1,632.1259842519685,331.9685039370079) translate(118.94444444444444 26.833333333333332)"/><path d="M629.92 1213.86H778.9v34.8H629.92z" fill="none"/><use xlink:href="#L" transform="matrix(1,0,0,1,629.9212598425196,1213.8582677165355) translate(7.833333333333329 26.833333333333332)"/><use xlink:href="#b" transform="matrix(1,0,0,1,629.9212598425196,1213.8582677165355) translate(30.05555555555555 26.833333333333332)"/><use xlink:href="#M" transform="matrix(1,0,0,1,629.9212598425196,1213.8582677165355) translate(52.27777777777777 26.833333333333332)"/><use xlink:href="#N" transform="matrix(1,0,0,1,629.9212598425196,1213.8582677165355) translate(74.49999999999999 26.833333333333332)"/><use xlink:href="#J" transform="matrix(1,0,0,1,629.9212598425196,1213.8582677165355) translate(96.72222222222221 26.833333333333332)"/><use xlink:href="#K" transform="matrix(1,0,0,1,629.9212598425196,1213.8582677165355) translate(118.94444444444444 26.833333333333332)"/><path d="M881.9 331.97h176.37v34.8H881.9z" fill="none"/><use xlink:href="#O" transform="matrix(1,0,0,1,881.8897637795275,331.9685039370079) translate(11.011111111111106 26.833333333333332)"/><use xlink:href="#P" transform="matrix(1,0,0,1,881.8897637795275,331.9685039370079) translate(54.87777777777777 26.833333333333332)"/><use xlink:href="#I" transform="matrix(1,0,0,1,881.8897637795275,331.9685039370079) translate(77.1 26.833333333333332)"/><use xlink:href="#Q" transform="matrix(1,0,0,1,881.8897637795275,331.9685039370079) translate(99.32222222222221 26.833333333333332)"/><use xlink:href="#R" transform="matrix(1,0,0,1,881.8897637795275,331.9685039370079) translate(121.54444444444444 26.833333333333332)"/><use xlink:href="#S" transform="matrix(1,0,0,1,881.8897637795275,331.9685039370079) translate(143.76666666666665 26.833333333333332)"/><path d="M1133.86 331.97h160v34.8h-160z" fill="none"/><g><use xlink:href="#T" transform="matrix(1,0,0,1,1133.8582677165352,331.9685039370079) translate(14.022222222222211 26.833333333333332)"/><use xlink:href="#R" transform="matrix(1,0,0,1,1133.8582677165352,331.9685039370079) translate(57.08888888888888 26.833333333333332)"/><use xlink:href="#U" transform="matrix(1,0,0,1,1133.8582677165352,331.9685039370079) translate(79.3111111111111 26.833333333333332)"/><use xlink:href="#b" transform="matrix(1,0,0,1,1133.8582677165352,331.9685039370079) translate(101.53333333333333 26.833333333333332)"/><use xlink:href="#c" transform="matrix(1,0,0,1,1133.8582677165352,331.9685039370079) translate(123.75555555555556 26.833333333333332)"/></g><path d="M1133.86 457.95h226.77v46h-226.77z" fill="none"/><g><use xlink:href="#V" transform="matrix(1,0,0,1,1133.858267716535,457.95275590551176) translate(2.3888888888888715 25.777777777777775)"/><use xlink:href="#W" transform="matrix(1,0,0,1,1133.858267716535,457.95275590551176) translate(24.611111111111093 25.777777777777775)"/><use xlink:href="#I" transform="matrix(1,0,0,1,1133.858267716535,457.95275590551176) translate(46.833333333333314 25.777777777777775)"/><use xlink:href="#X" transform="matrix(1,0,0,1,1133.858267716535,457.95275590551176) translate(69.05555555555553 25.777777777777775)"/><use xlink:href="#Y" transform="matrix(1,0,0,1,1133.858267716535,457.95275590551176) translate(91.27777777777776 25.777777777777775)"/><use xlink:href="#Z" transform="matrix(1,0,0,1,1133.858267716535,457.95275590551176) translate(113.49999999999999 25.777777777777775)"/><use xlink:href="#aa" transform="matrix(1,0,0,1,1133.858267716535,457.95275590551176) translate(135.72222222222223 25.777777777777775)"/><use xlink:href="#ab" transform="matrix(1,0,0,1,1133.858267716535,457.95275590551176) translate(157.94444444444446 25.777777777777775)"/><use xlink:href="#Y" transform="matrix(1,0,0,1,1133.858267716535,457.95275590551176) translate(180.16666666666669 25.777777777777775)"/><use xlink:href="#ac" transform="matrix(1,0,0,1,1133.858267716535,457.95275590551176) translate(202.3888888888889 25.777777777777775)"/><use xlink:href="#b" transform="matrix(1,0,0,1,1133.858267716535,457.95275590551176) translate(91.27777777777777 58.66666666666666)"/><use xlink:href="#c" transform="matrix(1,0,0,1,1133.858267716535,457.95275590551176) translate(113.5 58.66666666666666)"/></g><path d="M881.9 457.95h125.97v34.8H881.9z" fill="none"/><g><use xlink:href="#ad" transform="matrix(1,0,0,1,881.8897637795275,457.95275590551176) translate(10.855555555555554 26.833333333333332)"/><use xlink:href="#b" transform="matrix(1,0,0,1,881.8897637795275,457.95275590551176) translate(70.69999999999999 26.833333333333332)"/><use xlink:href="#ae" transform="matrix(1,0,0,1,881.8897637795275,457.95275590551176) translate(92.92222222222222 26.833333333333332)"/></g><path d="M881.9 583.94h151.17v34.78H881.9z" fill="none"/><g><use xlink:href="#G" transform="matrix(1,0,0,1,881.8897637795276,583.9370078740156) translate(9.333333333333329 26.833333333333332)"/><use xlink:href="#H" transform="matrix(1,0,0,1,881.8897637795276,583.9370078740156) translate(31.55555555555555 26.833333333333332)"/><use xlink:href="#I" transform="matrix(1,0,0,1,881.8897637795276,583.9370078740156) translate(53.77777777777777 26.833333333333332)"/><use xlink:href="#A" transform="matrix(1,0,0,1,881.8897637795276,583.9370078740156) translate(75.99999999999999 26.833333333333332)"/><use xlink:href="#b" transform="matrix(1,0,0,1,881.8897637795276,583.9370078740156) translate(98.22222222222221 26.833333333333332)"/><use xlink:href="#c" transform="matrix(1,0,0,1,881.8897637795276,583.9370078740156) translate(120.44444444444444 26.833333333333332)"/></g><path d="M881.9 709.92h160v34.8h-160z" fill="none"/><g><use xlink:href="#G" transform="matrix(1,0,0,1,881.8897637795277,709.9212598425196) translate(2.7222222222222143 26.833333333333332)"/><use xlink:href="#H" transform="matrix(1,0,0,1,881.8897637795277,709.9212598425196) translate(24.944444444444436 26.833333333333332)"/><use xlink:href="#af" transform="matrix(1,0,0,1,881.8897637795277,709.9212598425196) translate(47.16666666666666 26.833333333333332)"/><use xlink:href="#ag" transform="matrix(1,0,0,1,881.8897637795277,709.9212598425196) translate(69.38888888888887 26.833333333333332)"/><use xlink:href="#Q" transform="matrix(1,0,0,1,881.8897637795277,709.9212598425196) translate(91.6111111111111 26.833333333333332)"/><use xlink:href="#b" transform="matrix(1,0,0,1,881.8897637795277,709.9212598425196) translate(113.83333333333333 26.833333333333332)"/><use xlink:href="#c" transform="matrix(1,0,0,1,881.8897637795277,709.9212598425196) translate(136.05555555555554 26.833333333333332)"/></g><path d="M881.9 835.9h176.37v34.8H881.9z" fill="none"/><g><use xlink:href="#ah" transform="matrix(1,0,0,1,881.8897637795277,835.9055118110235) translate(10.722222222222214 26.833333333333332)"/><use xlink:href="#Z" transform="matrix(1,0,0,1,881.8897637795277,835.9055118110235) translate(32.944444444444436 26.833333333333332)"/><use xlink:href="#ai" transform="matrix(1,0,0,1,881.8897637795277,835.9055118110235) translate(55.16666666666666 26.833333333333332)"/><use xlink:href="#aj" transform="matrix(1,0,0,1,881.8897637795277,835.9055118110235) translate(77.38888888888887 26.833333333333332)"/><use xlink:href="#ak" transform="matrix(1,0,0,1,881.8897637795277,835.9055118110235) translate(99.6111111111111 26.833333333333332)"/><use xlink:href="#b" transform="matrix(1,0,0,1,881.8897637795277,835.9055118110235) translate(121.83333333333333 26.833333333333332)"/><use xlink:href="#c" transform="matrix(1,0,0,1,881.8897637795277,835.9055118110235) translate(144.05555555555554 26.833333333333332)"/></g><path d="M881.9 961.9h226.76v34.78H881.9z" fill="none"/><g><use xlink:href="#al" transform="matrix(1,0,0,1,881.8897637795277,961.8897637795275) translate(13.499999999999986 26.833333333333332)"/><use xlink:href="#am" transform="matrix(1,0,0,1,881.8897637795277,961.8897637795275) translate(35.72222222222221 26.833333333333332)"/><use xlink:href="#an" transform="matrix(1,0,0,1,881.8897637795277,961.8897637795275) translate(57.94444444444443 26.833333333333332)"/><use xlink:href="#Z" transform="matrix(1,0,0,1,881.8897637795277,961.8897637795275) translate(80.16666666666664 26.833333333333332)"/><use xlink:href="#ao" transform="matrix(1,0,0,1,881.8897637795277,961.8897637795275) translate(102.38888888888887 26.833333333333332)"/><use xlink:href="#ap" transform="matrix(1,0,0,1,881.8897637795277,961.8897637795275) translate(124.6111111111111 26.833333333333332)"/><use xlink:href="#aq" transform="matrix(1,0,0,1,881.8897637795277,961.8897637795275) translate(146.83333333333331 26.833333333333332)"/><use xlink:href="#b" transform="matrix(1,0,0,1,881.8897637795277,961.8897637795275) translate(169.05555555555554 26.833333333333332)"/><use xlink:href="#c" transform="matrix(1,0,0,1,881.8897637795277,961.8897637795275) translate(191.27777777777777 26.833333333333332)"/></g><path d="M881.9 1087.87h251.96v20.8H881.9z" fill="none"/><g><use xlink:href="#al" transform="matrix(1,0,0,1,881.8897637795275,1087.8740157480318) translate(3.7777777777777573 25.777777777777775)"/><use xlink:href="#am" transform="matrix(1,0,0,1,881.8897637795275,1087.8740157480318) translate(25.99999999999998 25.777777777777775)"/><use xlink:href="#an" transform="matrix(1,0,0,1,881.8897637795275,1087.8740157480318) translate(48.2222222222222 25.777777777777775)"/><use xlink:href="#Z" transform="matrix(1,0,0,1,881.8897637795275,1087.8740157480318) translate(70.44444444444441 25.777777777777775)"/><use xlink:href="#ao" transform="matrix(1,0,0,1,881.8897637795275,1087.8740157480318) translate(92.66666666666664 25.777777777777775)"/><use xlink:href="#ab" transform="matrix(1,0,0,1,881.8897637795275,1087.8740157480318) translate(114.88888888888887 25.777777777777775)"/><use xlink:href="#ar" transform="matrix(1,0,0,1,881.8897637795275,1087.8740157480318) translate(137.1111111111111 25.777777777777775)"/><use xlink:href="#as" transform="matrix(1,0,0,1,881.8897637795275,1087.8740157480318) translate(159.33333333333331 25.777777777777775)"/><use xlink:href="#Q" transform="matrix(1,0,0,1,881.8897637795275,1087.8740157480318) translate(181.55555555555554 25.777777777777775)"/><use xlink:href="#b" transform="matrix(1,0,0,1,881.8897637795275,1087.8740157480318) translate(203.77777777777777 25.777777777777775)"/><use xlink:href="#c" transform="matrix(1,0,0,1,881.8897637795275,1087.8740157480318) translate(226 25.777777777777775)"/></g><path d="M881.9 1211.94h176.37v34.8H881.9z" fill="none"/><g><use xlink:href="#ah" transform="matrix(1,0,0,1,881.8897637795277,1211.939632545932) translate(10.722222222222214 26.833333333333332)"/><use xlink:href="#Z" transform="matrix(1,0,0,1,881.8897637795277,1211.939632545932) translate(32.944444444444436 26.833333333333332)"/><use xlink:href="#ai" transform="matrix(1,0,0,1,881.8897637795277,1211.939632545932) translate(55.16666666666666 26.833333333333332)"/><use xlink:href="#D" transform="matrix(1,0,0,1,881.8897637795277,1211.939632545932) translate(77.38888888888887 26.833333333333332)"/><use xlink:href="#at" transform="matrix(1,0,0,1,881.8897637795277,1211.939632545932) translate(99.6111111111111 26.833333333333332)"/><use xlink:href="#b" transform="matrix(1,0,0,1,881.8897637795277,1211.939632545932) translate(121.83333333333333 26.833333333333332)"/><use xlink:href="#c" transform="matrix(1,0,0,1,881.8897637795277,1211.939632545932) translate(144.05555555555554 26.833333333333332)"/></g><path d="M881.9 1339.84h201.56v34.8H881.9z" fill="none"/><g><use xlink:href="#au" transform="matrix(1,0,0,1,881.8897637795275,1339.8425196850392) translate(12.1111111111111 26.833333333333332)"/><use xlink:href="#av" transform="matrix(1,0,0,1,881.8897637795275,1339.8425196850392) translate(34.33333333333332 26.833333333333332)"/><use xlink:href="#I" transform="matrix(1,0,0,1,881.8897637795275,1339.8425196850392) translate(56.55555555555554 26.833333333333332)"/><use xlink:href="#aw" transform="matrix(1,0,0,1,881.8897637795275,1339.8425196850392) translate(78.77777777777776 26.833333333333332)"/><use xlink:href="#ax" transform="matrix(1,0,0,1,881.8897637795275,1339.8425196850392) translate(100.99999999999999 26.833333333333332)"/><use xlink:href="#ay" transform="matrix(1,0,0,1,881.8897637795275,1339.8425196850392) translate(123.22222222222221 26.833333333333332)"/><use xlink:href="#b" transform="matrix(1,0,0,1,881.8897637795275,1339.8425196850392) translate(145.44444444444446 26.833333333333332)"/><use xlink:href="#c" transform="matrix(1,0,0,1,881.8897637795275,1339.8425196850392) translate(167.66666666666669 26.833333333333332)"/></g><path d="M881.9 1465.83h201.56v34.78H881.9z" fill="none"/><g><use xlink:href="#az" transform="matrix(1,0,0,1,881.8897637795277,1465.826771653543) translate(12.1111111111111 26.833333333333332)"/><use xlink:href="#N" transform="matrix(1,0,0,1,881.8897637795277,1465.826771653543) translate(34.33333333333332 26.833333333333332)"/><use xlink:href="#aA" transform="matrix(1,0,0,1,881.8897637795277,1465.826771653543) translate(56.55555555555554 26.833333333333332)"/><use xlink:href="#aB" transform="matrix(1,0,0,1,881.8897637795277,1465.826771653543) translate(78.77777777777776 26.833333333333332)"/><use xlink:href="#ap" transform="matrix(1,0,0,1,881.8897637795277,1465.826771653543) translate(100.99999999999999 26.833333333333332)"/><use xlink:href="#aq" transform="matrix(1,0,0,1,881.8897637795277,1465.826771653543) translate(123.22222222222221 26.833333333333332)"/><use xlink:href="#b" transform="matrix(1,0,0,1,881.8897637795277,1465.826771653543) translate(145.44444444444446 26.833333333333332)"/><use xlink:href="#c" transform="matrix(1,0,0,1,881.8897637795277,1465.826771653543) translate(167.66666666666669 26.833333333333332)"/></g><path d="M881.9 1591.8h201.56v34.8H881.9z" fill="none"/><g><use xlink:href="#az" transform="matrix(1,0,0,1,881.8897637795275,1591.8110236220466) translate(12.1111111111111 26.833333333333332)"/><use xlink:href="#N" transform="matrix(1,0,0,1,881.8897637795275,1591.8110236220466) translate(34.33333333333332 26.833333333333332)"/><use xlink:href="#aA" transform="matrix(1,0,0,1,881.8897637795275,1591.8110236220466) translate(56.55555555555554 26.833333333333332)"/><use xlink:href="#aB" transform="matrix(1,0,0,1,881.8897637795275,1591.8110236220466) translate(78.77777777777776 26.833333333333332)"/><use xlink:href="#aC" transform="matrix(1,0,0,1,881.8897637795275,1591.8110236220466) translate(100.99999999999999 26.833333333333332)"/><use xlink:href="#aD" transform="matrix(1,0,0,1,881.8897637795275,1591.8110236220466) translate(123.22222222222221 26.833333333333332)"/><use xlink:href="#b" transform="matrix(1,0,0,1,881.8897637795275,1591.8110236220466) translate(145.44444444444446 26.833333333333332)"/><use xlink:href="#c" transform="matrix(1,0,0,1,881.8897637795275,1591.8110236220466) translate(167.66666666666669 26.833333333333332)"/></g><defs><path fill="#333" d="M92 0v-543h75l8 78h3c52-51 108-92 182-92 114 0 166 74 166 213V0h-91v-332c0-102-31-145-103-145-56 0-94 28-149 83V0H92" id="aE"/><path fill="#333" d="M217 13C126 13 58-43 58-141c0-118 103-177 334-203 0-70-23-137-112-137-63 0-120 29-163 58l-36-63c50-32 127-71 214-71 132 0 188 89 188 223V0h-75l-8-65h-3c-52 43-113 78-180 78zm26-73c53 0 96-25 149-72v-152c-183 22-245 67-245 137 0 62 42 87 96 87" id="aF"/><path fill="#333" d="M209 0L13-543h95c51 155 104 312 153 469h4c48-158 101-314 153-469h90L315 0H209" id="aG"/><path fill="#333" d="M567-281C567-18 341 97 176-56h-3l-8 56H92v-796h91c0 106 2 214-3 316 49-43 110-77 170-77 141 0 217 110 217 276zM183-120C317-1 471-73 472-279c0-120-40-201-143-201-46 0-94 26-146 75v285" id="aH"/><path fill="#333" d="M92 0v-543h75l8 99h3c50-86 117-137 212-101l-17 80c-18-7-31-9-53-9-45 0-101 32-137 125V0H92" id="aI"/><g id="a"><use transform="matrix(0.022222222222222223,0,0,0.022222222222222223,0,0)" xlink:href="#aE"/><use transform="matrix(0.022222222222222223,0,0,0.022222222222222223,13.577777777777778,0)" xlink:href="#aF"/><use transform="matrix(0.022222222222222223,0,0,0.022222222222222223,26.11111111111111,0)" xlink:href="#aG"/><use transform="matrix(0.022222222222222223,0,0,0.022222222222222223,37.68888888888889,0)" xlink:href="#aH"/><use transform="matrix(0.022222222222222223,0,0,0.022222222222222223,51.422222222222224,0)" xlink:href="#aF"/><use transform="matrix(0.022222222222222223,0,0,0.022222222222222223,63.955555555555556,0)" xlink:href="#aI"/></g><path fill="#333" d="M839-57v-545h72V73h-72V14H164v62H92v-678h72v545h675zM672-398v-130H529v130h143zm0 191v-131H529v131h143zM322-338v131h142v-131H322zm0-190v130h142v-130H322zM61-771h878v69H533v111h204v447H259v-447h200v-111H61v-69" id="aJ"/><use transform="matrix(0.022222222222222223,0,0,0.022222222222222223,0,0)" xlink:href="#aJ" id="b"/><path fill="#333" d="M818-45v-460H668v460h150zM179-505v460h142v-460H179zm421 110v-110H389v110h211zM389-161v116h211v-116H389zm211-61v-112H389v112h211zm341-477H531c-12 42-26 87-39 125h401V77h-75V24H179v53h-72v-651h309c11-38 21-84 29-125H62v-71h879v71" id="aK"/><use transform="matrix(0.022222222222222223,0,0,0.022222222222222223,0,0)" xlink:href="#aK" id="c"/><path fill="#333" d="M191-298h222c-37-120-75-237-109-360h-4c-33 124-71 241-109 360zM506 0l-70-224H168L97 0H3l249-733h103L604 0h-98" id="aL"/><path fill="#333" d="M92 229v-772h75l8 62h3c49-40 110-76 173-76 140 0 216 110 216 277C567-22 349 94 181-50c3 91 2 185 2 279H92zm91-349C317-1 471-73 472-279c0-120-40-201-143-201-46 0-93 26-146 75v285" id="aM"/><path fill="#333" d="M139 13c-36 0-66-28-66-69s30-71 66-71 66 30 66 71-30 69-66 69" id="aN"/><path fill="#333" d="M250 13C136 13 85-61 85-199v-344h91v333c0 101 30 144 102 144 56 0 95-27 147-92v-385h91V0h-76l-7-85h-3c-51 59-105 98-180 98" id="aO"/><path fill="#333" d="M311 13C167 13 51-92 51-271c0-176 119-286 245-286 154-3 234 132 212 307H142c6 116 77 190 180 190 53 0 96-16 136-43l33 60c-48 31-106 56-180 56zM141-315h291c0-110-50-169-135-169-77 0-145 62-156 169" id="aP"/><g id="d"><use transform="matrix(0.022222222222222223,0,0,0.022222222222222223,0,0)" xlink:href="#aL"/><use transform="matrix(0.022222222222222223,0,0,0.022222222222222223,13.488888888888889,0)" xlink:href="#aM"/><use transform="matrix(0.022222222222222223,0,0,0.022222222222222223,27.26666666666667,0)" xlink:href="#aM"/><use transform="matrix(0.022222222222222223,0,0,0.022222222222222223,41.044444444444444,0)" xlink:href="#aN"/><use transform="matrix(0.022222222222222223,0,0,0.022222222222222223,47.22222222222222,0)" xlink:href="#aG"/><use transform="matrix(0.022222222222222223,0,0,0.022222222222222223,58.79999999999999,0)" xlink:href="#aO"/><use transform="matrix(0.022222222222222223,0,0,0.022222222222222223,72.28888888888889,0)" xlink:href="#aP"/></g><path fill="#333" d="M100 0v-733h96c115 204 239 400 345 613h5c-18-192-10-405-12-613h88V0h-95C412-205 289-402 181-614h-4c17 193 10 407 11 614h-88" id="aQ"/><g id="e"><use transform="matrix(0.022222222222222223,0,0,0.022222222222222223,0,0)" xlink:href="#aQ"/><use transform="matrix(0.022222222222222223,0,0,0.022222222222222223,16.044444444444444,0)" xlink:href="#aF"/><use transform="matrix(0.022222222222222223,0,0,0.022222222222222223,28.577777777777772,0)" xlink:href="#aG"/><use transform="matrix(0.022222222222222223,0,0,0.022222222222222223,40.15555555555555,0)" xlink:href="#aN"/><use transform="matrix(0.022222222222222223,0,0,0.022222222222222223,46.33333333333332,0)" xlink:href="#aG"/><use transform="matrix(0.022222222222222223,0,0,0.022222222222222223,57.911111111111104,0)" xlink:href="#aO"/><use transform="matrix(0.022222222222222223,0,0,0.022222222222222223,71.39999999999999,0)" xlink:href="#aP"/></g><path fill="#333" d="M304 13C200 13 111-29 47-96l55-63c53 55 127 91 203 91 96 0 154-48 154-120 1-113-145-134-228-176-66-33-149-81-149-188 0-113 98-195 231-195 87 0 164 37 216 91l-49 59c-45-42-99-69-167-69-83 0-137 42-137 108 0 112 144 126 226 167 83 42 151 87 151 196 0 116-96 208-249 208" id="aR"/><path fill="#333" d="M92 0v-543h91V0H92zm46-655c-36 0-63-25-63-59 0-37 27-59 63-59s63 22 63 59c0 34-27 59-63 59" id="aS"/><path fill="#333" d="M277 13C141 13 53-90 53-271c-5-249 231-368 388-222-8-95-4-201-5-303h91V0h-74c-4-21-4-46-11-64-43 42-100 77-165 77zm20-76c50 0 94-25 139-75v-285c-123-120-291-42-289 151 0 131 54 209 150 209" id="aT"/><g id="f"><use transform="matrix(0.022222222222222223,0,0,0.022222222222222223,0,0)" xlink:href="#aR"/><use transform="matrix(0.022222222222222223,0,0,0.022222222222222223,13.266666666666667,0)" xlink:href="#aS"/><use transform="matrix(0.022222222222222223,0,0,0.022222222222222223,19.37777777777778,0)" xlink:href="#aT"/><use transform="matrix(0.022222222222222223,0,0,0.022222222222222223,33.15555555555556,0)" xlink:href="#aP"/><use transform="matrix(0.022222222222222223,0,0,0.022222222222222223,45.46666666666667,0)" xlink:href="#aG"/><use transform="matrix(0.022222222222222223,0,0,0.022222222222222223,57.044444444444444,0)" xlink:href="#aF"/><use transform="matrix(0.022222222222222223,0,0,0.022222222222222223,69.57777777777778,0)" xlink:href="#aI"/><use transform="matrix(0.022222222222222223,0,0,0.022222222222222223,78.2,0)" xlink:href="#aN"/><use transform="matrix(0.022222222222222223,0,0,0.022222222222222223,84.37777777777778,0)" xlink:href="#aG"/><use transform="matrix(0.022222222222222223,0,0,0.022222222222222223,95.95555555555556,0)" xlink:href="#aO"/><use transform="matrix(0.022222222222222223,0,0,0.022222222222222223,109.44444444444444,0)" xlink:href="#aP"/></g><path fill="#333" d="M100 0v-733h93v307h342v-307h92V0h-92v-346H193V0h-93" id="aU"/><path fill="#333" d="M303 13C170 13 51-91 51-271c0-181 119-286 252-286s252 105 252 286C555-91 436 13 303 13zm0-76c94 0 158-83 158-208s-64-210-158-210-157 85-157 210S209-63 303-63" id="aV"/><path fill="#333" d="M92 0v-543h75l8 79h3c47-52 104-93 169-93 83 0 128 40 150 104 56-61 113-104 179-104 112 0 165 74 165 213V0h-91v-332c0-102-32-145-101-145-42 0-86 27-137 83V0h-91v-332c0-102-32-145-101-145-41 0-87 27-137 83V0H92" id="aW"/><g id="g"><use transform="matrix(0.022222222222222223,0,0,0.022222222222222223,0,0)" xlink:href="#aU"/><use transform="matrix(0.022222222222222223,0,0,0.022222222222222223,16.177777777777777,0)" xlink:href="#aV"/><use transform="matrix(0.022222222222222223,0,0,0.022222222222222223,29.644444444444446,0)" xlink:href="#aW"/><use transform="matrix(0.022222222222222223,0,0,0.022222222222222223,50.22222222222222,0)" xlink:href="#aP"/><use transform="matrix(0.022222222222222223,0,0,0.022222222222222223,62.53333333333334,0)" xlink:href="#aN"/><use transform="matrix(0.022222222222222223,0,0,0.022222222222222223,68.71111111111112,0)" xlink:href="#aG"/><use transform="matrix(0.022222222222222223,0,0,0.022222222222222223,80.2888888888889,0)" xlink:href="#aO"/><use transform="matrix(0.022222222222222223,0,0,0.022222222222222223,93.7777777777778,0)" xlink:href="#aP"/></g><path fill="#333" d="M360 13C211 13 97-67 97-303v-430h93v433c0 177 75 232 170 232 98 0 175-55 175-232v-433h89v430C624-67 510 13 360 13" id="aX"/><path fill="#333" d="M234 13C157 13 83-19 31-62l45-60c47 38 96 64 161 64 72 0 107-38 107-85 0-55-64-80-124-103-76-28-162-65-162-157 0-86 69-154 187-154 67 0 126 28 169 61l-44 59c-38-28-76-48-125-48-68 0-99 36-99 78 0 52 59 71 120 94 79 30 166 62 166 165 0 88-70 161-198 161" id="aY"/><g id="h"><use transform="matrix(0.022222222222222223,0,0,0.022222222222222223,0,0)" xlink:href="#aX"/><use transform="matrix(0.022222222222222223,0,0,0.022222222222222223,16.022222222222222,0)" xlink:href="#aY"/><use transform="matrix(0.022222222222222223,0,0,0.022222222222222223,26.422222222222224,0)" xlink:href="#aP"/><use transform="matrix(0.022222222222222223,0,0,0.022222222222222223,38.733333333333334,0)" xlink:href="#aI"/><use transform="matrix(0.022222222222222223,0,0,0.022222222222222223,47.355555555555554,0)" xlink:href="#aN"/><use transform="matrix(0.022222222222222223,0,0,0.022222222222222223,53.53333333333334,0)" xlink:href="#aG"/><use transform="matrix(0.022222222222222223,0,0,0.022222222222222223,65.11111111111111,0)" xlink:href="#aO"/><use transform="matrix(0.022222222222222223,0,0,0.022222222222222223,78.60000000000001,0)" xlink:href="#aP"/></g><path fill="#333" d="M100 0v-733h209c165 0 275 55 275 215 0 155-110 227-270 227H193V0h-93zm93-366h109c129 0 190-47 190-152 0-106-65-140-194-140H193v292" id="aZ"/><path fill="#333" d="M275 250c-133 0-225-52-225-146 0-46 30-90 81-123v-4c-29-17-50-46-50-89 0-45 33-81 61-101v-4c-36-29-71-81-71-146-2-145 144-228 280-180h189v70H429c26 25 44 65 44 112 4 144-147 228-279 170-52 42-57 131 60 124h106c126 0 189 40 189 129 0 101-106 188-274 188zm0-484c62 0 115-50 115-129s-51-127-115-127-116 47-116 127c0 79 53 129 116 129zm13 422c104 0 173-55 173-112 0-103-183-49-275-76-106 75-57 194 102 188" id="ba"/><g id="i"><use transform="matrix(0.022222222222222223,0,0,0.022222222222222223,0,0)" xlink:href="#aZ"/><use transform="matrix(0.022222222222222223,0,0,0.022222222222222223,14.044444444444444,0)" xlink:href="#aF"/><use transform="matrix(0.022222222222222223,0,0,0.022222222222222223,26.577777777777772,0)" xlink:href="#ba"/><use transform="matrix(0.022222222222222223,0,0,0.022222222222222223,39.08888888888889,0)" xlink:href="#aP"/></g><path fill="#333" d="M241 5C155 32 92-8 92-108v-688h91v694c3 37 15 43 45 37" id="bb"/><path fill="#333" d="M303 45C261 172 181 266 37 223l18-73C155 188 210 96 231 1L13-543h95c55 152 111 298 163 454h5c45-155 95-303 143-454h89" id="bc"/><g id="j"><use transform="matrix(0.022222222222222223,0,0,0.022222222222222223,0,0)" xlink:href="#aL"/><use transform="matrix(0.022222222222222223,0,0,0.022222222222222223,13.488888888888889,0)" xlink:href="#aE"/><use transform="matrix(0.022222222222222223,0,0,0.022222222222222223,27.066666666666666,0)" xlink:href="#aF"/><use transform="matrix(0.022222222222222223,0,0,0.022222222222222223,39.6,0)" xlink:href="#bb"/><use transform="matrix(0.022222222222222223,0,0,0.022222222222222223,45.93333333333334,0)" xlink:href="#bc"/><use transform="matrix(0.022222222222222223,0,0,0.022222222222222223,57.51111111111111,0)" xlink:href="#aY"/><use transform="matrix(0.022222222222222223,0,0,0.022222222222222223,67.91111111111111,0)" xlink:href="#aS"/><use transform="matrix(0.022222222222222223,0,0,0.022222222222222223,74.02222222222223,0)" xlink:href="#aY"/></g><g id="k"><use transform="matrix(0.022222222222222223,0,0,0.022222222222222223,0,0)" xlink:href="#aI"/><use transform="matrix(0.022222222222222223,0,0,0.022222222222222223,8.622222222222222,0)" xlink:href="#aO"/><use transform="matrix(0.022222222222222223,0,0,0.022222222222222223,22.11111111111111,0)" xlink:href="#bb"/><use transform="matrix(0.022222222222222223,0,0,0.022222222222222223,28.44444444444444,0)" xlink:href="#aP"/></g><path fill="#333" d="M100 0v-733h93v654h320V0H100" id="bd"/><g id="l"><use transform="matrix(0.022222222222222223,0,0,0.022222222222222223,0,0)" xlink:href="#bd"/><use transform="matrix(0.022222222222222223,0,0,0.022222222222222223,12.044444444444444,0)" xlink:href="#aV"/><use transform="matrix(0.022222222222222223,0,0,0.022222222222222223,25.511111111111113,0)" xlink:href="#ba"/><use transform="matrix(0.022222222222222223,0,0,0.022222222222222223,38.022222222222226,0)" xlink:href="#aS"/><use transform="matrix(0.022222222222222223,0,0,0.022222222222222223,44.13333333333334,0)" xlink:href="#aE"/><use transform="matrix(0.022222222222222223,0,0,0.022222222222222223,57.711111111111116,0)" xlink:href="#aN"/><use transform="matrix(0.022222222222222223,0,0,0.022222222222222223,63.88888888888889,0)" xlink:href="#aG"/><use transform="matrix(0.022222222222222223,0,0,0.022222222222222223,75.46666666666667,0)" xlink:href="#aO"/><use transform="matrix(0.022222222222222223,0,0,0.022222222222222223,88.95555555555556,0)" xlink:href="#aP"/></g><path fill="#333" d="M100 0v-733h423v78H193v248h280v78H193V0h-93" id="be"/><path fill="#333" d="M263 13c-116 0-155-72-155-181v-301H27v-69l85-5 11-152h76v152h147v74H199v303c0 67 21 105 84 105 19 0 44-7 62-14l18 68c-31 10-67 20-100 20" id="bf"/><g id="m"><use transform="matrix(0.022222222222222223,0,0,0.022222222222222223,0,0)" xlink:href="#be"/><use transform="matrix(0.022222222222222223,0,0,0.022222222222222223,12.266666666666667,0)" xlink:href="#aV"/><use transform="matrix(0.022222222222222223,0,0,0.022222222222222223,25.733333333333334,0)" xlink:href="#aI"/><use transform="matrix(0.022222222222222223,0,0,0.022222222222222223,34.355555555555554,0)" xlink:href="#ba"/><use transform="matrix(0.022222222222222223,0,0,0.022222222222222223,46.86666666666667,0)" xlink:href="#aV"/><use transform="matrix(0.022222222222222223,0,0,0.022222222222222223,60.333333333333336,0)" xlink:href="#bf"/><use transform="matrix(0.022222222222222223,0,0,0.022222222222222223,68.71111111111111,0)" xlink:href="#aN"/><use transform="matrix(0.022222222222222223,0,0,0.022222222222222223,74.88888888888889,0)" xlink:href="#aG"/><use transform="matrix(0.022222222222222223,0,0,0.022222222222222223,86.46666666666667,0)" xlink:href="#aO"/><use transform="matrix(0.022222222222222223,0,0,0.022222222222222223,99.95555555555556,0)" xlink:href="#aP"/></g><path fill="#333" d="M193-658v272h123c115 0 178-46 178-141 0-97-63-131-178-131H193zM608 0H503L325-311H193V0h-93v-733h230c149 0 256 53 256 206 0 114-66 182-166 206" id="bg"/><g id="n"><use transform="matrix(0.022222222222222223,0,0,0.022222222222222223,0,0)" xlink:href="#bg"/><use transform="matrix(0.022222222222222223,0,0,0.022222222222222223,14.111111111111112,0)" xlink:href="#aP"/><use transform="matrix(0.022222222222222223,0,0,0.022222222222222223,26.422222222222224,0)" xlink:href="#ba"/><use transform="matrix(0.022222222222222223,0,0,0.022222222222222223,38.93333333333334,0)" xlink:href="#aS"/><use transform="matrix(0.022222222222222223,0,0,0.022222222222222223,45.04444444444445,0)" xlink:href="#aY"/><use transform="matrix(0.022222222222222223,0,0,0.022222222222222223,55.44444444444445,0)" xlink:href="#bf"/><use transform="matrix(0.022222222222222223,0,0,0.022222222222222223,63.82222222222224,0)" xlink:href="#aP"/><use transform="matrix(0.022222222222222223,0,0,0.022222222222222223,76.13333333333334,0)" xlink:href="#aI"/><use transform="matrix(0.022222222222222223,0,0,0.022222222222222223,84.75555555555556,0)" xlink:href="#aN"/><use transform="matrix(0.022222222222222223,0,0,0.022222222222222223,90.93333333333334,0)" xlink:href="#aG"/><use transform="matrix(0.022222222222222223,0,0,0.022222222222222223,102.51111111111112,0)" xlink:href="#aO"/><use transform="matrix(0.022222222222222223,0,0,0.022222222222222223,116,0)" xlink:href="#aP"/></g><g id="o"><use transform="matrix(0.022222222222222223,0,0,0.022222222222222223,0,0)" xlink:href="#bd"/><use transform="matrix(0.022222222222222223,0,0,0.022222222222222223,12.044444444444444,0)" xlink:href="#aV"/><use transform="matrix(0.022222222222222223,0,0,0.022222222222222223,25.511111111111113,0)" xlink:href="#ba"/><use transform="matrix(0.022222222222222223,0,0,0.022222222222222223,38.022222222222226,0)" xlink:href="#aV"/><use transform="matrix(0.022222222222222223,0,0,0.022222222222222223,51.488888888888894,0)" xlink:href="#aO"/><use transform="matrix(0.022222222222222223,0,0,0.022222222222222223,64.97777777777779,0)" xlink:href="#bf"/><use transform="matrix(0.022222222222222223,0,0,0.022222222222222223,73.35555555555557,0)" xlink:href="#aN"/><use transform="matrix(0.022222222222222223,0,0,0.022222222222222223,79.53333333333335,0)" xlink:href="#aG"/><use transform="matrix(0.022222222222222223,0,0,0.022222222222222223,91.11111111111113,0)" xlink:href="#aO"/><use transform="matrix(0.022222222222222223,0,0,0.022222222222222223,104.60000000000002,0)" xlink:href="#aP"/></g><g id="p"><use transform="matrix(0.022222222222222223,0,0,0.022222222222222223,0,0)" xlink:href="#bg"/><use transform="matrix(0.022222222222222223,0,0,0.022222222222222223,14.111111111111112,0)" xlink:href="#aP"/><use transform="matrix(0.022222222222222223,0,0,0.022222222222222223,26.422222222222224,0)" xlink:href="#aY"/><use transform="matrix(0.022222222222222223,0,0,0.022222222222222223,36.82222222222222,0)" xlink:href="#aP"/><use transform="matrix(0.022222222222222223,0,0,0.022222222222222223,49.13333333333333,0)" xlink:href="#bf"/><use transform="matrix(0.022222222222222223,0,0,0.022222222222222223,57.51111111111111,0)" xlink:href="#aN"/><use transform="matrix(0.022222222222222223,0,0,0.022222222222222223,63.68888888888889,0)" xlink:href="#aG"/><use transform="matrix(0.022222222222222223,0,0,0.022222222222222223,75.26666666666667,0)" xlink:href="#aO"/><use transform="matrix(0.022222222222222223,0,0,0.022222222222222223,88.75555555555556,0)" xlink:href="#aP"/></g><path fill="#333" d="M80-258v-64h297v64H80" id="bh"/><path fill="#333" d="M92 0v-796h90c1 179-3 364 2 540l233-287h101L336-325 542 0h-99L284-262 182-143V0H92" id="bi"/><g id="q"><use transform="matrix(0.022222222222222223,0,0,0.022222222222222223,0,0)" xlink:href="#aI"/><use transform="matrix(0.022222222222222223,0,0,0.022222222222222223,8.622222222222222,0)" xlink:href="#aV"/><use transform="matrix(0.022222222222222223,0,0,0.022222222222222223,22.08888888888889,0)" xlink:href="#aO"/><use transform="matrix(0.022222222222222223,0,0,0.022222222222222223,35.577777777777776,0)" xlink:href="#bf"/><use transform="matrix(0.022222222222222223,0,0,0.022222222222222223,43.955555555555556,0)" xlink:href="#aP"/><use transform="matrix(0.022222222222222223,0,0,0.022222222222222223,56.266666666666666,0)" xlink:href="#aI"/><use transform="matrix(0.022222222222222223,0,0,0.022222222222222223,64.44444444444444,0)" xlink:href="#bh"/><use transform="matrix(0.022222222222222223,0,0,0.022222222222222223,74.6,0)" xlink:href="#bb"/><use transform="matrix(0.022222222222222223,0,0,0.022222222222222223,80.93333333333332,0)" xlink:href="#aS"/><use transform="matrix(0.022222222222222223,0,0,0.022222222222222223,87.04444444444444,0)" xlink:href="#aE"/><use transform="matrix(0.022222222222222223,0,0,0.022222222222222223,100.62222222222222,0)" xlink:href="#bi"/></g><path fill="#333" d="M100 0v-733h93V0h-93" id="bj"/><g id="r"><use transform="matrix(0.022222222222222223,0,0,0.022222222222222223,0,0)" xlink:href="#bj"/><use transform="matrix(0.022222222222222223,0,0,0.022222222222222223,6.511111111111111,0)" xlink:href="#aE"/><use transform="matrix(0.022222222222222223,0,0,0.022222222222222223,20.08888888888889,0)" xlink:href="#aM"/><use transform="matrix(0.022222222222222223,0,0,0.022222222222222223,33.86666666666667,0)" xlink:href="#aO"/><use transform="matrix(0.022222222222222223,0,0,0.022222222222222223,47.355555555555554,0)" xlink:href="#bf"/><use transform="matrix(0.022222222222222223,0,0,0.022222222222222223,55.733333333333334,0)" xlink:href="#aN"/><use transform="matrix(0.022222222222222223,0,0,0.022222222222222223,61.91111111111111,0)" xlink:href="#aG"/><use transform="matrix(0.022222222222222223,0,0,0.022222222222222223,73.4888888888889,0)" xlink:href="#aO"/><use transform="matrix(0.022222222222222223,0,0,0.022222222222222223,86.97777777777779,0)" xlink:href="#aP"/></g><g id="s"><use transform="matrix(0.022222222222222223,0,0,0.022222222222222223,0,0)" xlink:href="#bg"/><use transform="matrix(0.022222222222222223,0,0,0.022222222222222223,14.111111111111112,0)" xlink:href="#aP"/><use transform="matrix(0.022222222222222223,0,0,0.022222222222222223,26.422222222222224,0)" xlink:href="#aY"/><use transform="matrix(0.022222222222222223,0,0,0.022222222222222223,36.82222222222222,0)" xlink:href="#aO"/><use transform="matrix(0.022222222222222223,0,0,0.022222222222222223,50.31111111111111,0)" xlink:href="#bb"/><use transform="matrix(0.022222222222222223,0,0,0.022222222222222223,56.644444444444446,0)" xlink:href="#bf"/><use transform="matrix(0.022222222222222223,0,0,0.022222222222222223,65.02222222222223,0)" xlink:href="#aN"/><use transform="matrix(0.022222222222222223,0,0,0.022222222222222223,71.2,0)" xlink:href="#aG"/><use transform="matrix(0.022222222222222223,0,0,0.022222222222222223,82.77777777777779,0)" xlink:href="#aO"/><use transform="matrix(0.022222222222222223,0,0,0.022222222222222223,96.26666666666667,0)" xlink:href="#aP"/></g><path fill="#333" d="M100 0v-733h184c225 0 346 131 346 364C630-137 509 0 288 0H100zm93-76h83c173 0 258-108 258-293 0-186-85-289-258-289h-83v582" id="bk"/><g id="t"><use transform="matrix(0.022222222222222223,0,0,0.022222222222222223,0,0)" xlink:href="#bk"/><use transform="matrix(0.022222222222222223,0,0,0.022222222222222223,15.266666666666667,0)" xlink:href="#aP"/><use transform="matrix(0.022222222222222223,0,0,0.022222222222222223,27.57777777777778,0)" xlink:href="#bf"/><use transform="matrix(0.022222222222222223,0,0,0.022222222222222223,35.955555555555556,0)" xlink:href="#aF"/><use transform="matrix(0.022222222222222223,0,0,0.022222222222222223,48.488888888888894,0)" xlink:href="#aS"/><use transform="matrix(0.022222222222222223,0,0,0.022222222222222223,54.6,0)" xlink:href="#bb"/><use transform="matrix(0.022222222222222223,0,0,0.022222222222222223,60.93333333333334,0)" xlink:href="#aN"/><use transform="matrix(0.022222222222222223,0,0,0.022222222222222223,67.11111111111111,0)" xlink:href="#aG"/><use transform="matrix(0.022222222222222223,0,0,0.022222222222222223,78.6888888888889,0)" xlink:href="#aO"/><use transform="matrix(0.022222222222222223,0,0,0.022222222222222223,92.17777777777778,0)" xlink:href="#aP"/></g><g id="u"><use transform="matrix(0.022222222222222223,0,0,0.022222222222222223,0,0)" xlink:href="#bf"/><use transform="matrix(0.022222222222222223,0,0,0.022222222222222223,8.377777777777778,0)" xlink:href="#aP"/><use transform="matrix(0.022222222222222223,0,0,0.022222222222222223,20.68888888888889,0)" xlink:href="#aF"/><use transform="matrix(0.022222222222222223,0,0,0.022222222222222223,33.22222222222222,0)" xlink:href="#aW"/><use transform="matrix(0.022222222222222223,0,0,0.022222222222222223,53.800000000000004,0)" xlink:href="#aY"/><use transform="matrix(0.022222222222222223,0,0,0.022222222222222223,64.2,0)" xlink:href="#aN"/><use transform="matrix(0.022222222222222223,0,0,0.022222222222222223,70.37777777777778,0)" xlink:href="#aG"/><use transform="matrix(0.022222222222222223,0,0,0.022222222222222223,81.95555555555556,0)" xlink:href="#aO"/><use transform="matrix(0.022222222222222223,0,0,0.022222222222222223,95.44444444444444,0)" xlink:href="#aP"/></g><path fill="#333" d="M306 13C162 13 51-91 51-271c0-181 123-286 262-286 71 0 120 30 159 64l-47 61c-32-29-65-49-109-49-98 0-170 85-170 210S214-63 314-63c50 0 94-23 128-54l39 61c-48 44-110 69-175 69" id="bl"/><g id="v"><use transform="matrix(0.022222222222222223,0,0,0.022222222222222223,0,0)" xlink:href="#aM"/><use transform="matrix(0.022222222222222223,0,0,0.022222222222222223,13.777777777777779,0)" xlink:href="#aI"/><use transform="matrix(0.022222222222222223,0,0,0.022222222222222223,22.4,0)" xlink:href="#aS"/><use transform="matrix(0.022222222222222223,0,0,0.022222222222222223,28.511111111111106,0)" xlink:href="#aG"/><use transform="matrix(0.022222222222222223,0,0,0.022222222222222223,40.08888888888889,0)" xlink:href="#aF"/><use transform="matrix(0.022222222222222223,0,0,0.022222222222222223,52.62222222222223,0)" xlink:href="#bl"/><use transform="matrix(0.022222222222222223,0,0,0.022222222222222223,63.93333333333332,0)" xlink:href="#bc"/><use transform="matrix(0.022222222222222223,0,0,0.022222222222222223,75.5111111111111,0)" xlink:href="#aN"/><use transform="matrix(0.022222222222222223,0,0,0.022222222222222223,81.68888888888888,0)" xlink:href="#aG"/><use transform="matrix(0.022222222222222223,0,0,0.022222222222222223,93.26666666666667,0)" xlink:href="#aO"/><use transform="matrix(0.022222222222222223,0,0,0.022222222222222223,106.75555555555556,0)" xlink:href="#aP"/></g><path fill="#333" d="M356-791l-20 69c-75-34-144-8-138 93v86h115v74H198V0h-91v-469H33v-69l74-5v-87c0-110 50-179 158-179 33 0 65 7 91 18" id="bm"/><g id="w"><use transform="matrix(0.022222222222222223,0,0,0.022222222222222223,0,0)" xlink:href="#bm"/><use transform="matrix(0.022222222222222223,0,0,0.022222222222222223,7.222222222222222,0)" xlink:href="#aV"/><use transform="matrix(0.022222222222222223,0,0,0.022222222222222223,20.68888888888889,0)" xlink:href="#aV"/><use transform="matrix(0.022222222222222223,0,0,0.022222222222222223,34.15555555555556,0)" xlink:href="#bf"/><use transform="matrix(0.022222222222222223,0,0,0.022222222222222223,42.53333333333334,0)" xlink:href="#aP"/><use transform="matrix(0.022222222222222223,0,0,0.022222222222222223,54.84444444444445,0)" xlink:href="#aI"/></g><g id="x"><use transform="matrix(0.022222222222222223,0,0,0.022222222222222223,0,0)" xlink:href="#aY"/><use transform="matrix(0.022222222222222223,0,0,0.022222222222222223,10.4,0)" xlink:href="#aS"/><use transform="matrix(0.022222222222222223,0,0,0.022222222222222223,16.511111111111113,0)" xlink:href="#aT"/><use transform="matrix(0.022222222222222223,0,0,0.022222222222222223,30.28888888888889,0)" xlink:href="#aP"/><use transform="matrix(0.022222222222222223,0,0,0.022222222222222223,42.6,0)" xlink:href="#aH"/><use transform="matrix(0.022222222222222223,0,0,0.022222222222222223,56.333333333333336,0)" xlink:href="#aF"/><use transform="matrix(0.022222222222222223,0,0,0.022222222222222223,68.86666666666667,0)" xlink:href="#aI"/></g><path fill="#333" d="M716-210H279v178h437v-178zM205 81v-360h588V78h-77V35H279v46h-74zm125-747l-8 9c48 56 111 108 183 153 76-47 144-102 194-162H330zm437-70l51 35c-58 92-144 171-243 238 116 63 252 112 390 139-17 17-37 48-48 68-145-33-287-90-411-165-138 78-293 135-437 169-6-20-23-51-36-67 132-28 277-78 406-146-62-44-118-92-164-145-51 48-105 90-159 123-12-14-40-42-57-55 125-68 246-180 316-303l71 25c-18 30-38 60-60 88h368" id="bn"/><use transform="matrix(0.022222222222222223,0,0,0.022222222222222223,0,0)" xlink:href="#bn" id="y"/><path fill="#333" d="M849 9h-90c1-11 1-32 2-56-199 2-411-4-602 4v-90c188 10 405 2 602 5v-472c-195 1-400-3-589 3v-89c215 12 453 4 676 4-5 223-6 469 1 691" id="bo"/><use transform="matrix(0.022222222222222223,0,0,0.022222222222222223,0,0)" xlink:href="#bo" id="z"/><path fill="#333" d="M227-733c71 47 199 151 255 207l-63 63c-50-52-175-159-249-209zM141-63c175-26 305-87 400-146 154-97 276-245 334-368l48 85C783-252 545-47 194 19" id="bp"/><use transform="matrix(0.022222222222222223,0,0,0.022222222222222223,0,0)" xlink:href="#bp" id="A"/><path fill="#333" d="M803-657c-190-5-397-4-588 0v-83c154 13 331 3 495 6 28 0 64-2 93-6v83zM96-489c238 11 495 2 741 5 21 0 54-1 78-5v83c-113-4-234-1-350-2-3 240-88 365-256 455L235-7c154-62 251-193 247-401-128 1-262-2-386 2v-83" id="bq"/><use transform="matrix(0.022222222222222223,0,0,0.022222222222222223,0,0)" xlink:href="#bq" id="B"/><path fill="#333" d="M456-752c22 48 82 207 99 263l-78 27c-16-57-73-212-98-264zm352 38l92 26c-42 149-87 305-184 432C613-120 465-17 324 33l-69-70c143-42 292-138 393-266 82-104 141-268 160-411zm-631 22c26 56 89 209 112 275l-79 28c-19-62-88-231-112-274" id="br"/><use transform="matrix(0.022222222222222223,0,0,0.022222222222222223,0,0)" xlink:href="#br" id="C"/><path fill="#333" d="M89-371l-58-19c23-67 39-176 46-255l55 7c-4 78-20 193-43 267zm65 447v-912h69V76h-69zm77-747l49-19c22 44 46 104 55 140l-52 26c-8-38-31-100-52-147zm215 536h360v-76H446v76zm360-207H446v75h360v-75zm71-58V-7c0 38-8 57-36 68s-72 12-143 11c-4-18-12-45-21-64 50 2 98 2 110 1 14 0 19-4 19-17v-72H446V76h-70v-476h501zM663-514h291v57H305v-57h285v-70H358v-54h232v-63H335v-57h255v-78h73v78h263v57H663v63h238v54H663v70" id="bs"/><use transform="matrix(0.022222222222222223,0,0,0.022222222222222223,0,0)" xlink:href="#bs" id="D"/><path fill="#333" d="M356-365l-38-11c16-36 38-92 49-131H172c22 42 41 98 46 132l-35 10h173zm-53-305v99h184v64H383l48 13c-18 46-38 94-55 129h99v65H303v108h159v63H303V74h-70v-203H69v-63h164v-108H59v-65h98c-6-36-23-89-42-129l49-13H45v-64h188v-99H81v-64h152v-101h70v101h146v64H303zm284 278V25c53-35 99-81 138-134-56-82-99-179-129-283h-9zm263 0H659c25 79 61 155 105 221 39-68 68-144 86-221zm21-62c22-7 39 10 59 14-21 120-61 233-121 329 46 54 99 98 158 127-16 14-39 41-51 60C861 45 812 1 768-51 730-1 685 43 634 78c-10-15-30-35-47-49v48h-68v-868h388v192c0 37-7 57-39 68-30 10-80 11-156 11-3-20-13-46-23-65 62 2 114 2 129 1 16-1 20-4 20-16v-123H587v269h284" id="bt"/><use transform="matrix(0.022222222222222223,0,0,0.022222222222222223,0,0)" xlink:href="#bt" id="E"/><g id="F"><use transform="matrix(0.022222222222222223,0,0,0.022222222222222223,0,0)" xlink:href="#bm"/><use transform="matrix(0.022222222222222223,0,0,0.022222222222222223,7.222222222222222,0)" xlink:href="#aV"/><use transform="matrix(0.022222222222222223,0,0,0.022222222222222223,20.68888888888889,0)" xlink:href="#aV"/><use transform="matrix(0.022222222222222223,0,0,0.022222222222222223,34.15555555555556,0)" xlink:href="#bf"/><use transform="matrix(0.022222222222222223,0,0,0.022222222222222223,42.53333333333334,0)" xlink:href="#aP"/><use transform="matrix(0.022222222222222223,0,0,0.022222222222222223,54.84444444444445,0)" xlink:href="#aI"/></g><path fill="#333" d="M776-604H229v475h547v-475zm84-81c-4 226-3 464 0 691h-86c0-7 1-30 1-57H229c1 26 1 50 2 57h-86c5-220 4-468 1-691 236 4 478 3 714 0" id="bu"/><use transform="matrix(0.022222222222222223,0,0,0.022222222222222223,0,0)" xlink:href="#bu" id="G"/><path fill="#333" d="M429-632h271c27 0 49-3 65-9l66 40c-8 14-18 37-23 53-27 101-88 236-177 345C540-92 420-1 233 69L160 3c184-54 309-144 400-251 78-91 139-221 159-312H382c-61 85-144 174-254 246l-69-51c172-103 270-249 314-338 10-18 25-54 31-80l92 31c-28 46-43 79-67 120zm283-145l53-23c25 36 61 96 82 137l-54 24c-20-40-54-101-81-138zm110-40l53-23c26 37 65 99 83 136l-53 24c-22-43-55-100-83-137" id="bv"/><use transform="matrix(0.022222222222222223,0,0,0.022222222222222223,0,0)" xlink:href="#bv" id="H"/><path fill="#333" d="M85-376c303-75 547-218 710-405l66 60c-69 70-165 152-268 217 3 176-6 370 6 535h-98c12-146 3-328 6-485-107 59-245 117-376 156" id="bw"/><use transform="matrix(0.022222222222222223,0,0,0.022222222222222223,0,0)" xlink:href="#bw" id="I"/><path fill="#333" d="M599-701c2 226 5 409-110 597-13-13-43-34-60-40 124-196 98-373 101-622h271v563c-7 50 25 33 57 33 14 0 17-17 19-90 14 11 38 19 56 24-7 123-31 118-127 118-59 0-72-20-72-87v-496H599zm-228 99H225c-8 29-15 58-23 86 21 102 51 184 85 250 40-93 69-206 84-336zm-38 408C490 4 677-14 963-15c-11 17-24 51-28 72-286 4-478 8-637-186C244-39 175 28 96 79 85 61 65 34 50 20c81-47 149-118 203-215-35-59-64-131-88-218-21 56-48 106-77 149-11-14-40-42-57-54 88-120 136-313 162-518l73 10c-7 54-16 108-27 159 54-1 113 2 164-2l44 9c-18 194-56 347-114 466" id="bx"/><use transform="matrix(0.022222222222222223,0,0,0.022222222222222223,0,0)" xlink:href="#bx" id="J"/><path fill="#333" d="M423-588h172v-132H423v132zm249 258v120h265v62H672v136h281v65H287v-65h308v-136H345v-62h250v-120H348v-453h572v453H672zm-77-62v-138H423v138h172zm77 0h173v-138H672v138zm0-196h173v-132H672v132zM315-173l10 66C234-68 140-33 44-4L34-71c48-15 84-26 109-35v-279H48v-68h95v-229H38v-70h273v70h-91v229h86v68h-86v251c34-13 66-26 95-39" id="by"/><use transform="matrix(0.022222222222222223,0,0,0.022222222222222223,0,0)" xlink:href="#by" id="K"/><path fill="#333" d="M136-301h126v-73H136v73zm0-194v72h126v-72H136zm324 0H329v72h131v-72zm0 194v-73H329v73h131zm263-304h212s-1 28-1 38c-11 419-22 557-54 600-38 52-99 38-188 37-2-20-10-51-21-70 48 4 92 5 111 5 17 0 26-3 36-16 23-29 35-161 45-524H720C708-269 662-51 486 81c-11-16-37-41-55-53 16-11 30-23 44-35C323 11 168 28 56 40L45-25c60-5 135-12 217-20v-86H73v-57h189v-61H75v-297h187v-63H46v-58h216v-66c-64 5-129 9-188 11-3-16-10-40-18-55 148-8 328-26 431-49l37 57c-54 12-122 21-195 29v73h212v58H329v63h194v297H329v61h196v57H329v79c65-6 133-13 200-21v5c87-118 113-279 122-467H534v-70h119c2-70 2-143 2-219h70c0 75 0 149-2 219" id="bz"/><use transform="matrix(0.022222222222222223,0,0,0.022222222222222223,0,0)" xlink:href="#bz" id="L"/><path fill="#333" d="M318-243h90v-117h-90v117zM174-360c0 41 1 76-2 117h92v-117h-90zm150-329H215c-15 37-32 72-50 104h115c15-30 32-69 44-104zm-6 163v110h90v-110h-90zm-144 0v110h90v-110h-90zm689-197H703c-21 118-69 214-192 270-8-16-26-38-40-50V-5c-5 90-58 77-168 80-3-17-14-46-24-63 52 2 97 2 110 1 14-1 19-5 19-18v-180H168C159-92 138 6 91 78 81 67 53 51 38 44c94-166 70-333 74-546-7 9-14 18-21 26-11-12-40-35-56-45 71-76 126-194 156-316l69 15c-7 25-15 50-23 74 42-2 91 4 128-3l44 28c-17 44-40 95-63 138h125v81c105-46 145-125 164-219H500v-63h432c-6 148-16 270-39 281-32 37-82 24-157 24-2-19-8-45-17-62 39 4 76 4 90 4 13 1 21 0 28-9 11-13 20-59 26-175zm96 543v64H769V71h-71v-187H488v-64h210v-123H587c-15 37-33 71-52 98-12-9-41-23-58-31 44-57 74-139 92-224l63 13c-6 27-13 54-21 80h87v-102h71v102h173v64H769v123h190" id="bA"/><use transform="matrix(0.022222222222222223,0,0,0.022222222222222223,0,0)" xlink:href="#bA" id="M"/><path fill="#333" d="M420-294l-46 60c-18-33-59-94-94-143V75h-70v-477c-38 114-88 225-139 292-8-20-27-49-39-67 67-83 135-239 168-376H55v-70h155v-214h70v214h137v70H280v88c31 35 119 144 140 171zm539-203v71H811V76h-74v-502H556c-3 153-28 352-138 498-10-15-39-39-56-49 112-148 123-349 123-498v-281l63 19c113-23 231-56 303-88l63 57c-96 40-232 72-357 94v177h402" id="bB"/><use transform="matrix(0.022222222222222223,0,0,0.022222222222222223,0,0)" xlink:href="#bB" id="N"/><path fill="#333" d="M178 0L27-543h93c39 154 83 304 113 466h5c36-159 81-311 121-466h89c41 154 85 308 123 466h4c34-159 75-312 114-466h86L629 0H519c-39-150-82-293-116-449h-5C365-294 323-150 285 0H178" id="bC"/><g id="O"><use transform="matrix(0.022222222222222223,0,0,0.022222222222222223,0,0)" xlink:href="#bC"/><use transform="matrix(0.022222222222222223,0,0,0.022222222222222223,17.822222222222223,0)" xlink:href="#aP"/><use transform="matrix(0.022222222222222223,0,0,0.022222222222222223,30.133333333333333,0)" xlink:href="#aH"/></g><path fill="#333" d="M720-571c56 0 162 2 201-5v84c-37-4-148-3-201-3 4 288-47 435-286 541l-67-63c193-68 282-179 273-478H355c1 76-2 188 4 253h-88c6-63 4-178 4-253-57 0-168 0-208 4v-87c36 8 151 8 208 7 0-60 2-152-4-201h89c-7 45-5 143-5 201h285c-1-59 2-163-5-207h90c-7 44-5 148-5 207" id="bD"/><use transform="matrix(0.022222222222222223,0,0,0.022222222222222223,0,0)" xlink:href="#bD" id="P"/><path fill="#333" d="M847-342l-34 85c-109-59-282-126-393-161 3 151-4 305 7 448h-96c13-222 2-468 6-700 0-28-2-73-8-104h98c-11 84-6 175-7 267 132 40 321 112 427 165" id="bE"/><use transform="matrix(0.022222222222222223,0,0,0.022222222222222223,0,0)" xlink:href="#bE" id="Q"/><path fill="#333" d="M444-128l-51 55c-25-38-85-113-131-167C239-127 191-17 91 65c-9-16-33-41-50-54 127-95 160-249 168-385H47v-67h165v-164H68v-66h144v-155h69v155h141v66H281v164h159v67H278c-1 19-3 39-5 58 42 42 146 159 171 188zm102-284v100h285v-100H546zm0-159v98h285v-98H546zm0-159v97h285v-97H546zM784-33c-6 45 56 19 88 26 22 0 26-15 29-132 14 12 43 23 62 28-9 183-31 170-164 170-69 0-83-22-83-92v-212h-89C609-94 558 15 388 75c-7-16-27-43-42-56 152-49 195-141 211-264h-80v-553h426v553H784v212" id="bF"/><use transform="matrix(0.022222222222222223,0,0,0.022222222222222223,0,0)" xlink:href="#bF" id="R"/><path fill="#333" d="M94-270l64 12C144-164 120-68 87-4c-12-9-42-23-58-28 33-61 54-150 65-238zm217 14l56-18c29 61 58 140 67 192l-59 20c-9-52-37-132-64-194zm-25-237l55-24c42 64 85 149 99 203l-59 28c-4-17-10-36-19-57l-86 5V78h-68v-412l-163 8-6-67c20 0 43-1 66-2 22-26 45-57 67-89-30-45-84-102-131-144l38-48c10 8 20 17 30 26 33-56 68-131 89-186l66 25c-34 67-76 147-114 201 24 24 45 48 61 69 41-63 79-128 107-182l64 28c-58 94-138 212-207 298 50-2 105-5 160-7-15-31-32-62-49-89zm650-164C923-235 904 6 863 33c-51 60-124 39-237 38-2-21-10-53-24-73 67 6 128 6 153 6 19 0 32-2 43-15 33-34 50-186 65-576H535c-28 53-60 101-93 140-14-12-47-34-65-44 77-83 141-214 178-346l75 17c-17 56-37 111-61 163h367zM712-213l-65 34c-23-61-79-160-135-233l60-29c56 70 116 165 140 228" id="bG"/><use transform="matrix(0.022222222222222223,0,0,0.022222222222222223,0,0)" xlink:href="#bG" id="S"/><path fill="#333" d="M253 0v-655H31v-78h537v78H346V0h-93" id="bH"/><path fill="#333" d="M371 13C187 13 58-134 58-369s129-378 313-378 313 143 313 378S555 13 371 13zm0-81c131 0 218-118 218-301 0-184-87-297-218-297-132 0-218 113-218 297 0 183 86 301 218 301" id="bI"/><g id="T"><use transform="matrix(0.022222222222222223,0,0,0.022222222222222223,0,0)" xlink:href="#bH"/><use transform="matrix(0.022222222222222223,0,0,0.022222222222222223,13.311111111111112,0)" xlink:href="#bI"/><use transform="matrix(0.022222222222222223,0,0,0.022222222222222223,29.800000000000008,0)" xlink:href="#aR"/></g><use transform="matrix(0.022222222222222223,0,0,0.022222222222222223,0,0)" xlink:href="#bG" id="U"/><path fill="#333" d="M871-652c36 0 66-30 66-66s-30-67-66-67c-37 0-66 31-66 67s29 66 66 66zm-741-39c200 12 425 4 634 5-22-76 35-145 107-145 62 0 112 51 112 113 0 74-71 131-150 106-22 112-70 272-151 380C590-115 471-22 288 35l-68-75c194-48 306-133 390-240 71-91 117-230 131-326-202 1-414-3-611 3v-88" id="bJ"/><use transform="matrix(0.022222222222222223,0,0,0.022222222222222223,0,0)" xlink:href="#bJ" id="V"/><path fill="#333" d="M821-517l57 36c-5 9-11 22-13 29-27 99-72 203-146 284C614-53 488 6 361 41l-62-71c230-44 420-190 471-404-210 2-423-3-628 3v-84c199 13 416 3 624 6 23 0 44-2 55-8zM231-662v-83c151 11 323 2 483 5 32 0 67-1 91-5v83c-183-5-389-4-574 0" id="bK"/><use transform="matrix(0.022222222222222223,0,0,0.022222222222222223,0,0)" xlink:href="#bK" id="W"/><path fill="#333" d="M765-779c25 35 62 96 82 137l-54 24c-20-41-54-101-81-139zm110-40c27 36 65 99 84 136l-54 24c-22-44-54-100-83-138zM64-29c133-179 215-386 252-642l89 18c-30 115-51 238-109 385-37 92-91 195-147 275zM823 5c-56-217-160-484-258-660l81-27c93 170 206 449 266 658" id="bL"/><use transform="matrix(0.022222222222222223,0,0,0.022222222222222223,0,0)" xlink:href="#bL" id="X"/><path fill="#333" d="M301-768c59 33 174 109 217 141l-47 68c-48-36-156-108-215-142zM151-54c314-48 589-259 714-482l48 82C826-319 688-190 529-96 428-38 290 9 197 28zm-1-489c60 32 176 103 220 135l-46 70c-49-36-158-106-218-137" id="bM"/><use transform="matrix(0.022222222222222223,0,0,0.022222222222222223,0,0)" xlink:href="#bM" id="Y"/><path fill="#333" d="M102-335v-98c214 10 463 3 687 5 50 0 86-3 108-5v98c-206-10-441-3-656-5-55 0-108 2-139 5" id="bN"/><use transform="matrix(0.022222222222222223,0,0,0.022222222222222223,0,0)" xlink:href="#bN" id="Z"/><path fill="#333" d="M818-803c-35 0-63 29-63 64 0 36 28 64 63 64 36 0 64-28 64-64 0-35-28-64-64-64zm0 173c-60 0-109-48-109-109 0-60 49-110 109-110 61 0 110 50 110 110 0 61-49 109-110 109zM252-401l70 34c-42 86-136 213-192 275l-69-47c66-62 152-181 191-262zm630-118c-114-4-230-1-346-2v484c11 109-140 77-228 73l-8-80c44 8 90 12 116 12 27 0 39-12 39-38v-451c-120 1-247-3-363 3v-84c112 10 243 3 363 5-1-58 4-126-7-174h94c-9 48-5 117-6 174 116-2 237 5 346-5v83zM672-364l68-36c53 64 133 189 173 261l-74 41c-39-78-114-203-167-266" id="bO"/><use transform="matrix(0.022222222222222223,0,0,0.022222222222222223,0,0)" xlink:href="#bO" id="aa"/><path fill="#333" d="M221-751h92c-5 154-4 327 0 482h-92c7-150 6-329 0-482zm463-7h92c-7 73-3 168-4 248 0 240-32 319-104 405C603-27 503 16 430 41l-65-69c92-23 178-63 240-133 72-83 84-164 84-353-1-80 3-173-5-244" id="bP"/><use transform="matrix(0.022222222222222223,0,0,0.022222222222222223,0,0)" xlink:href="#bP" id="ab"/><use transform="matrix(0.022222222222222223,0,0,0.022222222222222223,0,0)" xlink:href="#bN" id="ac"/><path fill="#333" d="M92 0v-796h91c0 111 1 223-3 330 50-50 106-91 180-91 114 0 166 74 166 213V0h-91v-332c0-102-31-145-103-145-56 0-94 28-149 83V0H92" id="bQ"/><g id="ad"><use transform="matrix(0.022222222222222223,0,0,0.022222222222222223,0,0)" xlink:href="#bQ"/><use transform="matrix(0.022222222222222223,0,0,0.022222222222222223,13.488888888888889,0)" xlink:href="#aV"/><use transform="matrix(0.022222222222222223,0,0,0.022222222222222223,26.955555555555556,0)" xlink:href="#aW"/><use transform="matrix(0.022222222222222223,0,0,0.022222222222222223,47.53333333333334,0)" xlink:href="#aP"/></g><use transform="matrix(0.022222222222222223,0,0,0.022222222222222223,0,0)" xlink:href="#aK" id="ae"/><path fill="#333" d="M442-544h90c0 271-24 454-279 581l-73-60c27-9 61-25 89-44 174-110 184-270 173-477zm440-179l49 47c-7 10-20 25-27 36-40 68-135 197-249 276l-66-53c92-54 186-162 218-224-227 3-465-7-683 6v-90c215 17 460 4 688 8 19 0 55-3 70-6" id="bR"/><use transform="matrix(0.022222222222222223,0,0,0.022222222222222223,0,0)" xlink:href="#bR" id="af"/><path fill="#333" d="M828-641l54 34c-28 114-42 237-113 360C694-115 556-13 373 37l-65-75c161-30 290-102 375-229 56-84 86-206 95-292H219c2 79-4 165 4 238h-87c5-101 5-213 0-316 97 8 211 2 314 4-1-63 3-107-5-168h96c-10 60-5 105-6 168 92-3 216 8 293-8" id="bS"/><use transform="matrix(0.022222222222222223,0,0,0.022222222222222223,0,0)" xlink:href="#bS" id="ag"/><path fill="#333" d="M706-142c73-1 155 3 219-6v91c-246-9-506-2-758-4-28 0-57 1-88 4v-91c170 13 360 3 539 6 18-107 60-375 63-445-162 2-334-4-489 4v-89c144 13 310 3 463 6 20 0 50-4 62-8l67 31c-21 105-56 376-78 501" id="bT"/><use transform="matrix(0.022222222222222223,0,0,0.022222222222222223,0,0)" xlink:href="#bT" id="ah"/><path fill="#333" d="M855-624l-49 17c-15-43-38-103-57-141l48-15c18 36 45 98 58 139zm-153 71c57 0 163 2 201-6v85c-38-4-147-3-201-3 4 287-48 434-286 541L349 0c193-67 281-178 272-477H337c1 75-2 188 4 252h-89c7-61 5-178 5-252-56-1-168 0-208 3v-86c37 8 151 8 208 7-1-59 3-155-5-201h89c-6 47-4 143-4 201h284c0-59 2-162-4-207h90c-7 44-5 148-5 207zm146-225l48-15c19 36 46 97 60 138l-49 16c-16-44-39-102-59-139" id="bU"/><use transform="matrix(0.022222222222222223,0,0,0.022222222222222223,0,0)" xlink:href="#bU" id="ai"/><path fill="#333" d="M650-160H352c27 43 52 98 63 136l-46 14h241l-32-9c25-38 54-98 72-141zM297-353v131h404v-131H297zm377 193l49 13c-24 49-51 100-75 137h285v63H69v-63h272c-10-39-34-94-58-135l56-15H226v-255h549v255H674zm202-551l56 39c-44 41-100 85-149 119 56 45 118 83 182 108-17 15-38 42-49 61-85-38-164-95-232-165v53H316v-45c-73 73-158 131-241 169-10-15-30-41-45-54 68-28 139-74 201-130-31-32-84-74-130-103l41-41c47 28 102 68 133 102 40-42 75-89 101-138H128v-63h284c25-7 40 15 61 22-32 82-81 155-139 217h339c-69-74-127-160-169-254l63-20c19 42 42 84 70 123 45-36 96-82 129-117l56 40c-46 43-103 88-151 122 21 26 44 51 68 74 49-36 104-83 137-119" id="bV"/><use transform="matrix(0.022222222222222223,0,0,0.022222222222222223,0,0)" xlink:href="#bV" id="aj"/><path fill="#333" d="M608-187l22 56C567-82 499-32 440 8l-22-39C292-3 162 24 64 46L49-23c46-7 103-18 165-30v-303H58v-65h156v-106H111v-45c-13 13-27 26-41 39-11-15-33-38-46-47 90-76 154-177 187-256h67c59 53 132 128 166 179l-49 55c-30-45-88-116-141-166-30 54-71 117-126 177h266v64H279v106h143v65H279v290l138-28 3 31c51-31 120-78 188-124zM81-290l51-13c21 60 37 137 40 188l-55 14c-2-52-17-129-36-189zm283 171l-49-13c14-48 33-127 41-180l58 15c-16 61-35 132-50 178zm244-133l-54 36c-20-38-65-96-107-136l50-32c43 39 90 94 111 132zm111-184v23c32 130 107 291 256 369-15 12-38 42-49 60-100-61-165-161-207-257V-1c0 83-54 76-146 77-3-18-12-46-21-65 38 2 72 1 83 1s14-3 14-15v-433H426v-65h381v-87H498v-60h309v-86H478v-63h397v296h82v65H719zm102 209l-46-33c37-37 88-98 116-141l58 36c-39 49-88 102-128 138" id="bW"/><use transform="matrix(0.022222222222222223,0,0,0.022222222222222223,0,0)" xlink:href="#bW" id="ak"/><path fill="#333" d="M783-697c0 36 29 66 65 66 37 0 67-30 67-66s-30-67-67-67c-36 0-65 31-65 67zm-46 0c0-62 50-113 111-113 62 0 113 51 113 113s-51 112-113 112c-61 0-111-50-111-112zM64-29c133-179 215-386 252-642l89 18c-30 115-51 238-109 385-37 92-91 195-147 275zM823 5c-56-217-160-484-258-660l81-27c93 170 206 449 266 658" id="bX"/><use transform="matrix(0.022222222222222223,0,0,0.022222222222222223,0,0)" xlink:href="#bX" id="al"/><path fill="#333" d="M749-708l51 39c-6 8-19 30-25 44-34 86-97 203-168 293 105 90 227 220 292 298l-70 61c-67-88-173-206-275-297C447-155 312-45 164 22l-64-67c262-111 480-315 578-575-161 2-340-5-491 5v-91c148 14 328 4 487 7 33 0 59-4 75-9" id="bY"/><use transform="matrix(0.022222222222222223,0,0,0.022222222222222223,0,0)" xlink:href="#bY" id="am"/><path fill="#333" d="M815-706l61 39c-4 10-11 37-13 46-18 119-39 261-111 374C671-119 534-17 373 35l-68-69c147-39 290-126 372-254 57-89 85-217 95-335H220c1 90-3 177 3 264h-91c7-109 6-233 0-344 198 7 416 1 620 3 22 0 46-2 63-6" id="bZ"/><use transform="matrix(0.022222222222222223,0,0,0.022222222222222223,0,0)" xlink:href="#bZ" id="an"/><path fill="#333" d="M871-622l-56 28c-27-52-59-105-93-150l55-26c26 35 70 102 94 148zm-124 53l-57 26c-25-52-56-107-89-152l55-25c26 37 68 104 91 151zM395-761c-9 85-5 176-6 268 132 40 321 111 427 164l-35 85c-108-59-281-125-392-160 2 150-6 305 6 447h-96c13-222 2-468 6-700 0-28-2-73-8-104h98" id="ca"/><use transform="matrix(0.022222222222222223,0,0,0.022222222222222223,0,0)" xlink:href="#ca" id="ao"/><path fill="#333" d="M547-135v104h135v-104H547zm135-222v-102H547v102h135zm0 164v-106H547v106h135zm-366 82v-304H187v304h129zm640 80v64H547v43h-70v-474c-17 17-35 32-53 47-9-12-30-33-45-47v352H187v78h-61v-322c-17 35-35 68-56 97-8-17-29-53-42-69 73-106 115-266 141-439H56v-68h351v68H239c-11 77-26 152-45 222h185v68c85-64 153-154 203-260H474v106h-65v-170h200c13-33 24-67 33-102l71 14c-9 30-18 60-28 88h266v170h-67v-106H659c-23 54-50 103-81 149h122c17-38 35-84 45-118l70 17c-16 34-33 70-48 101h158v63H752v102h157v58H752v106h157v58H752v104h204" id="cb"/><use transform="matrix(0.022222222222222223,0,0,0.022222222222222223,0,0)" xlink:href="#cb" id="ap"/><path fill="#333" d="M767-535l-37 58c-26-19-63-42-103-64-37 73-93 137-182 181-9-15-29-40-44-52 83-38 133-95 166-159-44-21-89-40-130-54l37-52c37 12 77 29 117 46 10-32 18-66 23-99H446v-64h477c-7 213-19 370-45 382-37 44-90 28-176 28-1-21-8-48-19-67 45 4 87 4 103 4 17 1 26-1 32-10 17-18 26-88 34-273H683c-7 44-17 87-31 129 45 23 86 46 115 66zM567-356l43-44c64 34 142 88 178 130l-46 49c-36-41-111-99-175-135zM365-802v60H91v-60h274zm31 131v61H42v-61h354zm-28 135v59H86v-59h282zM86-344v-60h282v60H86zm219 135H148v168h157v-168zm64-61V19H148v46H85v-335h284zm61 292l-54-35c47-50 69-137 79-219l60 15c-10 88-32 184-85 239zM651 3h93c26 0 31-14 34-114 14 13 42 23 62 29-2 180-61 150-199 150-74 0-92-20-92-94v-240h69v240c0 25 4 29 33 29zm147-229l60-24c54 73 99 170 113 238l-65 27c-13-67-57-167-108-241" id="cc"/><use transform="matrix(0.022222222222222223,0,0,0.022222222222222223,0,0)" xlink:href="#cc" id="aq"/><path fill="#333" d="M886-575c-61 101-134 232-229 331l-70-42c75-68 148-178 178-238-17 4-201 41-378 77v297c0 69 25 91 145 91 116 0 212-10 312-29l-4 86c-89 12-189 20-314 20-186 0-220-48-220-147v-302c-101 20-190 39-230 48l-16-84c45-6 140-23 246-43-2-89 5-183-7-263h95c-12 76-5 163-7 248 219-47 349-61 440-96" id="cd"/><use transform="matrix(0.022222222222222223,0,0,0.022222222222222223,0,0)" xlink:href="#cd" id="ar"/><path fill="#333" d="M483-576c17 40 66 172 79 216l-74 26c-11-45-57-172-78-217zM296 7c234-64 436-272 463-554l86 27c-36 132-72 252-157 357C596-46 474 32 362 75zm-45-533c20 43 72 174 91 226l-76 28c-15-52-69-190-89-225" id="ce"/><use transform="matrix(0.022222222222222223,0,0,0.022222222222222223,0,0)" xlink:href="#ce" id="as"/><use transform="matrix(0.022222222222222223,0,0,0.022222222222222223,0,0)" xlink:href="#bt" id="at"/><path fill="#333" d="M800-704l61 39c-7 14-11 31-15 50-22 105-70 266-149 369C606-129 487-36 303 22l-68-75c194-49 306-134 390-241 71-91 118-230 131-326-202 1-414-3-611 3v-88c190 13 403 3 602 6 15 0 34 0 53-5" id="cf"/><use transform="matrix(0.022222222222222223,0,0,0.022222222222222223,0,0)" xlink:href="#cf" id="au"/><path fill="#333" d="M442-402h87c-2 213-22 364-233 481l-71-56c22-8 46-18 69-34 150-106 163-225 148-391zm423-103c-47 65-116 183-223 261l-65-45c71-43 143-131 172-180-190 2-388-5-572 3v-83c184 15 393 3 588 7 15 0 42-2 55-5" id="cg"/><use transform="matrix(0.022222222222222223,0,0,0.022222222222222223,0,0)" xlink:href="#cg" id="av"/><path fill="#333" d="M141 24L66-26c84-60 144-149 174-246 29-92 30-291 30-402 0-30-3-52-7-73h92c-10 135-2 368-36 497-30 107-94 205-178 274zm436-1l-53-44c4-16 7-36 7-56v-599c0-38-5-66-6-74h92c-9 207-2 437-4 651 92-42 215-133 291-246l48 68C866-160 727-58 611 0c-15 8-24 15-34 23" id="ch"/><use transform="matrix(0.022222222222222223,0,0,0.022222222222222223,0,0)" xlink:href="#ch" id="aw"/><path fill="#333" d="M230-776h318c0 177 23 554 415 787-17 12-47 44-60 62C657-76 551-295 506-484 432-225 306-43 107 74 93 59 60 28 40 15c221-115 344-316 405-596l44 7c-7-46-11-90-13-128H230v-74" id="ci"/><use transform="matrix(0.022222222222222223,0,0,0.022222222222222223,0,0)" xlink:href="#ci" id="ax"/><path fill="#333" d="M383-821h80c0 56-1 109-3 159h420c-1 230 4 421-37 596C826 6 791 50 703 48c-57 0-123-4-199-11v-74c75 8 135 12 181 12 61-5 69-30 85-93 34-132 27-278 30-474H456C430-249 354-96 149 67L96 8c119-94 184-168 234-326 23-74 39-165 46-274H100v-70h279c3-65 4-118 4-159" id="cj"/><use transform="matrix(0.022222222222222223,0,0,0.022222222222222223,0,0)" xlink:href="#cj" id="ay"/><use transform="matrix(0.022222222222222223,0,0,0.022222222222222223,0,0)" xlink:href="#bA" id="az"/><path fill="#333" d="M94-270l64 12C144-164 120-68 87-4c-12-9-42-23-58-28 33-61 54-150 65-238zm217 14l56-18c29 61 58 140 67 192l-59 20c-9-52-37-132-64-194zm-25-237l55-24c42 64 85 149 99 203l-59 28c-4-17-10-36-19-58l-86 6V78h-68v-412c-60 3-115 6-163 8l-6-67c20 0 43-1 66-2 22-26 45-57 67-89-30-45-84-102-131-144l38-48c10 8 20 17 30 26 33-56 68-131 89-186l66 25c-34 67-76 147-114 201 24 24 45 48 61 69 41-63 79-128 107-182l64 28c-58 94-137 212-207 297 50-2 105-4 160-7-15-30-32-61-49-88zm549 258H547v193h288v-193zM478 75v-377h429V72h-72V25H547v50h-69zm479-703H720v150h215v67H446v-67h199v-150H415v-68h230v-141h75v141h237v68" id="ck"/><use transform="matrix(0.022222222222222223,0,0,0.022222222222222223,0,0)" xlink:href="#ck" id="aA"/><path fill="#333" d="M237-458h225v-103H237v103zm0-266v102h225v-102H237zm529 102v-102H539v102h227zm0 164v-103H539v103h227zm170 217H601c92 92 235 176 361 218-17 15-40 44-51 62-127-51-274-148-372-254V77h-77v-287C366-101 220-6 90 43 80 26 56-3 40-18c130-42 272-128 360-223H65v-69h397v-84H162v-395h683v395H539v84h397v69" id="cl"/><use transform="matrix(0.022222222222222223,0,0,0.022222222222222223,0,0)" xlink:href="#cl" id="aB"/><path fill="#333" d="M382-802v60H94v-60h288zm37 131v61H42v-61h377zM319-209H152v168h167v-168zm65-61V19H152v46H87v-335h297zM89-344v-60h296v60H89zm0-133v-59h296v59H89zm870 238v68H723V76h-72v-247H411v-68h240v-142H461v-67h190v-130H442v-69h115c-13-47-42-113-72-162l60-22c33 53 67 123 78 169l-36 15h201l-36-14c25-48 60-124 76-177l73 23c-28 57-60 123-87 168h131v69H723v130h201v67H723v142h236" id="cm"/><use transform="matrix(0.022222222222222223,0,0,0.022222222222222223,0,0)" xlink:href="#cm" id="aC"/><path fill="#333" d="M96-270l64 11C147-165 123-69 92-5c-12-9-42-23-58-28 32-61 50-150 62-237zm216 15l57-19c29 61 57 141 68 193l-60 20c-9-52-37-133-65-194zm-18-241l56-24c44 64 88 149 105 205l-60 29c-6-21-16-47-28-74l-90 8V75h-67v-420L45-330l-11-68c24-1 50-3 78-5 20-23 40-50 60-78-29-44-83-103-131-144l38-49c10 8 20 17 30 26 33-56 70-133 91-189l67 26c-35 68-79 148-117 204 24 24 45 49 61 70 43-64 83-131 112-186l62 30c-56 91-132 202-201 285l155-10c-14-27-29-54-45-78zM720-59h137v-286H720v286zM524-345v286h130v-286H524zm130-343H524v275h130v-275zm203 275v-275H720v275h137zM457-757h469V56h-69V10H524v54h-67v-821" id="cn"/><use transform="matrix(0.022222222222222223,0,0,0.022222222222222223,0,0)" xlink:href="#cn" id="aD"/></defs></g></svg>