<svg xmlns="http://www.w3.org/2000/svg" xmlns:xlink="http://www.w3.org/1999/xlink" xmlns:lucid="lucid" width="2020" height="838.9"><g transform="translate(-80 -80)" lucid:page-tab-id="0_0"><path d="M0 0h3677.73v1322.83H0z" fill="#fff"/><path d="M100 100h94.7v60H100z" fill="none"/><use xlink:href="#a" transform="matrix(1,0,0,1,100,100) translate(6.633333333333333 39.33333333333333)"/><path d="M1900 295h180v70h-180z" stroke="#666" fill="#a5a7aa"/><use xlink:href="#b" transform="matrix(1,0,0,1,1920,295) translate(15.205555555555563 21.04444444444444)"/><use xlink:href="#c" transform="matrix(1,0,0,1,1920,295) translate(76.47716049382717 21.04444444444444)"/><use xlink:href="#d" transform="matrix(1,0,0,1,1920,295) translate(70 39.71111111111111)"/><use xlink:href="#e" transform="matrix(1,0,0,1,1920,295) translate(48.41666666666667 58.37777777777778)"/><use xlink:href="#f" transform="matrix(1,0,0,1,1920,295) translate(86.44135802469137 58.37777777777778)"/><path d="M586 256.5c7.73 0 14 6.27 14 14v112c0 7.74-6.27 14-14 14H414c-7.73 0-14-6.26-14-14v-112c0-7.73 6.27-14 14-14z" stroke="#666" fill="#259b9c"/><path d="M400 304.5h200" stroke="#666" fill="none"/><use xlink:href="#g" transform="matrix(1,0,0,1,420,256.50673911190506) translate(8.677777777777777 28.711111111111112)"/><use xlink:href="#h" transform="matrix(1,0,0,1,420,256.50673911190506) translate(23.282716049382717 28.711111111111112)"/><use xlink:href="#i" transform="matrix(1,0,0,1,420,256.50673911190506) translate(37.88765432098766 28.711111111111112)"/><use xlink:href="#j" transform="matrix(1,0,0,1,420,256.50673911190506) translate(52.4925925925926 28.711111111111112)"/><use xlink:href="#k" transform="matrix(1,0,0,1,420,256.50673911190506) translate(67.09753086419754 28.711111111111112)"/><use xlink:href="#l" transform="matrix(1,0,0,1,420,256.50673911190506) translate(81.70246913580247 28.711111111111112)"/><use xlink:href="#m" transform="matrix(1,0,0,1,420,256.50673911190506) translate(96.30740740740741 28.711111111111112)"/><use xlink:href="#n" transform="matrix(1,0,0,1,420,256.50673911190506) translate(110.91234567901235 28.711111111111112)"/><use xlink:href="#o" transform="matrix(1,0,0,1,420,256.50673911190506) translate(125.51728395061728 28.711111111111112)"/><use xlink:href="#p" transform="matrix(1,0,0,1,420,314.50673911190506) translate(39.85370370370371 15.644444444444446)"/><use xlink:href="#q" transform="matrix(1,0,0,1,420,314.50673911190506) translate(100.30432098765434 15.644444444444446)"/><use xlink:href="#r" transform="matrix(1,0,0,1,420,314.50673911190506) translate(80.00000000000001 34.31111111111112)"/><use xlink:href="#s" transform="matrix(1,0,0,1,420,314.50673911190506) translate(66.62654320987654 52.97777777777779)"/><use xlink:href="#t" transform="matrix(1,0,0,1,420,314.50673911190506) translate(88.2314814814815 52.97777777777779)"/><use xlink:href="#u" transform="matrix(1,0,0,1,420,314.50673911190506) translate(44.13580246913581 71.64444444444446)"/><use xlink:href="#v" transform="matrix(1,0,0,1,420,314.50673911190506) translate(77.8395061728395 71.64444444444446)"/><path d="M886 256.5c7.73 0 14 6.27 14 14v112c0 7.74-6.27 14-14 14H714c-7.73 0-14-6.26-14-14v-112c0-7.73 6.27-14 14-14z" stroke="#666" fill="#58d6d7"/><path d="M700 304.5h200" stroke="#666" fill="none"/><use xlink:href="#g" transform="matrix(1,0,0,1,720,256.50673911190506) translate(8.202469135802474 28.711111111111112)"/><use xlink:href="#h" transform="matrix(1,0,0,1,720,256.50673911190506) translate(22.807407407407414 28.711111111111112)"/><use xlink:href="#i" transform="matrix(1,0,0,1,720,256.50673911190506) translate(37.412345679012354 28.711111111111112)"/><use xlink:href="#j" transform="matrix(1,0,0,1,720,256.50673911190506) translate(52.0172839506173 28.711111111111112)"/><use xlink:href="#k" transform="matrix(1,0,0,1,720,256.50673911190506) translate(66.62222222222223 28.711111111111112)"/><use xlink:href="#l" transform="matrix(1,0,0,1,720,256.50673911190506) translate(81.22716049382717 28.711111111111112)"/><use xlink:href="#m" transform="matrix(1,0,0,1,720,256.50673911190506) translate(95.83209876543211 28.711111111111112)"/><use xlink:href="#w" transform="matrix(1,0,0,1,720,256.50673911190506) translate(110.43703703703704 28.711111111111112)"/><use xlink:href="#x" transform="matrix(1,0,0,1,720,256.50673911190506) translate(125.04197530864198 28.711111111111112)"/><use xlink:href="#p" transform="matrix(1,0,0,1,720,314.50673911190506) translate(39.85370370370371 15.644444444444446)"/><use xlink:href="#y" transform="matrix(1,0,0,1,720,314.50673911190506) translate(100.30432098765434 15.644444444444446)"/><use xlink:href="#r" transform="matrix(1,0,0,1,720,314.50673911190506) translate(80.00000000000001 34.31111111111112)"/><use xlink:href="#s" transform="matrix(1,0,0,1,720,314.50673911190506) translate(27.348765432098762 52.97777777777779)"/><use xlink:href="#z" transform="matrix(1,0,0,1,720,314.50673911190506) translate(48.9537037037037 52.97777777777779)"/><use xlink:href="#A" transform="matrix(1,0,0,1,720,314.50673911190506) translate(94.62654320987656 52.97777777777779)"/><use xlink:href="#u" transform="matrix(1,0,0,1,720,314.50673911190506) translate(60.577160493827165 71.64444444444446)"/><use xlink:href="#B" transform="matrix(1,0,0,1,720,314.50673911190506) translate(94.28086419753086 71.64444444444446)"/><path d="M1186 260c7.73 0 14 6.27 14 14v112c0 7.73-6.27 14-14 14h-172c-7.73 0-14-6.27-14-14V274c0-7.73 6.27-14 14-14z" stroke="#666" fill="#afebeb"/><path d="M1000 308h200" stroke="#666" fill="none"/><use xlink:href="#C" transform="matrix(1,0,0,1,1020,260) translate(1.3753086419753089 19.377777777777776)"/><use xlink:href="#D" transform="matrix(1,0,0,1,1020,260) translate(15.980246913580249 19.377777777777776)"/><use xlink:href="#E" transform="matrix(1,0,0,1,1020,260) translate(30.58518518518519 19.377777777777776)"/><use xlink:href="#F" transform="matrix(1,0,0,1,1020,260) translate(45.19012345679013 19.377777777777776)"/><use xlink:href="#G" transform="matrix(1,0,0,1,1020,260) translate(59.79506172839507 19.377777777777776)"/><use xlink:href="#H" transform="matrix(1,0,0,1,1020,260) translate(74.4 19.377777777777776)"/><use xlink:href="#I" transform="matrix(1,0,0,1,1020,260) translate(89.00493827160494 19.377777777777776)"/><use xlink:href="#J" transform="matrix(1,0,0,1,1020,260) translate(103.60987654320988 19.377777777777776)"/><use xlink:href="#K" transform="matrix(1,0,0,1,1020,260) translate(118.21481481481482 19.377777777777776)"/><use xlink:href="#L" transform="matrix(1,0,0,1,1020,260) translate(132.81975308641978 19.377777777777776)"/><use xlink:href="#M" transform="matrix(1,0,0,1,1020,260) translate(36.18518518518519 38.04444444444445)"/><use xlink:href="#N" transform="matrix(1,0,0,1,1020,260) translate(50.790123456790134 38.04444444444445)"/><use xlink:href="#F" transform="matrix(1,0,0,1,1020,260) translate(65.39506172839506 38.04444444444445)"/><use xlink:href="#O" transform="matrix(1,0,0,1,1020,260) translate(80 38.04444444444445)"/><use xlink:href="#P" transform="matrix(1,0,0,1,1020,260) translate(94.60493827160494 38.04444444444445)"/><use xlink:href="#Q" transform="matrix(1,0,0,1,1020,260) translate(109.20987654320987 38.04444444444445)"/><use xlink:href="#R" transform="matrix(1,0,0,1,1020,318) translate(39.85370370370371 15.644444444444446)"/><use xlink:href="#S" transform="matrix(1,0,0,1,1020,318) translate(100.30432098765434 15.644444444444446)"/><use xlink:href="#T" transform="matrix(1,0,0,1,1020,318) translate(80.00000000000001 34.31111111111112)"/><use xlink:href="#U" transform="matrix(1,0,0,1,1020,318) translate(37.76234567901234 52.97777777777779)"/><use xlink:href="#V" transform="matrix(1,0,0,1,1020,318) translate(59.367283950617285 52.97777777777779)"/><use xlink:href="#W" transform="matrix(1,0,0,1,1020,318) translate(105.04012345679013 52.97777777777779)"/><use xlink:href="#X" transform="matrix(1,0,0,1,1020,318) translate(60.577160493827165 71.64444444444446)"/><use xlink:href="#Y" transform="matrix(1,0,0,1,1020,318) translate(94.28086419753086 71.64444444444446)"/><path d="M614.63 327H601v-1h13.63zm68.5 0h-13.06v-1h13.05z" stroke="#666" stroke-width=".05" fill="#666"/><path d="M601 327h-.5v-1h.5z" fill="#666"/><path d="M601.04 327.03h-.56v-1.05h.56zm-.5-1v.95h.45v-.95z" stroke="#666" stroke-width=".05" fill="#666"/><path d="M697.88 326.5l-14.26 4.64v-9.27z" fill="#666"/><path d="M699.5 326.5l-16.38 5.33v-10.65zm-15.38 3.95l12.14-3.94-12.14-3.94z" stroke="#666" stroke-width=".05" fill="#666"/><use xlink:href="#Z" transform="matrix(1,0,0,1,614.6304569252541,318.50673911190506) translate(0 10.666666666666668)"/><use xlink:href="#aa" transform="matrix(1,0,0,1,614.6304569252541,318.50673911190506) translate(31.814814814814817 10.666666666666668)"/><path d="M983.12 329.5v1h-13.18v-1zM901 327v-1h13.5v1z" stroke="#666" stroke-width=".05" fill="#666"/><path d="M901 327h-.5v-1h.5z" fill="#666"/><path d="M901.04 327.03h-.56v-1.05h.56zm-.5-1v.95h.45v-.95z" stroke="#666" stroke-width=".05" fill="#666"/><path d="M997.88 330l-14.26 4.64v-9.28z" fill="#666"/><path d="M999.5 330l-16.38 5.32v-10.64zm-15.38 3.95l12.14-3.95-12.14-3.95z" stroke="#666" stroke-width=".05" fill="#666"/><use xlink:href="#Z" transform="matrix(1,0,0,1,914.4995436180403,318.50673911190506) translate(0 10.666666666666668)"/><use xlink:href="#aa" transform="matrix(1,0,0,1,914.4995436180403,318.50673911190506) translate(31.814814814814817 10.666666666666668)"/><path d="M1100.5 259h-1v-20.75h1zm0-36.75h-1v-4.87h1z" stroke="#666" stroke-width=".05" fill="#666"/><path d="M1100.5 259.5h-1v-.5h1z" fill="#666"/><path d="M1100.53 259.52h-1.06v-.56h1.06zm-1-.5v.46h.94V259z" stroke="#666" stroke-width=".05" fill="#666"/><path d="M1104.64 216.88h-9.28l4.64-14.26z" fill="#666"/><path d="M1105.32 217.38h-10.64L1100 201zm-9.27-1h7.9l-3.95-12.14z" stroke="#666" stroke-width=".05" fill="#666"/><use xlink:href="#Z" transform="matrix(1,0,0,1,1072.2777777777778,222.25) translate(0 10.666666666666668)"/><use xlink:href="#aa" transform="matrix(1,0,0,1,1072.2777777777778,222.25) translate(31.814814814814817 10.666666666666668)"/><path d="M1201.5 330H1881" stroke="#5e5e5e" stroke-width="2" fill="none"/><path d="M1201.53 331h-1.03v-2h1.03z" stroke="#5e5e5e" stroke-width=".05" fill="#5e5e5e"/><path d="M1896.26 330l-14.26 4.64v-9.28z" stroke="#5e5e5e" stroke-width="2" fill="#5e5e5e"/><path d="M100 600h80v60h-80z" fill="none"/><use xlink:href="#ab" transform="matrix(1,0,0,1,100,600) translate(5.033333333333331 39.33333333333333)"/><path d="M1900 695h180v70h-180z" stroke="#666" fill="#a5a7aa"/><use xlink:href="#ac" transform="matrix(1,0,0,1,1920,695) translate(15.205555555555563 39.71111111111111)"/><use xlink:href="#ad" transform="matrix(1,0,0,1,1920,695) translate(76.47716049382717 39.71111111111111)"/><path d="M606 656.3c7.73 0 14 6.27 14 14v112c0 7.74-6.27 14-14 14H414c-7.73 0-14-6.26-14-14v-112c0-7.73 6.27-14 14-14z" stroke="#666" fill="#259b9c"/><path d="M400 704.3h220" stroke="#666" fill="none"/><use xlink:href="#ae" transform="matrix(1,0,0,1,422,656.3057148848659) translate(23.980246913580253 28.711111111111112)"/><use xlink:href="#af" transform="matrix(1,0,0,1,422,656.3057148848659) translate(38.585185185185196 28.711111111111112)"/><use xlink:href="#ag" transform="matrix(1,0,0,1,422,656.3057148848659) translate(53.19012345679013 28.711111111111112)"/><use xlink:href="#ah" transform="matrix(1,0,0,1,422,656.3057148848659) translate(67.79506172839507 28.711111111111112)"/><use xlink:href="#ai" transform="matrix(1,0,0,1,422,656.3057148848659) translate(82.4 28.711111111111112)"/><use xlink:href="#m" transform="matrix(1,0,0,1,422,656.3057148848659) translate(97.00493827160494 28.711111111111112)"/><use xlink:href="#aj" transform="matrix(1,0,0,1,422,656.3057148848659) translate(111.60987654320988 28.711111111111112)"/><use xlink:href="#ak" transform="matrix(1,0,0,1,422,656.3057148848659) translate(126.21481481481482 28.711111111111112)"/><use xlink:href="#p" transform="matrix(1,0,0,1,422,714.3057148848659) translate(47.85370370370371 15.644444444444446)"/><use xlink:href="#q" transform="matrix(1,0,0,1,422,714.3057148848659) translate(108.30432098765434 15.644444444444446)"/><use xlink:href="#r" transform="matrix(1,0,0,1,422,714.3057148848659) translate(88.00000000000001 34.31111111111112)"/><use xlink:href="#s" transform="matrix(1,0,0,1,422,714.3057148848659) translate(14.219135802469136 52.97777777777779)"/><use xlink:href="#al" transform="matrix(1,0,0,1,422,714.3057148848659) translate(35.824074074074076 52.97777777777779)"/><use xlink:href="#am" transform="matrix(1,0,0,1,422,714.3057148848659) translate(110.92283950617285 52.97777777777779)"/><use xlink:href="#u" transform="matrix(1,0,0,1,422,714.3057148848659) translate(68.57716049382717 71.64444444444446)"/><use xlink:href="#an" transform="matrix(1,0,0,1,422,714.3057148848659) translate(102.28086419753086 71.64444444444446)"/><path d="M886 656.3c7.73 0 14 6.27 14 14v112c0 7.74-6.27 14-14 14H714c-7.73 0-14-6.26-14-14v-112c0-7.73 6.27-14 14-14z" stroke="#666" fill="#58d6d7"/><path d="M700 704.3h200" stroke="#666" fill="none"/><use xlink:href="#g" transform="matrix(1,0,0,1,720,656.3057148848659) translate(8.677777777777777 28.711111111111112)"/><use xlink:href="#h" transform="matrix(1,0,0,1,720,656.3057148848659) translate(23.282716049382717 28.711111111111112)"/><use xlink:href="#i" transform="matrix(1,0,0,1,720,656.3057148848659) translate(37.88765432098766 28.711111111111112)"/><use xlink:href="#j" transform="matrix(1,0,0,1,720,656.3057148848659) translate(52.4925925925926 28.711111111111112)"/><use xlink:href="#k" transform="matrix(1,0,0,1,720,656.3057148848659) translate(67.09753086419754 28.711111111111112)"/><use xlink:href="#l" transform="matrix(1,0,0,1,720,656.3057148848659) translate(81.70246913580247 28.711111111111112)"/><use xlink:href="#m" transform="matrix(1,0,0,1,720,656.3057148848659) translate(96.30740740740741 28.711111111111112)"/><use xlink:href="#ao" transform="matrix(1,0,0,1,720,656.3057148848659) translate(110.91234567901235 28.711111111111112)"/><use xlink:href="#ap" transform="matrix(1,0,0,1,720,656.3057148848659) translate(125.51728395061728 28.711111111111112)"/><use xlink:href="#p" transform="matrix(1,0,0,1,720,714.3057148848659) translate(39.85370370370371 15.644444444444446)"/><use xlink:href="#y" transform="matrix(1,0,0,1,720,714.3057148848659) translate(100.30432098765434 15.644444444444446)"/><use xlink:href="#r" transform="matrix(1,0,0,1,720,714.3057148848659) translate(80.00000000000001 34.31111111111112)"/><use xlink:href="#s" transform="matrix(1,0,0,1,720,714.3057148848659) translate(50.18518518518519 52.97777777777779)"/><use xlink:href="#aq" transform="matrix(1,0,0,1,720,714.3057148848659) translate(71.79012345679013 52.97777777777779)"/><use xlink:href="#u" transform="matrix(1,0,0,1,720,714.3057148848659) translate(21.299382716049376 71.64444444444446)"/><use xlink:href="#z" transform="matrix(1,0,0,1,720,714.3057148848659) translate(55.003086419753075 71.64444444444446)"/><use xlink:href="#ar" transform="matrix(1,0,0,1,720,714.3057148848659) translate(100.67592592592592 71.64444444444446)"/><path d="M1186 656.3c7.73 0 14 6.27 14 14v112c0 7.74-6.27 14-14 14h-172c-7.73 0-14-6.26-14-14v-112c0-7.73 6.27-14 14-14z" stroke="#666" fill="#afebeb"/><path d="M1000 704.3h200" stroke="#666" fill="none"/><use xlink:href="#C" transform="matrix(1,0,0,1,1020,656.3057148848659) translate(8.202469135802474 28.711111111111112)"/><use xlink:href="#D" transform="matrix(1,0,0,1,1020,656.3057148848659) translate(22.807407407407414 28.711111111111112)"/><use xlink:href="#E" transform="matrix(1,0,0,1,1020,656.3057148848659) translate(37.412345679012354 28.711111111111112)"/><use xlink:href="#F" transform="matrix(1,0,0,1,1020,656.3057148848659) translate(52.0172839506173 28.711111111111112)"/><use xlink:href="#G" transform="matrix(1,0,0,1,1020,656.3057148848659) translate(66.62222222222223 28.711111111111112)"/><use xlink:href="#M" transform="matrix(1,0,0,1,1020,656.3057148848659) translate(81.22716049382717 28.711111111111112)"/><use xlink:href="#as" transform="matrix(1,0,0,1,1020,656.3057148848659) translate(95.83209876543211 28.711111111111112)"/><use xlink:href="#at" transform="matrix(1,0,0,1,1020,656.3057148848659) translate(110.43703703703704 28.711111111111112)"/><use xlink:href="#au" transform="matrix(1,0,0,1,1020,656.3057148848659) translate(125.9925925925926 28.711111111111112)"/><g><use xlink:href="#R" transform="matrix(1,0,0,1,1020,714.3057148848659) translate(39.85370370370371 15.644444444444446)"/><use xlink:href="#S" transform="matrix(1,0,0,1,1020,714.3057148848659) translate(100.30432098765434 15.644444444444446)"/><use xlink:href="#T" transform="matrix(1,0,0,1,1020,714.3057148848659) translate(80.00000000000001 34.31111111111112)"/><use xlink:href="#U" transform="matrix(1,0,0,1,1020,714.3057148848659) translate(50.6820987654321 52.97777777777779)"/><use xlink:href="#av" transform="matrix(1,0,0,1,1020,714.3057148848659) translate(72.28703703703704 52.97777777777779)"/><use xlink:href="#X" transform="matrix(1,0,0,1,1020,714.3057148848659) translate(60.577160493827165 71.64444444444446)"/><use xlink:href="#Y" transform="matrix(1,0,0,1,1020,714.3057148848659) translate(94.28086419753086 71.64444444444446)"/></g><path d="M1786 660c7.73 0 14 6.27 14 14v112c0 7.73-6.27 14-14 14h-172c-7.73 0-14-6.27-14-14V674c0-7.73 6.27-14 14-14z" stroke="#666" fill="#e3fae3"/><path d="M1600 708h200" stroke="#666" fill="none"/><g><use xlink:href="#aw" transform="matrix(1,0,0,1,1620,660) translate(15.504938271604942 28.711111111111112)"/><use xlink:href="#ax" transform="matrix(1,0,0,1,1620,660) translate(30.109876543209882 28.711111111111112)"/><use xlink:href="#ay" transform="matrix(1,0,0,1,1620,660) translate(44.71481481481482 28.711111111111112)"/><use xlink:href="#az" transform="matrix(1,0,0,1,1620,660) translate(59.319753086419766 28.711111111111112)"/><use xlink:href="#aA" transform="matrix(1,0,0,1,1620,660) translate(73.9246913580247 28.711111111111112)"/><use xlink:href="#M" transform="matrix(1,0,0,1,1620,660) translate(88.52962962962964 28.711111111111112)"/><use xlink:href="#aB" transform="matrix(1,0,0,1,1620,660) translate(103.13456790123458 28.711111111111112)"/><use xlink:href="#aC" transform="matrix(1,0,0,1,1620,660) translate(117.73950617283951 28.711111111111112)"/></g><g><use xlink:href="#aD" transform="matrix(1,0,0,1,1620,718) translate(39.85370370370371 15.644444444444446)"/><use xlink:href="#aE" transform="matrix(1,0,0,1,1620,718) translate(100.30432098765434 15.644444444444446)"/><use xlink:href="#aF" transform="matrix(1,0,0,1,1620,718) translate(80.00000000000001 34.31111111111112)"/><use xlink:href="#aG" transform="matrix(1,0,0,1,1620,718) translate(16.97839506172839 52.97777777777779)"/><use xlink:href="#aH" transform="matrix(1,0,0,1,1620,718) translate(38.58333333333333 52.97777777777779)"/><use xlink:href="#aI" transform="matrix(1,0,0,1,1620,718) translate(76.56481481481481 52.97777777777779)"/><use xlink:href="#aJ" transform="matrix(1,0,0,1,1620,718) translate(60.577160493827165 71.64444444444446)"/><use xlink:href="#aK" transform="matrix(1,0,0,1,1620,718) translate(94.28086419753086 71.64444444444446)"/></g><path d="M1801.5 730h79.5" stroke="#5e5e5e" stroke-width="2" fill="none"/><path d="M1801.53 731h-1.03v-2h1.03z" stroke="#5e5e5e" stroke-width=".05" fill="#5e5e5e"/><path d="M1896.26 730l-14.26 4.64v-9.28z" stroke="#5e5e5e" stroke-width="2" fill="#5e5e5e"/><path d="M100 291.5h180v70H100z" stroke="#666" fill="#a5a7aa"/><g><use xlink:href="#ac" transform="matrix(1,0,0,1,120,291.50673911190506) translate(15.205555555555563 21.04444444444444)"/><use xlink:href="#aL" transform="matrix(1,0,0,1,120,291.50673911190506) translate(76.47716049382717 21.04444444444444)"/><use xlink:href="#r" transform="matrix(1,0,0,1,120,291.50673911190506) translate(70 39.71111111111111)"/><use xlink:href="#s" transform="matrix(1,0,0,1,120,291.50673911190506) translate(40.6820987654321 58.37777777777778)"/><use xlink:href="#aM" transform="matrix(1,0,0,1,120,291.50673911190506) translate(62.28703703703704 58.37777777777778)"/></g><path d="M281.5 326.5H381" stroke="#5e5e5e" stroke-width="2" fill="none"/><path d="M281.53 327.5h-1.03v-2h1.03z" stroke="#5e5e5e" stroke-width=".05" fill="#5e5e5e"/><path d="M396.26 326.5L382 331.15v-9.27z" stroke="#5e5e5e" stroke-width="2" fill="#5e5e5e"/><path d="M680 436.4h240v60H680z" fill="#eff0f0"/><path d="M920 436.4H680v60h240M728 436.4v60" stroke="#666" fill="none"/><g><use xlink:href="#aN" transform="matrix(1,0,0,1,692,448.4062269983855) translate(0.8043209876543207 22.711111111111112)"/></g><g><use xlink:href="#aO" transform="matrix(1,0,0,1,740,448.4062269983855) translate(42.57901234567902 22.711111111111112)"/><use xlink:href="#aP" transform="matrix(1,0,0,1,740,448.4062269983855) translate(79.69629629629631 22.711111111111112)"/></g><path d="M800.5 408.46h-1V397.5h1z" stroke="#666" stroke-width=".05" fill="#666"/><path d="M800 434.3l-3.2-9.84h6.4z" fill="#666"/><path d="M800 435.9l-3.72-11.44h1.05l2.67 8.2 2.67-8.2h1.05z" stroke="#666" stroke-width=".05" fill="#666"/><path d="M800.5 397.52h-1v-.5h1z" fill="#666"/><path d="M800.52 397.54h-1.04v-.56h1.04zm-1-.5v.45h.96v-.47z" stroke="#666" stroke-width=".05" fill="#666"/><g><use xlink:href="#Z" transform="matrix(1,0,0,1,772.2777777777778,408.45648305514527) translate(0 10.666666666666668)"/><use xlink:href="#aa" transform="matrix(1,0,0,1,772.2777777777778,408.45648305514527) translate(31.814814814814817 10.666666666666668)"/></g><path d="M1010 140h180v60h-180zm18 0v60m144-60v60" stroke="#282c33" stroke-width="2" fill="#edf5ff"/><g><use xlink:href="#aQ" transform="matrix(1,0,0,1,1032.5,140) translate(19.46444444444448 36.53333333333333)"/><use xlink:href="#aR" transform="matrix(1,0,0,1,1032.5,140) translate(91.70444444444442 36.53333333333333)"/></g><path d="M100.5 691.3H320v70H100.5z" stroke="#666" fill="#a5a7aa"/><g><use xlink:href="#b" transform="matrix(1,0,0,1,120.5,691.3057148848659) translate(35.20555555555556 21.04444444444444)"/><use xlink:href="#c" transform="matrix(1,0,0,1,120.5,691.3057148848659) translate(96.47716049382717 21.04444444444444)"/><use xlink:href="#d" transform="matrix(1,0,0,1,120.5,691.3057148848659) translate(90.00000000000001 39.71111111111111)"/><use xlink:href="#aS" transform="matrix(1,0,0,1,120.5,691.3057148848659) translate(16.219135802469136 58.37777777777778)"/><use xlink:href="#aT" transform="matrix(1,0,0,1,120.5,691.3057148848659) translate(37.824074074074076 58.37777777777778)"/><use xlink:href="#aU" transform="matrix(1,0,0,1,120.5,691.3057148848659) translate(112.92283950617285 58.37777777777778)"/></g><path d="M321.5 726.3h60" stroke="#5e5e5e" stroke-width="2" fill="none"/><path d="M321.53 727.3h-1.03v-2h1.03z" stroke="#5e5e5e" stroke-width=".05" fill="#5e5e5e"/><path d="M396.76 726.3l-14.26 4.64v-9.27z" stroke="#5e5e5e" stroke-width="2" fill="#5e5e5e"/><path d="M680 835.7h240v60H680z" fill="#eff0f0"/><path d="M920 835.7H680v60h240M728 835.7v60" stroke="#666" fill="none"/><g><use xlink:href="#aN" transform="matrix(1,0,0,1,692,847.7052027713464) translate(0.8043209876543207 22.711111111111112)"/></g><g><use xlink:href="#aO" transform="matrix(1,0,0,1,740,847.7052027713464) translate(42.57901234567902 22.711111111111112)"/><use xlink:href="#aP" transform="matrix(1,0,0,1,740,847.7052027713464) translate(79.69629629629631 22.711111111111112)"/></g><path d="M800.5 834.7h-1V824h1z" stroke="#666" stroke-width=".05" fill="#666"/><path d="M800.5 835.2h-1v-.5h1z" fill="#666"/><path d="M800.52 835.23h-1.04v-.56h1.04zm-1-.5v.45h.96v-.46z" stroke="#666" stroke-width=".05" fill="#666"/><path d="M803.1 808h-6.2l3.1-9.58z" fill="#666"/><path d="M803.64 808h-1.05l-2.6-7.96-2.6 7.97h-1.04l3.64-11.2z" stroke="#666" stroke-width=".05" fill="#666"/><g><use xlink:href="#Z" transform="matrix(1,0,0,1,772.2777777777778,808.0054588281062) translate(0 10.666666666666668)"/><use xlink:href="#aa" transform="matrix(1,0,0,1,772.2777777777778,808.0054588281062) translate(31.814814814814817 10.666666666666668)"/></g><path d="M1486 656.3c7.73 0 14 6.27 14 14v112c0 7.74-6.27 14-14 14h-172c-7.73 0-14-6.26-14-14v-112c0-7.73 6.27-14 14-14z" stroke="#666" fill="#d7faf5"/><path d="M1300 704.3h200" stroke="#666" fill="none"/><g><use xlink:href="#aV" transform="matrix(1,0,0,1,1320,656.3057148848659) translate(0.9000000000000057 28.711111111111112)"/><use xlink:href="#aW" transform="matrix(1,0,0,1,1320,656.3057148848659) translate(15.504938271604946 28.711111111111112)"/><use xlink:href="#aX" transform="matrix(1,0,0,1,1320,656.3057148848659) translate(30.109876543209886 28.711111111111112)"/><use xlink:href="#aY" transform="matrix(1,0,0,1,1320,656.3057148848659) translate(44.71481481481483 28.711111111111112)"/><use xlink:href="#aZ" transform="matrix(1,0,0,1,1320,656.3057148848659) translate(59.319753086419766 28.711111111111112)"/><use xlink:href="#ba" transform="matrix(1,0,0,1,1320,656.3057148848659) translate(73.9246913580247 28.711111111111112)"/><use xlink:href="#bb" transform="matrix(1,0,0,1,1320,656.3057148848659) translate(88.52962962962964 28.711111111111112)"/><use xlink:href="#bc" transform="matrix(1,0,0,1,1320,656.3057148848659) translate(104.0851851851852 28.711111111111112)"/><use xlink:href="#bd" transform="matrix(1,0,0,1,1320,656.3057148848659) translate(118.69012345679013 28.711111111111112)"/><use xlink:href="#be" transform="matrix(1,0,0,1,1320,656.3057148848659) translate(133.29506172839507 28.711111111111112)"/></g><g><use xlink:href="#aD" transform="matrix(1,0,0,1,1320,714.3057148848659) translate(39.85370370370371 15.644444444444446)"/><use xlink:href="#bf" transform="matrix(1,0,0,1,1320,714.3057148848659) translate(100.30432098765434 15.644444444444446)"/><use xlink:href="#aF" transform="matrix(1,0,0,1,1320,714.3057148848659) translate(80.00000000000001 34.31111111111112)"/><use xlink:href="#aG" transform="matrix(1,0,0,1,1320,714.3057148848659) translate(50.6820987654321 52.97777777777779)"/><use xlink:href="#bg" transform="matrix(1,0,0,1,1320,714.3057148848659) translate(72.28703703703704 52.97777777777779)"/><use xlink:href="#aJ" transform="matrix(1,0,0,1,1320,714.3057148848659) translate(48.046296296296305 71.64444444444446)"/><use xlink:href="#bh" transform="matrix(1,0,0,1,1320,714.3057148848659) translate(81.75 71.64444444444446)"/></g><path d="M626.18 729.78H621v-1h5.18zm56.94 0h-1.5v-1h1.5z" stroke="#666" stroke-width=".05" fill="#666"/><path d="M621 729.78h-.5v-1h.5z" fill="#666"/><path d="M621.04 729.8h-.56v-1.05h.56zm-.5-1v.95h.45v-.95z" stroke="#666" stroke-width=".05" fill="#666"/><path d="M697.88 729.28l-14.26 4.63v-9.26z" fill="#666"/><path d="M699.5 729.28l-16.38 5.32v-10.65zm-15.38 3.94l12.14-3.94-12.14-3.95z" stroke="#666" stroke-width=".05" fill="#666"/><g><use xlink:href="#bi" transform="matrix(1,0,0,1,626.1753702287942,721.2762979212366) translate(0 10.666666666666668)"/><use xlink:href="#bj" transform="matrix(1,0,0,1,626.1753702287942,721.2762979212366) translate(31.814814814814817 10.666666666666668)"/></g><path d="M914.63 723.85H901v-1h13.63zm68.5 0h-13.06v-1h13.05z" stroke="#666" stroke-width=".05" fill="#666"/><path d="M901 723.85h-.5v-1h.5z" fill="#666"/><path d="M901.04 723.87h-.56v-1.05h.56zm-.5-1v.95h.45v-.95z" stroke="#666" stroke-width=".05" fill="#666"/><path d="M997.88 723.35l-14.26 4.63v-9.27z" fill="#666"/><path d="M999.5 723.35l-16.38 5.32v-10.65zm-15.38 3.94l12.14-3.95-12.14-3.95z" stroke="#666" stroke-width=".05" fill="#666"/><g><use xlink:href="#bi" transform="matrix(1,0,0,1,914.6304569252541,715.347222328381) translate(0 10.666666666666668)"/><use xlink:href="#bj" transform="matrix(1,0,0,1,914.6304569252541,715.347222328381) translate(31.814814814814817 10.666666666666668)"/></g><path d="M1214.63 723.85H1201v-1h13.63zm68.5 0h-13.06v-1h13.05z" stroke="#666" stroke-width=".05" fill="#666"/><path d="M1201 723.85h-.5v-1h.5z" fill="#666"/><path d="M1201.04 723.87h-.57v-1.05h.57zm-.5-1v.95h.45v-.95z" stroke="#666" stroke-width=".05" fill="#666"/><path d="M1297.88 723.35l-14.26 4.63v-9.27z" fill="#666"/><path d="M1299.5 723.35l-16.38 5.32v-10.65zm-15.38 3.94l12.14-3.95-12.14-3.95z" stroke="#666" stroke-width=".05" fill="#666"/><g><use xlink:href="#bi" transform="matrix(1,0,0,1,1214.630456925254,715.347222328381) translate(0 10.666666666666668)"/><use xlink:href="#bj" transform="matrix(1,0,0,1,1214.630456925254,715.347222328381) translate(31.814814814814817 10.666666666666668)"/></g><path d="M1514.63 726.8H1501v-1h13.63zm68.5 0h-13.06v-1h13.05z" stroke="#666" stroke-width=".05" fill="#666"/><path d="M1501 726.8h-.5v-1h.5z" fill="#666"/><path d="M1501.04 726.83h-.57v-1.05h.57zm-.5-1v.95h.45v-.95z" stroke="#666" stroke-width=".05" fill="#666"/><path d="M1597.88 726.3l-14.26 4.64v-9.27z" fill="#666"/><path d="M1599.5 726.3l-16.38 5.33v-10.65zm-15.38 3.95l12.14-3.94-12.14-3.94z" stroke="#666" stroke-width=".05" fill="#666"/><g><use xlink:href="#bi" transform="matrix(1,0,0,1,1514.630456925254,718.3057148848659) translate(0 10.666666666666668)"/><use xlink:href="#bj" transform="matrix(1,0,0,1,1514.630456925254,718.3057148848659) translate(31.814814814814817 10.666666666666668)"/></g><path d="M1280 838.9h240v60h-240z" fill="#eff0f0"/><path d="M1520 838.9h-240v60h240M1328 838.9v60" stroke="#666" fill="none"/><g><use xlink:href="#bk" transform="matrix(1,0,0,1,1292,850.8994878864805) translate(0.8043209876543207 22.711111111111112)"/></g><g><use xlink:href="#bl" transform="matrix(1,0,0,1,1340,850.8994878864805) translate(42.57901234567902 22.711111111111112)"/><use xlink:href="#bm" transform="matrix(1,0,0,1,1340,850.8994878864805) translate(79.69629629629631 22.711111111111112)"/></g><path d="M1400.5 837.9h-1v-12.3h1z" stroke="#666" stroke-width=".05" fill="#666"/><path d="M1400.5 838.4h-1v-.5h1z" fill="#666"/><path d="M1400.53 838.42h-1.06v-.56h1.06zm-1-.5v.45h.94v-.46z" stroke="#666" stroke-width=".05" fill="#666"/><path d="M1403.63 809.6h-7.26l3.63-11.18z" fill="#666"/><path d="M1404.16 809.6h-1.05l-3.1-9.56-3.1 9.56h-1.06l4.16-12.8z" stroke="#666" stroke-width=".05" fill="#666"/><g><use xlink:href="#bi" transform="matrix(1,0,0,1,1372.2777777777778,809.6026013856732) translate(0 10.666666666666668)"/><use xlink:href="#bj" transform="matrix(1,0,0,1,1372.2777777777778,809.6026013856732) translate(31.814814814814817 10.666666666666668)"/></g><path d="M1580 835.7h240v60h-240z" fill="#eff0f0"/><path d="M1820 835.7h-240v60h240M1628 835.7v60" stroke="#666" fill="none"/><g><use xlink:href="#bk" transform="matrix(1,0,0,1,1592,847.7052027713464) translate(0.8043209876543207 22.711111111111112)"/></g><g><use xlink:href="#bl" transform="matrix(1,0,0,1,1640,847.7052027713464) translate(42.57901234567902 22.711111111111112)"/><use xlink:href="#bm" transform="matrix(1,0,0,1,1640,847.7052027713464) translate(79.69629629629631 22.711111111111112)"/></g><path d="M1700.5 809.85h-1V801h1z" stroke="#666" stroke-width=".05" fill="#666"/><path d="M1700 833.6l-2.5-7.75h5z" fill="#666"/><path d="M1700 835.2l-3.04-9.35h1.05l2 6.12 2-6.12h1.04z" stroke="#666" stroke-width=".05" fill="#666"/><path d="M1700.5 801h-1v-.5h1z" fill="#666"/><path d="M1700.53 801.04h-1.06v-.56h1.06zm-1-.5v.45h.94v-.48z" stroke="#666" stroke-width=".05" fill="#666"/><g><use xlink:href="#bi" transform="matrix(1,0,0,1,1672.2777777777778,809.8526013856732) translate(0 10.666666666666668)"/><use xlink:href="#bj" transform="matrix(1,0,0,1,1672.2777777777778,809.8526013856732) translate(31.814814814814817 10.666666666666668)"/></g><defs><path fill="#333" d="M14 182l248-987h98L112 182H14" id="bn"/><path fill="#333" d="M91 0v-740h456v123H239v193h263v124H239V0H91" id="bo"/><path fill="#333" d="M313 14C173 14 44-94 44-279c0-187 129-295 269-295s269 108 269 295C582-94 453 14 313 14zm0-120c76 0 119-68 119-173 0-106-43-175-119-175s-119 69-119 175c0 105 43 173 119 173" id="bp"/><path fill="#333" d="M79 0v-560h120l10 99h4c56-93 126-135 225-101l-26 127c-91-24-138-1-187 101V0H79" id="bq"/><path fill="#333" d="M276 243C144 243 42 198 42 99c0-47 29-87 80-116v-5c-29-19-51-48-51-94 0-42 29-81 62-105v-4c-38-28-74-81-74-146 0-161 161-235 310-189h202v108h-96c15 19 26 50 26 85 3 150-146 219-288 177-42 41-34 101 64 94h95c135 0 208 42 208 140 0 113-117 199-304 199zm9-511c49 0 87-37 87-103s-37-103-87-103-88 37-88 103 39 103 88 103zm13 418c84 0 142-37 142-81 0-82-167-33-239-58-78 64-27 139 97 139" id="br"/><path fill="#333" d="M284 14c-133 0-184-84-184-210v-248H21v-109l86-7 17-150h123v150h138v116H247v248c-6 90 65 110 131 82L402-7c-30 10-69 21-118 21" id="bs"/><g id="a"><use transform="matrix(0.022222222222222223,0,0,0.022222222222222223,0,0)" xlink:href="#bn"/><use transform="matrix(0.022222222222222223,0,0,0.022222222222222223,8.622222222222222,0)" xlink:href="#bo"/><use transform="matrix(0.022222222222222223,0,0,0.022222222222222223,21.62222222222222,0)" xlink:href="#bp"/><use transform="matrix(0.022222222222222223,0,0,0.022222222222222223,35.53333333333333,0)" xlink:href="#bq"/><use transform="matrix(0.022222222222222223,0,0,0.022222222222222223,45.22222222222222,0)" xlink:href="#br"/><use transform="matrix(0.022222222222222223,0,0,0.022222222222222223,58.488888888888894,0)" xlink:href="#bp"/><use transform="matrix(0.022222222222222223,0,0,0.022222222222222223,72.4,0)" xlink:href="#bs"/></g><path fill="#fff" d="M11 0l48-248h184l-5 28H87l-15 79h140l-5 27H67L50-27h158l-5 27H11" id="bt"/><path fill="#fff" d="M124 0L87-78 21 0h-35l86-98-46-92h33l34 74 61-74h37l-83 92 50 98h-34" id="bu"/><path fill="#fff" d="M51-54c-9 22 5 41 31 30L79-1C43 14 10-4 19-52l22-115H19l5-23h22l19-43h21l-9 43h35l-4 23H73" id="bv"/><path fill="#fff" d="M111-194c62-3 86 47 72 106H45c-7 38 6 69 45 68 27-1 43-14 53-32l24 11C152-15 129 4 87 4 38 3 12-23 12-71c0-70 32-119 99-123zm44 81c14-66-71-72-95-28-4 8-8 17-11 28h106" id="bw"/><path fill="#fff" d="M66-151c12-25 30-51 66-40l-6 26C45-176 58-65 38 0H6l36-190h30" id="bx"/><path fill="#fff" d="M67-158c22-48 132-52 116 29L158 0h-32l25-140c3-38-53-32-70-12C52-117 51-52 38 0H6l36-190h30" id="by"/><path fill="#fff" d="M165-48c-4 18 1 34 23 27l-3 20c-29 8-62 0-52-35h-2C116-14 99 4 63 4 30 4 8-16 8-49c0-68 71-67 138-67 10-26 0-56-31-54-26 1-42 9-47 31l-32-5c8-67 160-71 144 15-5 28-9 54-15 81zM42-50c3 52 80 24 89-6 7-12 7-24 11-38-47 1-103-4-100 44" id="bz"/><path fill="#fff" d="M6 0l50-261h32L37 0H6" id="bA"/><g id="b"><use transform="matrix(0.04320987654320988,0,0,0.04320987654320988,0,0)" xlink:href="#bt"/><use transform="matrix(0.04320987654320988,0,0,0.04320987654320988,10.370370370370372,0)" xlink:href="#bu"/><use transform="matrix(0.04320987654320988,0,0,0.04320987654320988,18.148148148148152,0)" xlink:href="#bv"/><use transform="matrix(0.04320987654320988,0,0,0.04320987654320988,22.46913580246914,0)" xlink:href="#bw"/><use transform="matrix(0.04320987654320988,0,0,0.04320987654320988,31.111111111111114,0)" xlink:href="#bx"/><use transform="matrix(0.04320987654320988,0,0,0.04320987654320988,36.25308641975309,0)" xlink:href="#by"/><use transform="matrix(0.04320987654320988,0,0,0.04320987654320988,44.89506172839506,0)" xlink:href="#bz"/><use transform="matrix(0.04320987654320988,0,0,0.04320987654320988,53.537037037037045,0)" xlink:href="#bA"/></g><path fill="#fff" d="M50-231l6-30h32l-6 30H50zM6 0l37-190h31L37 0H6" id="bB"/><path fill="#fff" d="M198-190L69 30C53 58 25 83-20 72c4-11-1-27 19-22 33-1 43-29 59-52L20-190h32L79-34l84-156h35" id="bC"/><g id="c"><use transform="matrix(0.04320987654320988,0,0,0.04320987654320988,0,0)" xlink:href="#bw"/><use transform="matrix(0.04320987654320988,0,0,0.04320987654320988,8.641975308641976,0)" xlink:href="#by"/><use transform="matrix(0.04320987654320988,0,0,0.04320987654320988,17.283950617283953,0)" xlink:href="#bv"/><use transform="matrix(0.04320987654320988,0,0,0.04320987654320988,21.60493827160494,0)" xlink:href="#bB"/><use transform="matrix(0.04320987654320988,0,0,0.04320987654320988,25.018518518518523,0)" xlink:href="#bv"/><use transform="matrix(0.04320987654320988,0,0,0.04320987654320988,29.339506172839503,0)" xlink:href="#bC"/></g><path fill="#fff" d="M20-101c0-91 52-143 145-150 126-9 127 168 53 223-23 17-55 32-93 32C57 4 20-33 20-101zm216-33c5-57-18-91-73-90-77 1-110 51-110 125 0 49 23 75 73 75 72-1 104-45 110-110" id="bD"/><path fill="#fff" d="M67 3c-93-2-31-127-26-193h32L48-50c-3 39 53 32 70 12 30-34 30-101 43-152h32L157 0h-30c1-10 6-24 4-33-14 20-29 37-64 36" id="bE"/><path fill="#fff" d="M44-154l7-36h35l-8 36H44zM14 0l7-36h35L49 0H14" id="bF"/><g id="e"><use transform="matrix(0.04320987654320988,0,0,0.04320987654320988,0,0)" xlink:href="#bD"/><use transform="matrix(0.04320987654320988,0,0,0.04320987654320988,12.098765432098766,0)" xlink:href="#bE"/><use transform="matrix(0.04320987654320988,0,0,0.04320987654320988,20.74074074074074,0)" xlink:href="#bv"/><use transform="matrix(0.04320987654320988,0,0,0.04320987654320988,25.061728395061728,0)" xlink:href="#bF"/></g><path fill="#fff" d="M18-82l6-28h88l-6 28H18" id="bG"/><use transform="matrix(0.04320987654320988,0,0,0.04320987654320988,0,0)" xlink:href="#bG" id="f"/><path fill="#fff" d="M216-81c-22-19-49-36-78-50V24h-30v-262h30v87c32 8 70 24 92 43" id="bH"/><use transform="matrix(0.04320987654320988,0,0,0.04320987654320988,0,0)" xlink:href="#bH" id="g"/><path fill="#fff" d="M325-103H15v-19h310v19" id="bI"/><use transform="matrix(0.04320987654320988,0,0,0.04320987654320988,0,0)" xlink:href="#bI" id="h"/><path fill="#fff" d="M58-129c42-28 78-69 100-117l26 15c-7 13-11 20-21 34h86l31 25C243-83 181-14 99 30L78 4c76-35 135-96 166-176h-99c-20 24-42 47-66 65" id="bJ"/><use transform="matrix(0.04320987654320988,0,0,0.04320987654320988,0,0)" xlink:href="#bJ" id="i"/><path fill="#fff" d="M53-18c87-27 160-89 215-148l19 20C229-82 155-27 71 11zm55-135c-14-20-37-41-56-56l14-18c24 13 46 33 64 52" id="bK"/><use transform="matrix(0.04320987654320988,0,0,0.04320987654320988,0,0)" xlink:href="#bK" id="j"/><path fill="#fff" d="M234 14c16 1 42 10 42-8v-39H162v75h-22v-160h158V8c4 33-29 31-59 28zM124-141v-19h82v-28h-68v-18h68v-25h-79v-18h79v-31h23v31h80v18h-80v25h69v18h-69v28h87v19H124zM62 42v-322h23V42H62zM228-99v46h48v-46h-48zm-66 46h45v-46h-45v46zM19-119c7-24 13-62 12-94l19 5-11 98zm90-103c5 19 12 44 14 65l-18 8c-3-23-7-47-13-67" id="bL"/><use transform="matrix(0.04320987654320988,0,0,0.04320987654320988,0,0)" xlink:href="#bL" id="k"/><path fill="#fff" d="M269-25c15 17 30 31 51 44l-13 19c-19-13-36-28-50-45-12 18-26 34-43 48l-15-17c18-14 32-30 45-48-18-27-30-58-37-95h-9V43h-23v-303h120c-1 52 16 121-57 100l-4-21c10 2 37 9 38-6v-53h-74v101h92l15 10c-8 40-20 75-36 104zm-161-79l12-54 21 6-12 48h34v19h-59v40h50v21h-50v66H82v-66H32v-21h50v-40H24v-19h35l-13-48 20-5 14 53h28zm-85-59v-20h60v-39H35v-20h48v-38h22v38h47v20h-47v39h58v20H23zm204 44c6 30 16 52 29 75 11-23 20-47 25-75h-54" id="bM"/><use transform="matrix(0.04320987654320988,0,0,0.04320987654320988,0,0)" xlink:href="#bM" id="l"/><path fill="#fff" d="M62-81c-1 28 27 58 47 31 28-39 51-79 56-141-58 11-101 42-103 110zm121-132c117-10 155 144 69 200-10 7-21 14-32 20l-22-24c40-14 72-39 72-89 0-56-41-90-102-85l26 9c-22 66-42 140-96 172-42 4-61-37-61-75 0-82 63-121 146-128" id="bN"/><use transform="matrix(0.04320987654320988,0,0,0.04320987654320988,0,0)" xlink:href="#bN" id="m"/><path fill="#fff" d="M100-143c28-37 48-84 60-136l21 7c-4 17-8 33-14 48h149v20H210v57h85v20h-85v58h100v20H210v91h-23v-246h-28c-12 29-25 53-43 78zm14-129l-29 78V42H62l1-195c-9 16-19 31-30 44l-12-21c31-41 57-94 72-150" id="bO"/><use transform="matrix(0.04320987654320988,0,0,0.04320987654320988,0,0)" xlink:href="#bO" id="n"/><path fill="#fff" d="M118-39c32-3 13-51 20-90H77C78-58 68-2 41 42L21 27c39-56 34-152 34-248h128l-2-58h22l1 58h107v20H206c4 44 8 84 19 120 16-28 29-61 37-96l21 8c-12 43-27 81-48 115 11 24 22 50 45 62 13-4 15-25 20-39l18 11c-9 23-10 50-36 53-34-6-47-40-62-66-25 30-54 55-90 75l-14-17c39-20 70-48 94-82-15-42-22-90-26-144H78v53h82C155-82 179 1 95-22l-4-20zm143-188c-11-12-23-28-37-37 20-26 38 11 54 22" id="bP"/><use transform="matrix(0.04320987654320988,0,0,0.04320987654320988,0,0)" xlink:href="#bP" id="o"/><path fill="#fff" d="M238-179c0 84-86 86-175 82L45 0H11l48-248c82 0 179-12 179 69zm-34 1c0-53-64-42-116-43l-19 98c63 0 135 9 135-55" id="bQ"/><path fill="#fff" d="M30-147c31-64 166-65 159 27C183-49 158 1 86 4 9 8 1-88 30-147zM88-20c53 0 68-48 68-100 0-31-11-51-44-50-52 1-68 46-68 97 0 32 13 53 44 53" id="bR"/><path fill="#fff" d="M44-68c0 29 11 47 38 47 30 0 42-19 51-41l28 9C148-21 126 4 82 4 31 4 10-29 12-85c3-77 74-140 146-93 12 8 15 23 18 40l-31 5c-1-22-13-36-36-36-52 0-65 49-65 101" id="bS"/><path fill="#fff" d="M55-144c13 50 104 24 104 88C159 21 15 23 1-39l26-10c6 40 102 42 102-4-13-50-104-23-104-87 0-71 143-71 148-8l-29 4c-5-35-85-37-89 0" id="bT"/><g id="p"><use transform="matrix(0.04320987654320988,0,0,0.04320987654320988,0,0)" xlink:href="#bQ"/><use transform="matrix(0.04320987654320988,0,0,0.04320987654320988,10.370370370370372,0)" xlink:href="#bx"/><use transform="matrix(0.04320987654320988,0,0,0.04320987654320988,15.512345679012347,0)" xlink:href="#bR"/><use transform="matrix(0.04320987654320988,0,0,0.04320987654320988,24.154320987654323,0)" xlink:href="#bS"/><use transform="matrix(0.04320987654320988,0,0,0.04320987654320988,31.9320987654321,0)" xlink:href="#bw"/><use transform="matrix(0.04320987654320988,0,0,0.04320987654320988,40.574074074074076,0)" xlink:href="#bT"/><use transform="matrix(0.04320987654320988,0,0,0.04320987654320988,48.351851851851855,0)" xlink:href="#bT"/></g><path fill="#fff" d="M9 0l6-27h63l36-188-63 39 6-31 66-41h29L110-27h60l-5 27H9" id="bU"/><use transform="matrix(0.04320987654320988,0,0,0.04320987654320988,0,0)" xlink:href="#bU" id="q"/><path fill="#fff" d="M14 0l48-248h34L48 0H14" id="bV"/><g id="s"><use transform="matrix(0.04320987654320988,0,0,0.04320987654320988,0,0)" xlink:href="#bV"/><use transform="matrix(0.04320987654320988,0,0,0.04320987654320988,4.320987654320988,0)" xlink:href="#by"/><use transform="matrix(0.04320987654320988,0,0,0.04320987654320988,12.962962962962964,0)" xlink:href="#bF"/></g><use transform="matrix(0.04320987654320988,0,0,0.04320987654320988,0,0)" xlink:href="#bG" id="t"/><g id="u"><use transform="matrix(0.04320987654320988,0,0,0.04320987654320988,0,0)" xlink:href="#bD"/><use transform="matrix(0.04320987654320988,0,0,0.04320987654320988,12.098765432098766,0)" xlink:href="#bE"/><use transform="matrix(0.04320987654320988,0,0,0.04320987654320988,20.74074074074074,0)" xlink:href="#bv"/><use transform="matrix(0.04320987654320988,0,0,0.04320987654320988,25.061728395061728,0)" xlink:href="#bF"/></g><path fill="#fff" d="M127 0L80-88 50-66 37 0H6l51-261h31L57-100l99-90h39l-93 82L161 0h-34" id="bW"/><g id="v"><use transform="matrix(0.04320987654320988,0,0,0.04320987654320988,0,0)" xlink:href="#bv"/><use transform="matrix(0.04320987654320988,0,0,0.04320987654320988,4.320987654320988,0)" xlink:href="#bR"/><use transform="matrix(0.04320987654320988,0,0,0.04320987654320988,12.962962962962964,0)" xlink:href="#bW"/><use transform="matrix(0.04320987654320988,0,0,0.04320987654320988,20.740740740740744,0)" xlink:href="#bw"/><use transform="matrix(0.04320987654320988,0,0,0.04320987654320988,29.382716049382726,0)" xlink:href="#by"/></g><path fill="#fff" d="M118 9c-5-18-9-31-17-49l22-7 19 56h54c7-20 9-35 15-57H77v-78h184v78h-50l23 5-15 52h92v21H27V9h91zm92-243c12-10 25-23 34-37l18 13c-13 16-26 29-40 41 6 8 13 16 21 24 15-11 29-29 40-44l17 14c-12 15-27 32-42 44 18 15 38 28 60 38l-13 20c-27-13-49-29-69-49v15H105v-14c-21 21-44 40-73 53l-12-19c27-12 49-28 68-47-14-14-26-22-40-34l14-16c14 13 28 21 41 34 13-15 24-33 32-50H51v-19h95l16 12c-12 29-31 58-52 80h121c-25-25-47-56-64-91l18-10c8 14 15 30 25 42zM100-67h138v-39H100v39" id="bX"/><use transform="matrix(0.04320987654320988,0,0,0.04320987654320988,0,0)" xlink:href="#bX" id="w"/><path fill="#fff" d="M141-193c-5-21-16-21-44-41 5-4 20-5 6-12-6-2-12-5-19-10-19 56-31 78-67 114l1 4c9-5 18-11 26-19 1 13 21 7 34 8v46H26l6 10h46V10c-18 5-42 10-59 11 6 6 9 22 17 28 2 0 4-2 4-6 29-17 62-24 108-49l-2-3C127-3 110 2 95 6v-99h49c9 1 9-7 2-11-8-4-14-9-18-15-8 8-13 19-33 16v-46c14-2 56 7 42-11-8-4-13-9-17-14l-16 15H46c20-19 34-43 48-71 19 17 27 35 39 48 5 0 8-3 8-11zM53-2c27-15-1-52-23-66C40-48 47-28 47-9c0 4 2 7 6 7zm76-76c-3 19-10 41-22 67l3 3c11-13 22-31 34-54 6-2 15-5 3-8-6-1-12-4-18-8zm157-151c-1-5 17-10 5-15-5-3-10-7-15-12l-11 9H154l5 10h109v41H162l6 10h100v46H137l6 10h81V20c-1 14-31 7-43 5v4c20 4 28 14 35 25 10-2 24-16 24-32v-126c13 60 33 103 66 132 5-8 21-7 28-13-34-15-55-38-70-71 20-10 36-26 56-36-3-6-12-9-18-16-12 20-25 37-40 49-8-20-18-42-22-71h83c9 0 10-10 1-11-8-5-14-9-18-15-7 5-8 16-20 16v-89zM189-54c12-3 11-20 1-31-6-7-15-16-28-26 6 20 15 25 19 49 2 4 4 8 8 8zm-61 67c7 10 20 30 25 9 20-24 46-47 61-82-36 37-64 61-86 73" id="bY"/><use transform="matrix(0.04320987654320988,0,0,0.04320987654320988,0,0)" xlink:href="#bY" id="x"/><path fill="#fff" d="M123-251c66 0 92 69 53 113C138-94 73-75 39-27h128l-5 27H-2c17-92 123-93 159-163 14-28-1-64-36-62-29 2-46 17-54 41l-30-6c13-36 37-61 86-61" id="bZ"/><use transform="matrix(0.04320987654320988,0,0,0.04320987654320988,0,0)" xlink:href="#bZ" id="y"/><path fill="#fff" d="M248-111c6-24 9-61-24-58-72 9-57 108-77 169h-31l26-142c3-37-50-30-64-10C52-115 50-51 37 0H6l36-190h30c-1 10-6 24-4 32 13-43 101-52 105 5 13-22 29-41 61-41 90 0 28 129 23 194h-31" id="ca"/><path fill="#fff" d="M58-38C53-5 46 26 28 46H7C19 32 27 18 32 0H17l7-38h34" id="cb"/><g id="z"><use transform="matrix(0.04320987654320988,0,0,0.04320987654320988,0,0)" xlink:href="#bw"/><use transform="matrix(0.04320987654320988,0,0,0.04320987654320988,8.641975308641976,0)" xlink:href="#ca"/><use transform="matrix(0.04320987654320988,0,0,0.04320987654320988,21.56172839506173,0)" xlink:href="#bz"/><use transform="matrix(0.04320987654320988,0,0,0.04320987654320988,30.203703703703713,0)" xlink:href="#bB"/><use transform="matrix(0.04320987654320988,0,0,0.04320987654320988,33.61728395061729,0)" xlink:href="#bA"/><use transform="matrix(0.04320987654320988,0,0,0.04320987654320988,37.030864197530875,0)" xlink:href="#cb"/></g><g id="A"><use transform="matrix(0.04320987654320988,0,0,0.04320987654320988,0,0)" xlink:href="#bv"/><use transform="matrix(0.04320987654320988,0,0,0.04320987654320988,4.320987654320988,0)" xlink:href="#bR"/><use transform="matrix(0.04320987654320988,0,0,0.04320987654320988,12.962962962962964,0)" xlink:href="#bW"/><use transform="matrix(0.04320987654320988,0,0,0.04320987654320988,20.740740740740744,0)" xlink:href="#bw"/><use transform="matrix(0.04320987654320988,0,0,0.04320987654320988,29.382716049382726,0)" xlink:href="#by"/></g><use transform="matrix(0.04320987654320988,0,0,0.04320987654320988,0,0)" xlink:href="#bG" id="B"/><path fill="#666" d="M282-193c12 0 22-9 22-22s-9-23-22-23-21 11-21 23 9 22 21 22zM25-42c37-37 66-86 82-143l25 11C113-117 85-61 48-20zm233 10c-14-51-37-104-66-146l19-13c32 40 60 91 76 147zm24-216c19 0 31 13 31 33 0 19-12 32-31 32-20 0-29-15-31-32 2-18 11-33 31-33" id="cc"/><use transform="matrix(0.04320987654320988,0,0,0.04320987654320988,0,0)" xlink:href="#cc" id="C"/><path fill="#666" d="M240-176c-10 23-22 44-38 65 28 22 62 52 81 82L256-5c-18-33-42-65-70-88-32 37-70 72-113 94L55-24c70-31 123-89 153-159H79v-27h134" id="cd"/><use transform="matrix(0.04320987654320988,0,0,0.04320987654320988,0,0)" xlink:href="#cd" id="D"/><path fill="#666" d="M276-233c1 126-34 206-111 253L145-5c65-36 97-101 97-201H91v83H62v-110h214" id="ce"/><use transform="matrix(0.04320987654320988,0,0,0.04320987654320988,0,0)" xlink:href="#ce" id="E"/><path fill="#666" d="M325-103H15v-19h310v19" id="cf"/><use transform="matrix(0.04320987654320988,0,0,0.04320987654320988,0,0)" xlink:href="#cf" id="F"/><path fill="#666" d="M195-81c-21-19-47-37-77-49V25H88v-263h30v87c32 8 69 25 91 43zm13-109c-8-15-19-27-31-36 15-18 34 13 44 24zm28-18c-8-14-18-26-30-36 18-16 32 14 44 25" id="cg"/><use transform="matrix(0.04320987654320988,0,0,0.04320987654320988,0,0)" xlink:href="#cg" id="G"/><path fill="#666" d="M123-85H93v-155h30v155zm11 94c75-37 87-133 81-250h30c-1 75 6 141-23 194-17 31-37 57-66 77" id="ch"/><use transform="matrix(0.04320987654320988,0,0,0.04320987654320988,0,0)" xlink:href="#ch" id="H"/><path fill="#666" d="M276 15c-70-1-177 32-171-54v-82l-52 13-5-27 57-13v-84h31v77l125-28 29 26c-16 36-42 65-69 90l-19-19c22-19 40-43 53-72l-119 30v93c-1 40 44 27 82 27 20 0 42-4 64-8" id="ci"/><use transform="matrix(0.04320987654320988,0,0,0.04320987654320988,0,0)" xlink:href="#ci" id="I"/><path fill="#666" d="M90-100c-4-20-13-37-22-54l18-7c10 14 21 34 27 52zM116 5c64-35 106-98 130-171l25 10C246-82 196-17 136 23zm41-121c-3-19-10-36-18-53l21-6c7 15 16 34 20 53" id="cj"/><use transform="matrix(0.04320987654320988,0,0,0.04320987654320988,0,0)" xlink:href="#cj" id="J"/><path fill="#666" d="M216-81c-22-19-49-36-78-50V24h-30v-262h30v87c32 8 70 24 92 43" id="ck"/><use transform="matrix(0.04320987654320988,0,0,0.04320987654320988,0,0)" xlink:href="#ck" id="K"/><path fill="#666" d="M226 11c15 2 47 12 47-8v-76h-90V36h-24V-73H76C73-23 61 10 39 42L21 26c48-58 32-177 35-281h239V8c4 36-33 29-63 27zm-43-246v62h90v-62h-90zm0 142h90v-60h-90v60zM79-173h80v-62H79v62zm0 20l-1 60h81v-60H79" id="cl"/><use transform="matrix(0.04320987654320988,0,0,0.04320987654320988,0,0)" xlink:href="#cl" id="L"/><path fill="#666" d="M62-81c-1 28 27 58 47 31 28-39 51-79 56-141-58 11-101 42-103 110zm121-132c117-10 155 144 69 200-10 7-21 14-32 20l-22-24c40-14 72-39 72-89 0-56-41-90-102-85l26 9c-22 66-42 140-96 172-42 4-61-37-61-75 0-82 63-121 146-128" id="cm"/><use transform="matrix(0.04320987654320988,0,0,0.04320987654320988,0,0)" xlink:href="#cm" id="M"/><path fill="#666" d="M197-134c21-32 39-63 54-95l27 15c-16 34-36 67-59 98 14 14 29 29 41 45l-24 24c-12-16-20-29-35-45-36 41-74 76-119 102L61-17c50-21 85-56 119-96-17-13-33-26-52-37l11-18c21 10 38 20 58 34" id="cn"/><use transform="matrix(0.04320987654320988,0,0,0.04320987654320988,0,0)" xlink:href="#cn" id="N"/><path fill="#666" d="M27-3c58-36 59-121 56-216h29c-3 77 6 159-35 203C67-6 58 6 45 17zm162-20c42-30 76-64 100-111l22 19c-30 53-75 99-129 128L159-9v-221h30v207" id="co"/><use transform="matrix(0.04320987654320988,0,0,0.04320987654320988,0,0)" xlink:href="#co" id="O"/><path fill="#666" d="M220-112c20 38 50 63 92 80l-12 20c-43-18-76-50-97-90-15 46-45 73-87 94l-12-19c41-19 68-40 80-85h-75v-19h80l4-45h-49v-19h128v19h-57c0 17-2 31-4 45h94v19h-85zM87-27C118 35 236 9 318 7l-7 25C225 31 111 51 78-8 63 8 50 21 32 35L20 13C35 1 50-10 64-24v-63H24v-20h63v80zm159-242c14 33 40 61 71 79l-12 19c-33-22-54-48-74-78h-46v-20h61zm-67 20c-17 31-40 61-66 83l-14-17c25-19 47-48 62-76zM74-139c-16-15-33-30-50-41l13-17c18 12 35 26 52 40zm9-74c-15-15-31-29-48-41l13-16 50 39" id="cp"/><use transform="matrix(0.04320987654320988,0,0,0.04320987654320988,0,0)" xlink:href="#cp" id="P"/><path fill="#666" d="M194 13c17-1 54 14 54-7v-186H122v-20h126v-79h23v79h46v20h-46V7c5 40-37 31-71 29zM21-124c36-42 63-98 82-156l22 7-33 80V42H69l1-195c-11 19-23 34-36 50zm162 66c-11-24-28-54-44-73l19-12 45 71" id="cq"/><use transform="matrix(0.04320987654320988,0,0,0.04320987654320988,0,0)" xlink:href="#cq" id="Q"/><path fill="#666" d="M238-179c0 84-86 86-175 82L45 0H11l48-248c82 0 179-12 179 69zm-34 1c0-53-64-42-116-43l-19 98c63 0 135 9 135-55" id="cr"/><path fill="#666" d="M66-151c12-25 30-51 66-40l-6 26C45-176 58-65 38 0H6l36-190h30" id="cs"/><path fill="#666" d="M30-147c31-64 166-65 159 27C183-49 158 1 86 4 9 8 1-88 30-147zM88-20c53 0 68-48 68-100 0-31-11-51-44-50-52 1-68 46-68 97 0 32 13 53 44 53" id="ct"/><path fill="#666" d="M44-68c0 29 11 47 38 47 30 0 42-19 51-41l28 9C148-21 126 4 82 4 31 4 10-29 12-85c3-77 74-140 146-93 12 8 15 23 18 40l-31 5c-1-22-13-36-36-36-52 0-65 49-65 101" id="cu"/><path fill="#666" d="M111-194c62-3 86 47 72 106H45c-7 38 6 69 45 68 27-1 43-14 53-32l24 11C152-15 129 4 87 4 38 3 12-23 12-71c0-70 32-119 99-123zm44 81c14-66-71-72-95-28-4 8-8 17-11 28h106" id="cv"/><path fill="#666" d="M55-144c13 50 104 24 104 88C159 21 15 23 1-39l26-10c6 40 102 42 102-4-13-50-104-23-104-87 0-71 143-71 148-8l-29 4c-5-35-85-37-89 0" id="cw"/><g id="R"><use transform="matrix(0.04320987654320988,0,0,0.04320987654320988,0,0)" xlink:href="#cr"/><use transform="matrix(0.04320987654320988,0,0,0.04320987654320988,10.370370370370372,0)" xlink:href="#cs"/><use transform="matrix(0.04320987654320988,0,0,0.04320987654320988,15.512345679012347,0)" xlink:href="#ct"/><use transform="matrix(0.04320987654320988,0,0,0.04320987654320988,24.154320987654323,0)" xlink:href="#cu"/><use transform="matrix(0.04320987654320988,0,0,0.04320987654320988,31.9320987654321,0)" xlink:href="#cv"/><use transform="matrix(0.04320987654320988,0,0,0.04320987654320988,40.574074074074076,0)" xlink:href="#cw"/><use transform="matrix(0.04320987654320988,0,0,0.04320987654320988,48.351851851851855,0)" xlink:href="#cw"/></g><path fill="#666" d="M148-71c0-36-31-44-71-41l5-28c46 3 81-6 81-50 0-23-15-35-39-35-30 0-49 17-56 41l-32-3c12-39 42-63 90-64 43 0 69 19 71 60 1 43-30 58-65 66 27 5 49 22 49 53 0 85-133 99-164 35-4-7-7-15-9-22l29-9c8 25 25 45 58 45 34 1 53-17 53-48" id="cx"/><use transform="matrix(0.04320987654320988,0,0,0.04320987654320988,0,0)" xlink:href="#cx" id="S"/><path fill="#666" d="M14 0l48-248h34L48 0H14" id="cy"/><path fill="#666" d="M67-158c22-48 132-52 116 29L158 0h-32l25-140c3-38-53-32-70-12C52-117 51-52 38 0H6l36-190h30" id="cz"/><path fill="#666" d="M44-154l7-36h35l-8 36H44zM14 0l7-36h35L49 0H14" id="cA"/><g id="U"><use transform="matrix(0.04320987654320988,0,0,0.04320987654320988,0,0)" xlink:href="#cy"/><use transform="matrix(0.04320987654320988,0,0,0.04320987654320988,4.320987654320988,0)" xlink:href="#cz"/><use transform="matrix(0.04320987654320988,0,0,0.04320987654320988,12.962962962962964,0)" xlink:href="#cA"/></g><path fill="#666" d="M248-111c6-24 9-61-24-58-72 9-57 108-77 169h-31l26-142c3-37-50-30-64-10C52-115 50-51 37 0H6l36-190h30c-1 10-6 24-4 32 13-43 101-52 105 5 13-22 29-41 61-41 90 0 28 129 23 194h-31" id="cB"/><path fill="#666" d="M165-48c-4 18 1 34 23 27l-3 20c-29 8-62 0-52-35h-2C116-14 99 4 63 4 30 4 8-16 8-49c0-68 71-67 138-67 10-26 0-56-31-54-26 1-42 9-47 31l-32-5c8-67 160-71 144 15-5 28-9 54-15 81zM42-50c3 52 80 24 89-6 7-12 7-24 11-38-47 1-103-4-100 44" id="cC"/><path fill="#666" d="M50-231l6-30h32l-6 30H50zM6 0l37-190h31L37 0H6" id="cD"/><path fill="#666" d="M6 0l50-261h32L37 0H6" id="cE"/><path fill="#666" d="M58-38C53-5 46 26 28 46H7C19 32 27 18 32 0H17l7-38h34" id="cF"/><g id="V"><use transform="matrix(0.04320987654320988,0,0,0.04320987654320988,0,0)" xlink:href="#cv"/><use transform="matrix(0.04320987654320988,0,0,0.04320987654320988,8.641975308641976,0)" xlink:href="#cB"/><use transform="matrix(0.04320987654320988,0,0,0.04320987654320988,21.56172839506173,0)" xlink:href="#cC"/><use transform="matrix(0.04320987654320988,0,0,0.04320987654320988,30.203703703703713,0)" xlink:href="#cD"/><use transform="matrix(0.04320987654320988,0,0,0.04320987654320988,33.61728395061729,0)" xlink:href="#cE"/><use transform="matrix(0.04320987654320988,0,0,0.04320987654320988,37.030864197530875,0)" xlink:href="#cF"/></g><path fill="#666" d="M67 3c-93-2-31-127-26-193h32L48-50c-3 39 53 32 70 12 30-34 30-101 43-152h32L157 0h-30c1-10 6-24 4-33-14 20-29 37-64 36" id="cG"/><g id="W"><use transform="matrix(0.04320987654320988,0,0,0.04320987654320988,0,0)" xlink:href="#cG"/><use transform="matrix(0.04320987654320988,0,0,0.04320987654320988,8.641975308641976,0)" xlink:href="#cs"/><use transform="matrix(0.04320987654320988,0,0,0.04320987654320988,13.783950617283953,0)" xlink:href="#cE"/></g><path fill="#666" d="M20-101c0-91 52-143 145-150 126-9 127 168 53 223-23 17-55 32-93 32C57 4 20-33 20-101zm216-33c5-57-18-91-73-90-77 1-110 51-110 125 0 49 23 75 73 75 72-1 104-45 110-110" id="cH"/><path fill="#666" d="M51-54c-9 22 5 41 31 30L79-1C43 14 10-4 19-52l22-115H19l5-23h22l19-43h21l-9 43h35l-4 23H73" id="cI"/><g id="X"><use transform="matrix(0.04320987654320988,0,0,0.04320987654320988,0,0)" xlink:href="#cH"/><use transform="matrix(0.04320987654320988,0,0,0.04320987654320988,12.098765432098766,0)" xlink:href="#cG"/><use transform="matrix(0.04320987654320988,0,0,0.04320987654320988,20.74074074074074,0)" xlink:href="#cI"/><use transform="matrix(0.04320987654320988,0,0,0.04320987654320988,25.061728395061728,0)" xlink:href="#cA"/></g><path fill="#666" d="M18-82l6-28h88l-6 28H18" id="cJ"/><use transform="matrix(0.04320987654320988,0,0,0.04320987654320988,0,0)" xlink:href="#cJ" id="Y"/><path fill="#666" d="M248-139C247-14 144 9 11 0l48-248c105-6 190 8 189 109zm-34 0c1-70-52-87-126-82L50-27c98 7 163-21 164-112" id="cK"/><g id="Z"><use transform="matrix(0.03703703703703704,0,0,0.03703703703703704,0,0)" xlink:href="#cK"/><use transform="matrix(0.03703703703703704,0,0,0.03703703703703704,9.592592592592593,0)" xlink:href="#cC"/><use transform="matrix(0.03703703703703704,0,0,0.03703703703703704,17,0)" xlink:href="#cI"/><use transform="matrix(0.03703703703703704,0,0,0.03703703703703704,20.703703703703702,0)" xlink:href="#cC"/></g><path fill="#666" d="M76-167L44 0H12l33-167H18l4-23h27c3-47 25-81 82-69l-4 24c-35-8-44 15-46 45h37l-5 23H76" id="cL"/><path fill="#666" d="M188 0h-37l-8-164L71 0H34L18-190h31l8 164 75-164h34l8 164 74-164h31" id="cM"/><g id="aa"><use transform="matrix(0.03703703703703704,0,0,0.03703703703703704,0,0)" xlink:href="#cL"/><use transform="matrix(0.03703703703703704,0,0,0.03703703703703704,3.703703703703704,0)" xlink:href="#cE"/><use transform="matrix(0.03703703703703704,0,0,0.03703703703703704,6.629629629629631,0)" xlink:href="#ct"/><use transform="matrix(0.03703703703703704,0,0,0.03703703703703704,14.037037037037038,0)" xlink:href="#cM"/></g><path fill="#333" d="M239-623v226h96c95 0 147-40 147-119 0-80-52-107-147-107h-96zM659 0H494L342-280H239V0H91v-740h258c155 0 278 54 278 224 0 111-56 180-141 213" id="cN"/><path fill="#333" d="M322 14C166 14 44-95 44-279c0-182 127-295 261-295 176-3 258 155 227 335H187C198-93 362-65 468-138l50 90c-55 38-126 62-196 62zM185-336h228c0-76-34-124-106-124-59 0-111 42-122 124" id="cO"/><path fill="#333" d="M239 14C164 14 81-19 26-65l67-92c50 39 98 61 150 61 56 0 81-24 81-59 0-42-58-61-117-84-71-27-153-70-153-163 0-101 82-172 208-172 82 0 144 34 191 69l-66 89c-40-28-79-48-121-48-50 0-74 22-74 54 0 41 55 56 114 78 74 28 156 65 156 169 0 98-77 177-223 177" id="cP"/><g id="ab"><use transform="matrix(0.022222222222222223,0,0,0.022222222222222223,0,0)" xlink:href="#bn"/><use transform="matrix(0.022222222222222223,0,0,0.022222222222222223,8.622222222222222,0)" xlink:href="#cN"/><use transform="matrix(0.022222222222222223,0,0,0.022222222222222223,23.77777777777778,0)" xlink:href="#cO"/><use transform="matrix(0.022222222222222223,0,0,0.022222222222222223,36.68888888888889,0)" xlink:href="#cP"/><use transform="matrix(0.022222222222222223,0,0,0.022222222222222223,47.68888888888889,0)" xlink:href="#cO"/><use transform="matrix(0.022222222222222223,0,0,0.022222222222222223,60.6,0)" xlink:href="#bs"/></g><g id="ac"><use transform="matrix(0.04320987654320988,0,0,0.04320987654320988,0,0)" xlink:href="#bt"/><use transform="matrix(0.04320987654320988,0,0,0.04320987654320988,10.370370370370372,0)" xlink:href="#bu"/><use transform="matrix(0.04320987654320988,0,0,0.04320987654320988,18.148148148148152,0)" xlink:href="#bv"/><use transform="matrix(0.04320987654320988,0,0,0.04320987654320988,22.46913580246914,0)" xlink:href="#bw"/><use transform="matrix(0.04320987654320988,0,0,0.04320987654320988,31.111111111111114,0)" xlink:href="#bx"/><use transform="matrix(0.04320987654320988,0,0,0.04320987654320988,36.25308641975309,0)" xlink:href="#by"/><use transform="matrix(0.04320987654320988,0,0,0.04320987654320988,44.89506172839506,0)" xlink:href="#bz"/><use transform="matrix(0.04320987654320988,0,0,0.04320987654320988,53.537037037037045,0)" xlink:href="#bA"/></g><g id="ad"><use transform="matrix(0.04320987654320988,0,0,0.04320987654320988,0,0)" xlink:href="#bw"/><use transform="matrix(0.04320987654320988,0,0,0.04320987654320988,8.641975308641976,0)" xlink:href="#by"/><use transform="matrix(0.04320987654320988,0,0,0.04320987654320988,17.283950617283953,0)" xlink:href="#bv"/><use transform="matrix(0.04320987654320988,0,0,0.04320987654320988,21.60493827160494,0)" xlink:href="#bB"/><use transform="matrix(0.04320987654320988,0,0,0.04320987654320988,25.018518518518523,0)" xlink:href="#bv"/><use transform="matrix(0.04320987654320988,0,0,0.04320987654320988,29.339506172839503,0)" xlink:href="#bC"/></g><path fill="#fff" d="M282-193c12 0 22-9 22-22s-9-23-22-23-21 11-21 23 9 22 21 22zM25-42c37-37 66-86 82-143l25 11C113-117 85-61 48-20zm233 10c-14-51-37-104-66-146l19-13c32 40 60 91 76 147zm24-216c19 0 31 13 31 33 0 19-12 32-31 32-20 0-29-15-31-32 2-18 11-33 31-33" id="cQ"/><use transform="matrix(0.04320987654320988,0,0,0.04320987654320988,0,0)" xlink:href="#cQ" id="ae"/><path fill="#fff" d="M240-176c-10 23-22 44-38 65 28 22 62 52 81 82L256-5c-18-33-42-65-70-88-32 37-70 72-113 94L55-24c70-31 123-89 153-159H79v-27h134" id="cR"/><use transform="matrix(0.04320987654320988,0,0,0.04320987654320988,0,0)" xlink:href="#cR" id="af"/><path fill="#fff" d="M276-233c1 126-34 206-111 253L145-5c65-36 97-101 97-201H91v83H62v-110h214" id="cS"/><use transform="matrix(0.04320987654320988,0,0,0.04320987654320988,0,0)" xlink:href="#cS" id="ag"/><use transform="matrix(0.04320987654320988,0,0,0.04320987654320988,0,0)" xlink:href="#bI" id="ah"/><path fill="#fff" d="M195-81c-21-19-47-37-77-49V25H88v-263h30v87c32 8 69 25 91 43zm13-109c-8-15-19-27-31-36 15-18 34 13 44 24zm28-18c-8-14-18-26-30-36 18-16 32 14 44 25" id="cT"/><use transform="matrix(0.04320987654320988,0,0,0.04320987654320988,0,0)" xlink:href="#cT" id="ai"/><path fill="#fff" d="M226-167c5-12 10-27 13-39l21 5c-3 11-7 23-12 34h62v19h-62v39h55v17h-55v38h55v18h-55V3h68v20H178v20h-22v-155c-6 9-13 18-20 26l-15-18V14h-21V-3H67v31H45l2-137c-6 12-12 23-19 34L15-96c23-37 39-85 44-140H22v-20h105v20H81c-3 30-8 57-17 83h57v49c30-33 52-77 69-123h-36v41h-22v-59h63c4-12 7-24 10-36l22 4-8 32h91v59h-22v-41h-75c-6 22-15 41-24 60h37zM67-22h33v-112H67v112zM178 3h48v-39h-48V3zm0-112h48v-39c-15 1-34-2-48 1v38zm0 55h48v-38h-48v38" id="cU"/><use transform="matrix(0.04320987654320988,0,0,0.04320987654320988,0,0)" xlink:href="#cU" id="aj"/><path fill="#fff" d="M303-267c-7 72 22 169-72 149l-4-22c17 3 42 9 46-9 6-25 7-62 7-98h-51c-2 76-25 120-76 147l-13-19c47-21 66-63 67-128h-63v-20h159zM99 39V24H52v18H30V-71h91V39H99zm119-25c21 2 46 4 43-20 0-4 1-10 1-16l20 8c1 35-13 51-50 49-29-2-52 1-51-28v-89h22V1c1 9 5 13 15 13zM52 5h47v-56H52V5zM21-198v-19h110v19H21zM301 15c-10-27-21-56-35-80l19-10c11 26 26 51 35 79zM31-247v-20h92v20H31zm97 261c11-24 17-52 21-84l19 6c-5 32-9 62-21 88zM30-148v-19h92v19H30zm0 48v-19h92v19H30zm110-75c12-16 20-34 25-56l20 7c-7 21-15 46-27 62zm78 55c13 15 26 30 36 48l-17 13-34-49" id="cV"/><use transform="matrix(0.04320987654320988,0,0,0.04320987654320988,0,0)" xlink:href="#cV" id="ak"/><path fill="#fff" d="M67-162c32-53 139-36 121 50C175-51 163 2 97 4 68 4 52-11 42-31 38 6 28 39 22 75H-9l50-265h29c-1 10 0 20-3 28zm89 36c0-26-10-43-35-43-54 0-67 50-69 103-1 29 14 45 42 46 53 0 62-58 62-106" id="cW"/><path fill="#fff" d="M188 0h-37l-8-164L71 0H34L18-190h31l8 164 75-164h34l8 164 74-164h31" id="cX"/><path fill="#fff" d="M133-28C103 26-5 8 13-77c13-62 24-115 90-117 29-1 46 15 56 35l19-102h32L160 0h-30zM45-64c-2 27 10 43 35 43 54-1 69-50 69-103 0-29-15-46-42-46-53-1-58 58-62 106" id="cY"/><g id="al"><use transform="matrix(0.04320987654320988,0,0,0.04320987654320988,0,0)" xlink:href="#cW"/><use transform="matrix(0.04320987654320988,0,0,0.04320987654320988,8.641975308641976,0)" xlink:href="#bz"/><use transform="matrix(0.04320987654320988,0,0,0.04320987654320988,17.283950617283953,0)" xlink:href="#bT"/><use transform="matrix(0.04320987654320988,0,0,0.04320987654320988,25.06172839506173,0)" xlink:href="#bT"/><use transform="matrix(0.04320987654320988,0,0,0.04320987654320988,32.839506172839506,0)" xlink:href="#cX"/><use transform="matrix(0.04320987654320988,0,0,0.04320987654320988,44.03086419753087,0)" xlink:href="#bR"/><use transform="matrix(0.04320987654320988,0,0,0.04320987654320988,52.67283950617284,0)" xlink:href="#bx"/><use transform="matrix(0.04320987654320988,0,0,0.04320987654320988,57.814814814814824,0)" xlink:href="#cY"/><use transform="matrix(0.04320987654320988,0,0,0.04320987654320988,66.4567901234568,0)" xlink:href="#cb"/></g><path fill="#fff" d="M76-167L44 0H12l33-167H18l4-23h27c3-47 25-81 82-69l-4 24c-35-8-44 15-46 45h37l-5 23H76" id="cZ"/><g id="am"><use transform="matrix(0.04320987654320988,0,0,0.04320987654320988,0,0)" xlink:href="#bS"/><use transform="matrix(0.04320987654320988,0,0,0.04320987654320988,7.777777777777779,0)" xlink:href="#bR"/><use transform="matrix(0.04320987654320988,0,0,0.04320987654320988,16.419753086419753,0)" xlink:href="#by"/><use transform="matrix(0.04320987654320988,0,0,0.04320987654320988,25.061728395061728,0)" xlink:href="#cZ"/><use transform="matrix(0.04320987654320988,0,0,0.04320987654320988,29.382716049382715,0)" xlink:href="#bB"/><use transform="matrix(0.04320987654320988,0,0,0.04320987654320988,32.7962962962963,0)" xlink:href="#bx"/><use transform="matrix(0.04320987654320988,0,0,0.04320987654320988,37.93827160493827,0)" xlink:href="#ca"/></g><use transform="matrix(0.04320987654320988,0,0,0.04320987654320988,0,0)" xlink:href="#bG" id="an"/><path fill="#fff" d="M111-57v-17H59v20H37v-211h97v208h-23zm191-1h-23v-12h-99v12h-23v-92h145v92zm5-209c-3 53 7 120-69 100l-6-22c15 2 43 9 46-8 2-14 5-35 5-51h-58c-10 46-35 74-72 91l-11-20c33-16 50-33 59-71h-53v-19h159zM180-90h99v-40h-99v40zM59-95h52v-67H59v67zm0-87h52v-63H59v63zM22 25C37 4 50-19 59-45l20 9C70-9 56 18 40 39zm275 14c-10-23-24-52-37-72l19-11c14 22 25 46 37 69zm-93-2c-4-26-10-49-19-72l22-6 20 73zm-66-75c4 25 7 46 7 73l-24 3c1-26-2-51-5-73" id="da"/><use transform="matrix(0.04320987654320988,0,0,0.04320987654320988,0,0)" xlink:href="#da" id="ao"/><path fill="#fff" d="M244 39V21H92v21H69V-99h199V39h-24zm-61-315c30 58 80 100 136 131l-13 23c-21-12-40-25-58-41v19H89v-17c-17 15-39 28-58 40l-13-20c57-31 107-74 135-135h30zM92 2h152v-81H92V2zm76-258c-16 36-46 66-75 91h153c-31-25-59-55-78-91" id="db"/><use transform="matrix(0.04320987654320988,0,0,0.04320987654320988,0,0)" xlink:href="#db" id="ap"/><g id="aq"><use transform="matrix(0.04320987654320988,0,0,0.04320987654320988,0,0)" xlink:href="#bv"/><use transform="matrix(0.04320987654320988,0,0,0.04320987654320988,4.320987654320988,0)" xlink:href="#bR"/><use transform="matrix(0.04320987654320988,0,0,0.04320987654320988,12.962962962962964,0)" xlink:href="#bW"/><use transform="matrix(0.04320987654320988,0,0,0.04320987654320988,20.740740740740744,0)" xlink:href="#bw"/><use transform="matrix(0.04320987654320988,0,0,0.04320987654320988,29.382716049382726,0)" xlink:href="#by"/></g><g id="ar"><use transform="matrix(0.04320987654320988,0,0,0.04320987654320988,0,0)" xlink:href="#bv"/><use transform="matrix(0.04320987654320988,0,0,0.04320987654320988,4.320987654320988,0)" xlink:href="#bR"/><use transform="matrix(0.04320987654320988,0,0,0.04320987654320988,12.962962962962964,0)" xlink:href="#bW"/><use transform="matrix(0.04320987654320988,0,0,0.04320987654320988,20.740740740740744,0)" xlink:href="#bw"/><use transform="matrix(0.04320987654320988,0,0,0.04320987654320988,29.382716049382726,0)" xlink:href="#by"/></g><path fill="#666" d="M93-6v-17H54V5H32v-265h84V-6H93zm176 44V22h-98v20h-23v-153h145V38h-24zm-34-192l20-65 22 6-20 59h59v20H126v-20h109zm-103-72v-20h78v-34h23v34h77v20H132zM171 3h98v-40h-98V3zm0-58h98v-37h-98v37zM54-44h39v-92H54v92zm0-113h39v-83H54v83zm124 0c-7-16-11-38-20-55l20-7 21 56" id="dc"/><use transform="matrix(0.04320987654320988,0,0,0.04320987654320988,0,0)" xlink:href="#dc" id="as"/><path fill="#666" d="M259-146c12-24-9-77 14-87-2-10-14-10-20-19l-11 11H97l-19-10c9 32 2 75 4 113 3 5 13-2 17-4v-17h147c1 6-3 16 3 17zM99-168v-64h147v64H99zM280-46c-1-6 20-13 7-19-5-2-12-7-18-13l-12 14H111l12-48h205c9-1 7-10-1-13-6-4-13-10-21-19l-19 22H18l5 10h84L82-31c3 7 18 0 21-3l5-20h157c-5 36-4 77-30 85-8 0-24-2-48-6v3c21 6 27 15 34 26 48-8 49-46 59-100" id="dd"/><use transform="matrix(0.04320987654320988,0,0,0.04320987654320988,0,0)" xlink:href="#dd" id="at"/><path fill="#666" d="M193-4c2 25 54 13 78 13 20 0 17-26 18-49l22 9-2 25c0 37-30 40-69 39-36-1-70 5-70-32v-279h23v123c36-18 71-40 98-67l15 19c-31 26-71 53-113 72V-4zm-63-269c-9 28-21 55-33 79V42H74l2-200c-13 21-27 39-44 55l-13-21c41-39 70-97 90-157" id="de"/><use transform="matrix(0.04320987654320988,0,0,0.04320987654320988,0,0)" xlink:href="#de" id="au"/><g id="av"><use transform="matrix(0.04320987654320988,0,0,0.04320987654320988,0,0)" xlink:href="#cv"/><use transform="matrix(0.04320987654320988,0,0,0.04320987654320988,8.641975308641976,0)" xlink:href="#cB"/><use transform="matrix(0.04320987654320988,0,0,0.04320987654320988,21.56172839506173,0)" xlink:href="#cC"/><use transform="matrix(0.04320987654320988,0,0,0.04320987654320988,30.203703703703713,0)" xlink:href="#cD"/><use transform="matrix(0.04320987654320988,0,0,0.04320987654320988,33.61728395061729,0)" xlink:href="#cE"/></g><path fill="#666" d="M301-15H38v-27h163l11-135H79v-26h169L234-42h67v27" id="df"/><use transform="matrix(0.04320987654320988,0,0,0.04320987654320988,0,0)" xlink:href="#df" id="aw"/><use transform="matrix(0.04320987654320988,0,0,0.04320987654320988,0,0)" xlink:href="#cf" id="ax"/><path fill="#666" d="M270-148h-56c-1 84-36 142-88 179l-22-21c50-30 78-82 81-158h-78v79H78v-79H21v-26h57v-65h29v65h78v-66h29v66h56v26zm3-54c-7-16-16-27-27-38 17-16 30 16 41 27zm31-15c-7-16-16-27-27-38 16-16 31 17 41 29" id="dg"/><use transform="matrix(0.04320987654320988,0,0,0.04320987654320988,0,0)" xlink:href="#dg" id="ay"/><path fill="#666" d="M234 14c16 1 42 10 42-8v-39H162v75h-22v-160h158V8c4 33-29 31-59 28zM124-141v-19h82v-28h-68v-18h68v-25h-79v-18h79v-31h23v31h80v18h-80v25h69v18h-69v28h87v19H124zM62 42v-322h23V42H62zM228-99v46h48v-46h-48zm-66 46h45v-46h-45v46zM19-119c7-24 13-62 12-94l19 5-11 98zm90-103c5 19 12 44 14 65l-18 8c-3-23-7-47-13-67" id="dh"/><use transform="matrix(0.04320987654320988,0,0,0.04320987654320988,0,0)" xlink:href="#dh" id="az"/><path fill="#666" d="M269-25c15 17 30 31 51 44l-13 19c-19-13-36-28-50-45-12 18-26 34-43 48l-15-17c18-14 32-30 45-48-18-27-30-58-37-95h-9V43h-23v-303h120c-1 52 16 121-57 100l-4-21c10 2 37 9 38-6v-53h-74v101h92l15 10c-8 40-20 75-36 104zm-161-79l12-54 21 6-12 48h34v19h-59v40h50v21h-50v66H82v-66H32v-21h50v-40H24v-19h35l-13-48 20-5 14 53h28zm-85-59v-20h60v-39H35v-20h48v-38h22v38h47v20h-47v39h58v20H23zm204 44c6 30 16 52 29 75 11-23 20-47 25-75h-54" id="di"/><use transform="matrix(0.04320987654320988,0,0,0.04320987654320988,0,0)" xlink:href="#di" id="aA"/><path fill="#666" d="M118 9c-5-18-9-31-17-49l22-7 19 56h54c7-20 9-35 15-57H77v-78h184v78h-50l23 5-15 52h92v21H27V9h91zm92-243c12-10 25-23 34-37l18 13c-13 16-26 29-40 41 6 8 13 16 21 24 15-11 29-29 40-44l17 14c-12 15-27 32-42 44 18 15 38 28 60 38l-13 20c-27-13-49-29-69-49v15H105v-14c-21 21-44 40-73 53l-12-19c27-12 49-28 68-47-14-14-26-22-40-34l14-16c14 13 28 21 41 34 13-15 24-33 32-50H51v-19h95l16 12c-12 29-31 58-52 80h121c-25-25-47-56-64-91l18-10c8 14 15 30 25 42zM100-67h138v-39H100v39" id="dj"/><use transform="matrix(0.04320987654320988,0,0,0.04320987654320988,0,0)" xlink:href="#dj" id="aB"/><path fill="#666" d="M141-193c-5-21-16-21-44-41 5-4 20-5 6-12-6-2-12-5-19-10-19 56-31 78-67 114l1 4c9-5 18-11 26-19 1 13 21 7 34 8v46H26l6 10h46V10c-18 5-42 10-59 11 6 6 9 22 17 28 2 0 4-2 4-6 29-17 62-24 108-49l-2-3C127-3 110 2 95 6v-99h49c9 1 9-7 2-11-8-4-14-9-18-15-8 8-13 19-33 16v-46c14-2 56 7 42-11-8-4-13-9-17-14l-16 15H46c20-19 34-43 48-71 19 17 27 35 39 48 5 0 8-3 8-11zM53-2c27-15-1-52-23-66C40-48 47-28 47-9c0 4 2 7 6 7zm76-76c-3 19-10 41-22 67l3 3c11-13 22-31 34-54 6-2 15-5 3-8-6-1-12-4-18-8zm157-151c-1-5 17-10 5-15-5-3-10-7-15-12l-11 9H154l5 10h109v41H162l6 10h100v46H137l6 10h81V20c-1 14-31 7-43 5v4c20 4 28 14 35 25 10-2 24-16 24-32v-126c13 60 33 103 66 132 5-8 21-7 28-13-34-15-55-38-70-71 20-10 36-26 56-36-3-6-12-9-18-16-12 20-25 37-40 49-8-20-18-42-22-71h83c9 0 10-10 1-11-8-5-14-9-18-15-7 5-8 16-20 16v-89zM189-54c12-3 11-20 1-31-6-7-15-16-28-26 6 20 15 25 19 49 2 4 4 8 8 8zm-61 67c7 10 20 30 25 9 20-24 46-47 61-82-36 37-64 61-86 73" id="dk"/><use transform="matrix(0.04320987654320988,0,0,0.04320987654320988,0,0)" xlink:href="#dk" id="aC"/><g id="aD"><use transform="matrix(0.04320987654320988,0,0,0.04320987654320988,0,0)" xlink:href="#cr"/><use transform="matrix(0.04320987654320988,0,0,0.04320987654320988,10.370370370370372,0)" xlink:href="#cs"/><use transform="matrix(0.04320987654320988,0,0,0.04320987654320988,15.512345679012347,0)" xlink:href="#ct"/><use transform="matrix(0.04320987654320988,0,0,0.04320987654320988,24.154320987654323,0)" xlink:href="#cu"/><use transform="matrix(0.04320987654320988,0,0,0.04320987654320988,31.9320987654321,0)" xlink:href="#cv"/><use transform="matrix(0.04320987654320988,0,0,0.04320987654320988,40.574074074074076,0)" xlink:href="#cw"/><use transform="matrix(0.04320987654320988,0,0,0.04320987654320988,48.351851851851855,0)" xlink:href="#cw"/></g><path fill="#666" d="M151-85c6-55-69-56-94-29H26l34-134h141l-5 27H84l-20 79c41-34 127-11 121 53C199 13 30 38 8-54l29-8C52 0 159-13 151-85" id="dl"/><use transform="matrix(0.04320987654320988,0,0,0.04320987654320988,0,0)" xlink:href="#dl" id="aE"/><g id="aG"><use transform="matrix(0.04320987654320988,0,0,0.04320987654320988,0,0)" xlink:href="#cy"/><use transform="matrix(0.04320987654320988,0,0,0.04320987654320988,4.320987654320988,0)" xlink:href="#cz"/><use transform="matrix(0.04320987654320988,0,0,0.04320987654320988,12.962962962962964,0)" xlink:href="#cA"/></g><g id="aH"><use transform="matrix(0.04320987654320988,0,0,0.04320987654320988,0,0)" xlink:href="#cG"/><use transform="matrix(0.04320987654320988,0,0,0.04320987654320988,8.641975308641976,0)" xlink:href="#cw"/><use transform="matrix(0.04320987654320988,0,0,0.04320987654320988,16.419753086419753,0)" xlink:href="#cv"/><use transform="matrix(0.04320987654320988,0,0,0.04320987654320988,25.061728395061728,0)" xlink:href="#cs"/><use transform="matrix(0.04320987654320988,0,0,0.04320987654320988,29.339506172839503,0)" xlink:href="#cF"/></g><path fill="#666" d="M67-162c32-53 139-36 121 50C175-51 163 2 97 4 68 4 52-11 42-31 38 6 28 39 22 75H-9l50-265h29c-1 10 0 20-3 28zm89 36c0-26-10-43-35-43-54 0-67 50-69 103-1 29 14 45 42 46 53 0 62-58 62-106" id="dm"/><path fill="#666" d="M133-28C103 26-5 8 13-77c13-62 24-115 90-117 29-1 46 15 56 35l19-102h32L160 0h-30zM45-64c-2 27 10 43 35 43 54-1 69-50 69-103 0-29-15-46-42-46-53-1-58 58-62 106" id="dn"/><g id="aI"><use transform="matrix(0.04320987654320988,0,0,0.04320987654320988,0,0)" xlink:href="#dm"/><use transform="matrix(0.04320987654320988,0,0,0.04320987654320988,8.641975308641976,0)" xlink:href="#cC"/><use transform="matrix(0.04320987654320988,0,0,0.04320987654320988,17.283950617283953,0)" xlink:href="#cw"/><use transform="matrix(0.04320987654320988,0,0,0.04320987654320988,25.06172839506173,0)" xlink:href="#cw"/><use transform="matrix(0.04320987654320988,0,0,0.04320987654320988,32.839506172839506,0)" xlink:href="#cM"/><use transform="matrix(0.04320987654320988,0,0,0.04320987654320988,44.03086419753087,0)" xlink:href="#ct"/><use transform="matrix(0.04320987654320988,0,0,0.04320987654320988,52.67283950617284,0)" xlink:href="#cs"/><use transform="matrix(0.04320987654320988,0,0,0.04320987654320988,57.814814814814824,0)" xlink:href="#dn"/></g><g id="aJ"><use transform="matrix(0.04320987654320988,0,0,0.04320987654320988,0,0)" xlink:href="#cH"/><use transform="matrix(0.04320987654320988,0,0,0.04320987654320988,12.098765432098766,0)" xlink:href="#cG"/><use transform="matrix(0.04320987654320988,0,0,0.04320987654320988,20.74074074074074,0)" xlink:href="#cI"/><use transform="matrix(0.04320987654320988,0,0,0.04320987654320988,25.061728395061728,0)" xlink:href="#cA"/></g><use transform="matrix(0.04320987654320988,0,0,0.04320987654320988,0,0)" xlink:href="#cJ" id="aK"/><g id="aL"><use transform="matrix(0.04320987654320988,0,0,0.04320987654320988,0,0)" xlink:href="#bw"/><use transform="matrix(0.04320987654320988,0,0,0.04320987654320988,8.641975308641976,0)" xlink:href="#by"/><use transform="matrix(0.04320987654320988,0,0,0.04320987654320988,17.283950617283953,0)" xlink:href="#bv"/><use transform="matrix(0.04320987654320988,0,0,0.04320987654320988,21.60493827160494,0)" xlink:href="#bB"/><use transform="matrix(0.04320987654320988,0,0,0.04320987654320988,25.018518518518523,0)" xlink:href="#bv"/><use transform="matrix(0.04320987654320988,0,0,0.04320987654320988,29.339506172839503,0)" xlink:href="#bC"/></g><g id="aM"><use transform="matrix(0.04320987654320988,0,0,0.04320987654320988,0,0)" xlink:href="#bw"/><use transform="matrix(0.04320987654320988,0,0,0.04320987654320988,8.641975308641976,0)" xlink:href="#ca"/><use transform="matrix(0.04320987654320988,0,0,0.04320987654320988,21.56172839506173,0)" xlink:href="#bz"/><use transform="matrix(0.04320987654320988,0,0,0.04320987654320988,30.203703703703713,0)" xlink:href="#bB"/><use transform="matrix(0.04320987654320988,0,0,0.04320987654320988,33.61728395061729,0)" xlink:href="#bA"/></g><use transform="matrix(0.04320987654320988,0,0,0.04320987654320988,0,0)" xlink:href="#cK" id="aN"/><g id="aO"><use transform="matrix(0.04320987654320988,0,0,0.04320987654320988,0,0)" xlink:href="#cK"/><use transform="matrix(0.04320987654320988,0,0,0.04320987654320988,11.19135802469136,0)" xlink:href="#cC"/><use transform="matrix(0.04320987654320988,0,0,0.04320987654320988,19.833333333333336,0)" xlink:href="#cI"/><use transform="matrix(0.04320987654320988,0,0,0.04320987654320988,24.154320987654323,0)" xlink:href="#cC"/></g><g id="aP"><use transform="matrix(0.04320987654320988,0,0,0.04320987654320988,0,0)" xlink:href="#cw"/><use transform="matrix(0.04320987654320988,0,0,0.04320987654320988,7.777777777777779,0)" xlink:href="#cI"/><use transform="matrix(0.04320987654320988,0,0,0.04320987654320988,12.098765432098766,0)" xlink:href="#ct"/><use transform="matrix(0.04320987654320988,0,0,0.04320987654320988,20.74074074074074,0)" xlink:href="#cs"/><use transform="matrix(0.04320987654320988,0,0,0.04320987654320988,25.882716049382715,0)" xlink:href="#cv"/></g><path fill="#666" d="M304 13C200 13 111-29 47-96l55-63c53 55 127 91 203 91 96 0 154-48 154-120 1-113-145-134-228-176-66-33-149-81-149-188 0-113 98-195 231-195 87 0 164 37 216 91l-49 59c-45-42-99-69-167-69-83 0-137 42-137 108 0 112 144 126 226 167 83 42 151 87 151 196 0 116-96 208-249 208" id="do"/><path fill="#666" d="M311 13C167 13 51-92 51-271c0-176 119-286 245-286 154-3 234 132 212 307H142c6 116 77 190 180 190 53 0 96-16 136-43l33 60c-48 31-106 56-180 56zM141-315h291c0-110-50-169-135-169-77 0-145 62-156 169" id="dp"/><path fill="#666" d="M92 0v-543h75l8 78h3c52-51 108-92 182-92 114 0 166 74 166 213V0h-91v-332c0-102-31-145-103-145-56 0-94 28-149 83V0H92" id="dq"/><path fill="#666" d="M277 13C141 13 53-90 53-271c-5-249 231-368 388-222-8-95-4-201-5-303h91V0h-74c-4-21-4-46-11-64-43 42-100 77-165 77zm20-76c50 0 94-25 139-75v-285c-123-120-291-42-289 151 0 131 54 209 150 209" id="dr"/><path fill="#666" d="M388 13C195 13 58-128 58-366c0-237 142-381 336-381 102 0 169 46 211 91l-50 60c-37-39-84-70-159-70-147 0-243 114-243 297 0 185 87 301 244 301 53 0 104-16 133-43v-192H375v-77h240v308c-47 49-128 85-227 85" id="ds"/><path fill="#666" d="M92 0v-543h75l8 99h3c50-86 117-137 212-101l-17 80c-18-7-31-9-53-9-45 0-101 32-137 125V0H92" id="dt"/><path fill="#666" d="M92 0v-543h91V0H92zm46-655c-36 0-63-25-63-59 0-37 27-59 63-59s63 22 63 59c0 34-27 59-63 59" id="du"/><g id="aQ"><use transform="matrix(0.015555555555555545,0,0,0.015555555555555545,0,0)" xlink:href="#do"/><use transform="matrix(0.015555555555555545,0,0,0.015555555555555545,9.28666666666666,0)" xlink:href="#dp"/><use transform="matrix(0.015555555555555545,0,0,0.015555555555555545,17.90444444444443,0)" xlink:href="#dq"/><use transform="matrix(0.015555555555555545,0,0,0.015555555555555545,27.408888888888868,0)" xlink:href="#dr"/><use transform="matrix(0.015555555555555545,0,0,0.015555555555555545,37.053333333333306,0)" xlink:href="#ds"/><use transform="matrix(0.015555555555555545,0,0,0.015555555555555545,47.771111111111075,0)" xlink:href="#dt"/><use transform="matrix(0.015555555555555545,0,0,0.015555555555555545,53.80666666666663,0)" xlink:href="#du"/><use transform="matrix(0.015555555555555545,0,0,0.015555555555555545,58.0844444444444,0)" xlink:href="#dr"/></g><path fill="#666" d="M191-298h222c-37-120-75-237-109-360h-4c-33 124-71 241-109 360zM506 0l-70-224H168L97 0H3l249-733h103L604 0h-98" id="dv"/><path fill="#666" d="M100 0v-733h209c165 0 275 55 275 215 0 155-110 227-270 227H193V0h-93zm93-366h109c129 0 190-47 190-152 0-106-65-140-194-140H193v292" id="dw"/><path fill="#666" d="M100 0v-733h93V0h-93" id="dx"/><g id="aR"><use transform="matrix(0.015555555555555545,0,0,0.015555555555555545,0,0)" xlink:href="#dv"/><use transform="matrix(0.015555555555555545,0,0,0.015555555555555545,9.442222222222215,0)" xlink:href="#dw"/><use transform="matrix(0.015555555555555545,0,0,0.015555555555555545,19.27333333333332,0)" xlink:href="#dx"/></g><g id="aS"><use transform="matrix(0.04320987654320988,0,0,0.04320987654320988,0,0)" xlink:href="#bV"/><use transform="matrix(0.04320987654320988,0,0,0.04320987654320988,4.320987654320988,0)" xlink:href="#by"/><use transform="matrix(0.04320987654320988,0,0,0.04320987654320988,12.962962962962964,0)" xlink:href="#bF"/></g><g id="aT"><use transform="matrix(0.04320987654320988,0,0,0.04320987654320988,0,0)" xlink:href="#cW"/><use transform="matrix(0.04320987654320988,0,0,0.04320987654320988,8.641975308641976,0)" xlink:href="#bz"/><use transform="matrix(0.04320987654320988,0,0,0.04320987654320988,17.283950617283953,0)" xlink:href="#bT"/><use transform="matrix(0.04320987654320988,0,0,0.04320987654320988,25.06172839506173,0)" xlink:href="#bT"/><use transform="matrix(0.04320987654320988,0,0,0.04320987654320988,32.839506172839506,0)" xlink:href="#cX"/><use transform="matrix(0.04320987654320988,0,0,0.04320987654320988,44.03086419753087,0)" xlink:href="#bR"/><use transform="matrix(0.04320987654320988,0,0,0.04320987654320988,52.67283950617284,0)" xlink:href="#bx"/><use transform="matrix(0.04320987654320988,0,0,0.04320987654320988,57.814814814814824,0)" xlink:href="#cY"/><use transform="matrix(0.04320987654320988,0,0,0.04320987654320988,66.4567901234568,0)" xlink:href="#cb"/></g><g id="aU"><use transform="matrix(0.04320987654320988,0,0,0.04320987654320988,0,0)" xlink:href="#bS"/><use transform="matrix(0.04320987654320988,0,0,0.04320987654320988,7.777777777777779,0)" xlink:href="#bR"/><use transform="matrix(0.04320987654320988,0,0,0.04320987654320988,16.419753086419753,0)" xlink:href="#by"/><use transform="matrix(0.04320987654320988,0,0,0.04320987654320988,25.061728395061728,0)" xlink:href="#cZ"/><use transform="matrix(0.04320987654320988,0,0,0.04320987654320988,29.382716049382715,0)" xlink:href="#bB"/><use transform="matrix(0.04320987654320988,0,0,0.04320987654320988,32.7962962962963,0)" xlink:href="#bx"/><use transform="matrix(0.04320987654320988,0,0,0.04320987654320988,37.93827160493827,0)" xlink:href="#ca"/></g><use transform="matrix(0.04320987654320988,0,0,0.04320987654320988,0,0)" xlink:href="#df" id="aV"/><use transform="matrix(0.04320987654320988,0,0,0.04320987654320988,0,0)" xlink:href="#cf" id="aW"/><use transform="matrix(0.04320987654320988,0,0,0.04320987654320988,0,0)" xlink:href="#dg" id="aX"/><use transform="matrix(0.04320987654320988,0,0,0.04320987654320988,0,0)" xlink:href="#dh" id="aY"/><use transform="matrix(0.04320987654320988,0,0,0.04320987654320988,0,0)" xlink:href="#di" id="aZ"/><use transform="matrix(0.04320987654320988,0,0,0.04320987654320988,0,0)" xlink:href="#cm" id="ba"/><path fill="#666" d="M109-261l-14 14H34l6 10h82c7 1 10-9 2-10-7-4-11-9-15-14zm13 42l-15 16H18l5 10h116c8 0 10-10 1-11-8-5-14-9-18-15zm-16 46l-15 15H36l5 10h80c8 1 9-8 2-10-8-4-13-10-17-15zm0 46l-15 15H36l5 9h80c8 1 9-8 2-10-8-4-13-9-17-14zm12 165c12-25-8-82 12-94-2-10-14-10-20-19-11 18-61 14-77 1 9 35 1 83 4 124 1 7 10-1 14-1 5-5 1-16 2-24h51c1 5-3 16 3 16zM53 15v-69h51v69H53zm187-234c-2-17 3-25 7-35l-26-8c4 9 3 29 3 43h-80l6 9h74v44h-61l6 10h134c7 1 10-8 3-10-7-4-14-10-18-15l-15 15h-33v-44h80c9 1 10-8 2-10-8-5-15-10-19-16l-15 17h-48zm48 142c15 4 17-30 41-29 17-12-13-18-16-28l-11 12H159v-16h-4c0 30-16 37-29 53 1 6 5 10 11 10 16 0 18-19 21-37h145c-5 15-10 27-15 35zm-82 32c0-15 1-27 6-33l-27-8c3 1 4 15 4 41 0 62-22 76-67 96l2 3c49-15 82-33 82-99zm113 27c-4 30 6 49-30 44-20-3-26 0-25-16 2-29-6-72 7-87-7-3-17-4-25-8 2 32-1 62 1 95 2 30 4 33 42 33 30 0 38 1 45-18-14-3-9-28-15-43" id="dy"/><use transform="matrix(0.04320987654320988,0,0,0.04320987654320988,0,0)" xlink:href="#dy" id="bb"/><path fill="#666" d="M54-48c0 31 28 20 37 1l25-55c-30 8-62 21-62 54zm210-117l-15 71c23 12 40 26 58 43l-19 26c-16-15-28-28-47-41-11 34-25 60-42 87L175 2c18-22 31-50 43-83-25-12-46-18-79-21C117-66 120 1 65 1 20 1 25-86 60-99c17-12 40-20 65-24 10-25 17-48 25-74-26 3-43 3-64 11l-13-30c34 0 67-6 92-15l24 15-40 91c29 4 50 9 76 19 4-20 9-38 8-63" id="dz"/><use transform="matrix(0.04320987654320988,0,0,0.04320987654320988,0,0)" xlink:href="#dz" id="bc"/><path fill="#666" d="M42 42v-144h24V-1h90v-134H55v-115h23v95h78v-125h23v125h81v-95h24v115H179V-1h94v-101h23V38h-23V19H66v23H42" id="dA"/><use transform="matrix(0.04320987654320988,0,0,0.04320987654320988,0,0)" xlink:href="#dA" id="bd"/><path fill="#666" d="M108-28c21 82 118 20 132-31l20 26c-26 39-52 66-105 66-120 0-54-167-77-283l33 6c7 70-5 148-3 216" id="dB"/><use transform="matrix(0.04320987654320988,0,0,0.04320987654320988,0,0)" xlink:href="#dB" id="be"/><path fill="#666" d="M149-56L138 0h-32l11-56H2l5-25 144-167h35L154-81h33l-5 25h-33zm-4-147L40-81h82" id="dC"/><use transform="matrix(0.04320987654320988,0,0,0.04320987654320988,0,0)" xlink:href="#dC" id="bf"/><g id="bg"><use transform="matrix(0.04320987654320988,0,0,0.04320987654320988,0,0)" xlink:href="#cv"/><use transform="matrix(0.04320987654320988,0,0,0.04320987654320988,8.641975308641976,0)" xlink:href="#cB"/><use transform="matrix(0.04320987654320988,0,0,0.04320987654320988,21.56172839506173,0)" xlink:href="#cC"/><use transform="matrix(0.04320987654320988,0,0,0.04320987654320988,30.203703703703713,0)" xlink:href="#cD"/><use transform="matrix(0.04320987654320988,0,0,0.04320987654320988,33.61728395061729,0)" xlink:href="#cE"/></g><g id="bh"><use transform="matrix(0.04320987654320988,0,0,0.04320987654320988,0,0)" xlink:href="#cG"/><use transform="matrix(0.04320987654320988,0,0,0.04320987654320988,8.641975308641976,0)" xlink:href="#cw"/><use transform="matrix(0.04320987654320988,0,0,0.04320987654320988,16.419753086419753,0)" xlink:href="#cv"/><use transform="matrix(0.04320987654320988,0,0,0.04320987654320988,25.061728395061728,0)" xlink:href="#cs"/></g><g id="bi"><use transform="matrix(0.03703703703703704,0,0,0.03703703703703704,0,0)" xlink:href="#cK"/><use transform="matrix(0.03703703703703704,0,0,0.03703703703703704,9.592592592592593,0)" xlink:href="#cC"/><use transform="matrix(0.03703703703703704,0,0,0.03703703703703704,17,0)" xlink:href="#cI"/><use transform="matrix(0.03703703703703704,0,0,0.03703703703703704,20.703703703703702,0)" xlink:href="#cC"/></g><g id="bj"><use transform="matrix(0.03703703703703704,0,0,0.03703703703703704,0,0)" xlink:href="#cL"/><use transform="matrix(0.03703703703703704,0,0,0.03703703703703704,3.703703703703704,0)" xlink:href="#cE"/><use transform="matrix(0.03703703703703704,0,0,0.03703703703703704,6.629629629629631,0)" xlink:href="#ct"/><use transform="matrix(0.03703703703703704,0,0,0.03703703703703704,14.037037037037038,0)" xlink:href="#cM"/></g><use transform="matrix(0.04320987654320988,0,0,0.04320987654320988,0,0)" xlink:href="#cK" id="bk"/><g id="bl"><use transform="matrix(0.04320987654320988,0,0,0.04320987654320988,0,0)" xlink:href="#cK"/><use transform="matrix(0.04320987654320988,0,0,0.04320987654320988,11.19135802469136,0)" xlink:href="#cC"/><use transform="matrix(0.04320987654320988,0,0,0.04320987654320988,19.833333333333336,0)" xlink:href="#cI"/><use transform="matrix(0.04320987654320988,0,0,0.04320987654320988,24.154320987654323,0)" xlink:href="#cC"/></g><g id="bm"><use transform="matrix(0.04320987654320988,0,0,0.04320987654320988,0,0)" xlink:href="#cw"/><use transform="matrix(0.04320987654320988,0,0,0.04320987654320988,7.777777777777779,0)" xlink:href="#cI"/><use transform="matrix(0.04320987654320988,0,0,0.04320987654320988,12.098765432098766,0)" xlink:href="#ct"/><use transform="matrix(0.04320987654320988,0,0,0.04320987654320988,20.74074074074074,0)" xlink:href="#cs"/><use transform="matrix(0.04320987654320988,0,0,0.04320987654320988,25.882716049382715,0)" xlink:href="#cv"/></g></defs></g></svg>